<svg width="50" height="49" viewBox="0 0 50 49" fill="none" xmlns="http://www.w3.org/2000/svg">
<path fill-rule="evenodd" clip-rule="evenodd" d="M0 0V48.3403H49.2186V0H0Z" fill="#038CB8"/>
<path fill-rule="evenodd" clip-rule="evenodd" d="M12.7313 23.9847V23.3593L12.4316 23.9847H9.83843L9.51276 23.3138V23.9847H4.66487L4.09158 22.6301H3.12092L2.51484 23.9847H0V19.8949L1.84393 15.7269H5.37102L5.86601 16.9079V15.7358H10.1815L11.1306 17.724L12.0579 15.7269H25.6799C25.6799 15.7269 26.3944 15.7184 26.8637 16.0483L26.8615 15.7269H30.2931V16.1786C30.2931 16.1786 30.91 15.7269 31.8222 15.7269H37.8773L38.4095 16.9253V15.7269H42.2906L42.9944 16.9253V15.7269H46.704V23.9932H42.8923L41.9975 22.5518V23.9844H37.2607L36.594 22.5083H35.6664L35.041 23.9844H32.174C32.174 23.9844 31.1055 23.9712 30.3039 23.3985V23.9844H24.5964V22.0568C24.5964 21.7768 24.3814 21.7964 24.3814 21.7964H24.1729V23.9844L12.7313 23.9847ZM9.88419 25.7753H17.3835L18.4652 26.9996L19.5726 25.7753H25.3388C25.3388 25.7753 25.8796 25.7883 26.3944 26.0617V25.7753H31.5285C32.1801 25.7753 32.7275 26.1011 32.7275 26.1011V25.7753H39.3278V26.0749C39.3278 26.0749 39.7968 25.7753 40.4289 25.7753H44.7291V26.0749C44.7291 26.0749 45.2699 25.7753 45.8434 25.7753H49.2186V33.564C49.2186 33.564 48.7755 34.0653 47.8569 34.0653H43.4066V33.8178C43.4066 33.8178 42.9831 34.0653 42.3381 34.0653H30.5146V32.0531C30.5146 31.8545 30.4277 31.8185 30.2518 31.8185H30.0888V34.0653H26.3944V31.8315C26.3944 31.8315 25.984 32.0528 25.2997 32.0528H23.9705V34.0653H19.4163L18.3803 32.8019L17.2729 34.0653H9.88419V25.7753Z" fill="white"/>
<path fill-rule="evenodd" clip-rule="evenodd" d="M33.7796 27.018H38.4853V28.2799H35.2198V29.3789H38.3938V30.4902H35.2198V31.6489H38.4853V32.878H33.7796V27.018ZM47.577 29.3016C49.3463 29.3921 49.4941 30.2747 49.4941 31.217C49.4941 32.3153 48.5909 32.9042 47.6487 32.9042H44.6254V31.6486H46.9812C47.3805 31.6486 47.9756 31.6486 47.9756 31.0857C47.9756 30.8176 47.8711 30.6474 47.4456 30.6024C47.2564 30.5758 46.5562 30.5364 46.4512 30.5344C44.8529 30.4924 44.481 29.6983 44.481 28.7311C44.481 27.632 45.253 27.0307 46.1962 27.0307H49.2195V28.287H47.0071C46.5033 28.2926 45.9606 28.2275 45.9606 28.7964C45.9606 29.1564 46.2288 29.228 46.5686 29.2615C46.6868 29.2618 47.4718 29.3024 47.577 29.3016ZM42.1577 29.3016C43.927 29.3921 44.0751 30.2747 44.0751 31.217C44.0751 32.3153 43.172 32.9042 42.2297 32.9042H39.2064V31.6486H41.5622C41.9615 31.6486 42.5573 31.6486 42.5573 31.0857C42.5573 30.8176 42.4521 30.6474 42.0268 30.6024C41.837 30.5758 41.1367 30.5364 41.0325 30.5344C39.4342 30.4924 39.063 29.6983 39.063 28.7311C39.063 27.632 39.835 27.0307 40.7773 27.0307H43.8005V28.287H41.5889C41.0843 28.2926 40.5414 28.2275 40.5414 28.7964C40.5414 29.1564 40.8095 29.228 41.1501 29.2615C41.2676 29.2618 42.0525 29.3024 42.1577 29.3016ZM25.089 27.0309H20.0368L18.3876 28.8494L16.7915 27.0182H11.1176V32.8785H16.6083L18.3355 30.9426L20.0238 32.8915H22.7855V30.9027H24.7224C25.469 30.9027 26.8304 30.8773 26.8304 28.8228C26.8301 27.3576 25.7956 27.0309 25.089 27.0309ZM15.8554 31.6489H12.537V30.4904H15.7113V29.3792H12.537V28.2801L16.0382 28.2872L17.4395 29.8824L15.8554 31.6489ZM21.359 32.3283L19.291 29.8824L21.359 27.5932V32.3283ZM24.6045 29.6951H22.8112V28.2882H24.6104C25.2128 28.2882 25.4026 28.6743 25.4026 28.9619C25.4026 29.3547 25.1929 29.6951 24.6045 29.6951ZM32.0426 30.2231C32.8283 29.8306 33.0377 29.3075 33.0377 28.6002C33.0377 27.3454 32.0171 27.0309 31.3098 27.0309H27.5666V32.8912H29.0068V30.8242H30.8914C31.3888 30.8242 31.585 31.3212 31.5975 31.8181L31.6367 32.891H33.038L32.9851 31.6878C32.9849 30.7452 32.724 30.3011 32.0426 30.2231ZM30.7996 29.6159H29.0071V28.2879H30.8062C31.4086 28.2879 31.5978 28.6741 31.5978 28.9617C31.5975 29.3545 31.3888 29.6159 30.7996 29.6159ZM29.3254 22.7683V16.9014H27.8857V22.7683H29.3254ZM16.1013 16.908H20.806V18.1699H17.5415V19.2692H20.7148V20.3809H17.5415V21.5389H20.806V22.7683H16.1013V16.908ZM26.1367 20.0992C26.9224 19.7072 27.1318 19.1843 27.1318 18.477C27.1318 17.2215 26.1105 16.908 25.4039 16.908H21.6607V22.7683H23.1002V20.7013H24.985C25.4829 20.7013 25.6786 21.1982 25.6916 21.6952L25.7315 22.768H27.1318L27.0797 21.5641C27.0797 20.6223 26.8174 20.1782 26.1367 20.0992ZM24.8935 19.4929H23.1002V18.165H24.9001C25.5015 18.165 25.6916 18.5511 25.6916 18.8387C25.6916 19.2313 25.4829 19.4929 24.8935 19.4929ZM12.7812 16.908L11.0146 20.8387L9.25385 16.908H6.99666V22.5523L4.48353 16.908H2.57868L0.0136719 22.7683H1.53242L2.09469 21.4599H4.968L5.53762 22.7683H8.43612V18.4184L10.3601 22.7683H11.6691L13.6386 18.491V22.7683H15.0783V16.908H12.7812ZM2.63764 20.1951L3.49648 18.1469L4.39104 20.1951H2.63764ZM44.181 16.905V20.9627L41.7535 16.905H39.6263V22.4081L37.1726 16.908H35.2677L33.2853 21.4467C33.2853 21.4467 32.4475 21.4467 32.3626 21.4271C32.0154 21.3555 31.4739 21.1107 31.4673 20.0774V19.6521C31.4673 18.2785 32.2131 18.1784 33.1693 18.1784H34.0588V16.9048H32.1791C31.5246 16.9048 30.101 17.4047 30.0526 19.8114C30.02 21.4335 30.7267 22.7707 32.3227 22.7707H34.2212L34.7835 21.4624H37.6561L38.2259 22.7707H41.0657V18.48L43.6572 22.771H45.6198V16.905H44.181ZM35.3385 20.198L36.1958 18.1498L37.0989 20.198H35.3385Z" fill="#038CB8"/>
</svg>
