<svg width="42" height="42" viewBox="0 0 42 42" fill="none" xmlns="http://www.w3.org/2000/svg">
<path fill-rule="evenodd" clip-rule="evenodd" d="M12.25 3.5H26.25C28.183 3.5 29.75 5.067 29.75 7V9.625H21.875C20.4253 9.625 19.25 10.8003 19.25 12.25V26.25C19.25 27.6997 20.4253 28.875 21.875 28.875H29.75V35C29.75 36.933 28.183 38.5 26.25 38.5H12.25C10.317 38.5 8.75 36.933 8.75 35V7C8.75 5.067 10.317 3.5 12.25 3.5ZM19.25 35C20.2165 35 21 34.2165 21 33.25C21 32.2835 20.2165 31.5 19.25 31.5C18.2835 31.5 17.5 32.2835 17.5 33.25C17.5 34.2165 18.2835 35 19.25 35ZM21.875 12.25H29.75C31.683 12.25 33.25 13.817 33.25 15.75V16.1875H21.875V12.25ZM21.875 18.8125H33.25V22.75C33.25 24.683 31.683 26.25 29.75 26.25H21.875V18.8125Z" fill="#0033A0"/>
</svg>
