<svg width="32" height="36" viewBox="0 0 32 36" fill="none" xmlns="http://www.w3.org/2000/svg">
<path d="M12.3627 1.49968C14.6135 0.166772 17.3865 0.166773 19.6373 1.49968L28.1127 6.51882C30.3635 7.85173 31.75 10.315 31.75 12.9809V23.0191C31.75 25.685 30.3635 28.1483 28.1127 29.4812L19.6373 34.5003C17.3865 35.8332 14.6135 35.8332 12.3627 34.5003L3.88731 29.4812C1.63653 28.1483 0.25 25.685 0.25 23.0191V12.9809C0.25 10.315 1.63653 7.85173 3.88731 6.51882L12.3627 1.49968Z" fill="#CCD6EC"/>
<path d="M12.3622 34.5C14.6129 35.8329 17.386 35.8329 19.6368 34.5L27.0263 30.124C24.825 26.2215 20.7111 23.5961 15.9995 23.5961C11.2878 23.5961 7.17399 26.2215 4.97266 30.124L12.3622 34.5Z" fill="#0033A0"/>
<circle cx="5.25" cy="5.25" r="5.25" transform="matrix(1 0 0 -1 10.75 19.75)" fill="#0033A0"/>
</svg>
