<svg width="36" height="36" viewBox="0 0 36 36" fill="none" xmlns="http://www.w3.org/2000/svg">
<path fill-rule="evenodd" clip-rule="evenodd" d="M27 3H18C15.4819 3 13.3262 4.55113 12.4361 6.75H32.5638C31.6738 4.55113 29.518 3 27 3ZM3 24L3 18H9C10.6569 18 12 19.3431 12 21C12 22.6569 10.6569 24 9 24H3ZM9 9H33V21.5C33 22.0523 32.5523 22.5 32 22.5H25C22.7909 22.5 21 24.2909 21 26.5V32C21 32.5523 20.5523 33 20 33H9C5.68629 33 3 30.3137 3 27V26.25H9C11.8995 26.25 14.25 23.8995 14.25 21C14.25 18.1005 11.8995 15.75 9 15.75L3 15.75V15C3 11.6863 5.68629 9 9 9ZM26.2955 28.6742L27.375 27.5947V33C27.375 33.6213 27.8787 34.125 28.5 34.125C29.1213 34.125 29.625 33.6213 29.625 33V27.5947L30.7045 28.6742C31.1438 29.1135 31.8562 29.1135 32.2955 28.6742C32.7348 28.2348 32.7348 27.5225 32.2955 27.0832L30.3562 25.1438C29.331 24.1187 27.669 24.1187 26.6438 25.1438L24.7045 27.0832C24.2652 27.5225 24.2652 28.2348 24.7045 28.6742C25.1438 29.1135 25.8562 29.1135 26.2955 28.6742Z" fill="#0033A0"/>
</svg>
