<svg width="32" height="32" viewBox="0 0 32 32" fill="none" xmlns="http://www.w3.org/2000/svg">
<path fill-rule="evenodd" clip-rule="evenodd" d="M17.3327 4C18.4337 4 19.5 4.14827 20.5129 4.42594C19.7714 5.42425 19.3327 6.66089 19.3327 8C19.3327 11.3137 22.019 14 25.3327 14C26.6718 14 27.9084 13.5613 28.9067 12.8198C29.1844 13.8327 29.3327 14.899 29.3327 16C29.3327 22.6274 23.9601 28 17.3327 28H7.99935C5.05383 28 2.66602 25.6122 2.66602 22.6667V16C2.66602 9.37258 8.0386 4 14.666 4H17.3327ZM9.66602 13.3333C9.66602 12.781 10.1137 12.3333 10.666 12.3333H15.9993C16.5516 12.3333 16.9993 12.781 16.9993 13.3333C16.9993 13.8856 16.5516 14.3333 15.9993 14.3333H10.666C10.1137 14.3333 9.66602 13.8856 9.66602 13.3333ZM9.66602 18.6667C9.66602 18.1144 10.1137 17.6667 10.666 17.6667H21.3327C21.885 17.6667 22.3327 18.1144 22.3327 18.6667C22.3327 19.219 21.885 19.6667 21.3327 19.6667H10.666C10.1137 19.6667 9.66602 19.219 9.66602 18.6667ZM25.3327 12C27.5418 12 29.3327 10.2091 29.3327 8C29.3327 5.79086 27.5418 4 25.3327 4C23.1235 4 21.3327 5.79086 21.3327 8C21.3327 10.2091 23.1235 12 25.3327 12Z" fill="#0033A0"/>
</svg>
