<svg width="32" height="32" viewBox="0 0 32 32" fill="none" xmlns="http://www.w3.org/2000/svg">
<path d="M15.9736 31.9999C13.3163 32.0048 10.7221 31.1908 8.54401 29.6685C8.30145 29.4995 8.13598 29.241 8.08401 28.9499C8.03204 28.6588 8.09782 28.359 8.26689 28.1165C8.43595 27.8739 8.69445 27.7084 8.98552 27.6565C9.27658 27.6045 9.57637 27.6703 9.81893 27.8393C11.4343 28.964 13.327 29.6246 15.2914 29.7494C17.2558 29.8742 19.2168 29.4584 20.9615 28.5471C22.7062 27.6359 24.1679 26.2641 25.1879 24.5806C26.2079 22.8972 26.7472 20.9665 26.7472 18.9981C26.7472 17.0298 26.2079 15.0991 25.1879 13.4156C24.1679 11.7322 22.7062 10.3604 20.9615 9.44913C19.2168 8.53791 17.2558 8.12211 15.2914 8.24689C13.327 8.37166 11.4343 9.03225 9.81893 10.1569C9.57637 10.326 9.27658 10.3918 8.98552 10.3398C8.69445 10.2878 8.43595 10.1224 8.26689 9.87979C8.09782 9.63723 8.03204 9.33744 8.08401 9.04637C8.13598 8.75531 8.30145 8.49681 8.54401 8.32775C10.2188 7.16171 12.1446 6.40629 14.1655 6.12259C16.1864 5.83889 18.2457 6.03488 20.1768 6.69471C22.108 7.35454 23.8566 8.45968 25.2814 9.92071C26.7062 11.3817 27.767 13.1576 28.3781 15.1047C28.9892 17.0518 29.1334 19.1154 28.799 21.1286C28.4646 23.1417 27.6611 25.0479 26.4533 26.6929C25.2456 28.3378 23.6676 29.6754 21.847 30.5974C20.0264 31.5194 18.0143 31.9998 15.9736 31.9999Z" fill="white"/>
<path d="M8.54403 20.8556H2.60036C2.30479 20.8556 2.02133 20.7382 1.81233 20.5292C1.60333 20.3202 1.48592 20.0367 1.48592 19.7411C1.48592 19.4456 1.60333 19.1621 1.81233 18.9531C2.02133 18.7441 2.30479 18.6267 2.60036 18.6267H8.54403C8.8396 18.6267 9.12306 18.7441 9.33206 18.9531C9.54106 19.1621 9.65847 19.4456 9.65847 19.7411C9.65847 20.0367 9.54106 20.3202 9.33206 20.5292C9.12306 20.7382 8.8396 20.8556 8.54403 20.8556ZM9.55446 16.3978H1.11444C0.818871 16.3978 0.53541 16.2804 0.326412 16.0714C0.117414 15.8624 0 15.579 0 15.2834C0 14.9878 0.117414 14.7044 0.326412 14.4954C0.53541 14.2864 0.818871 14.169 1.11444 14.169H9.55446C9.85003 14.169 10.1335 14.2864 10.3425 14.4954C10.5515 14.7044 10.6689 14.9878 10.6689 15.2834C10.6689 15.579 10.5515 15.8624 10.3425 16.0714C10.1335 16.2804 9.85003 16.3978 9.55446 16.3978ZM10.03 25.3133H1.11444C0.818871 25.3133 0.53541 25.1959 0.326412 24.9869C0.117414 24.7779 0 24.4945 0 24.1989C0 23.9033 0.117414 23.6199 0.326412 23.4109C0.53541 23.2019 0.818871 23.0845 1.11444 23.0845H10.03C10.3255 23.0845 10.609 23.2019 10.818 23.4109C11.027 23.6199 11.1444 23.9033 11.1444 24.1989C11.1444 24.4945 11.027 24.7779 10.818 24.9869C10.609 25.1959 10.3255 25.3133 10.03 25.3133ZM30.2667 3.60555L25.2562 0.40637C24.6742 0.0365441 23.9694 -0.0874505 23.2961 0.0615682C22.6229 0.210587 22.0362 0.62046 21.6647 1.20134L20.8653 2.45397C20.495 3.0354 20.3706 3.74002 20.5193 4.41311C20.6681 5.08619 21.0779 5.67273 21.6588 6.04395L26.6722 9.24164C27.2539 9.61027 27.9578 9.73374 28.6302 9.58506C29.3025 9.43639 29.8887 9.02766 30.2607 8.44816L31.0602 7.19553C31.4297 6.61388 31.5536 5.90951 31.4049 5.23666C31.2562 4.56381 30.8469 3.9773 30.2667 3.60555Z" fill="white"/>
<path d="M23.164 10.3234C22.9644 10.323 22.7686 10.269 22.597 10.167C22.4255 10.0651 22.2844 9.919 22.1886 9.74394C22.0928 9.56888 22.0458 9.37131 22.0524 9.17186C22.059 8.97241 22.1191 8.7784 22.2263 8.61009L23.8237 6.10484C23.9025 5.98141 24.0047 5.87471 24.1247 5.79081C24.2447 5.70692 24.38 5.64747 24.5229 5.61588C24.6659 5.58428 24.8137 5.58115 24.9578 5.60666C25.102 5.63217 25.2397 5.68582 25.3631 5.76456C25.4865 5.8433 25.5933 5.94557 25.6771 6.06555C25.761 6.18552 25.8205 6.32084 25.8521 6.46379C25.8837 6.60674 25.8868 6.75451 25.8613 6.89867C25.8358 7.04283 25.7821 7.18055 25.7034 7.30397L24.1046 9.80774C24.0041 9.96616 23.8652 10.0965 23.7007 10.1867C23.5362 10.2769 23.3515 10.3239 23.164 10.3234ZM15.9736 10.4541C14.2838 10.4541 12.6319 10.9552 11.2268 11.894C9.82173 12.8329 8.72662 14.1673 8.07995 15.7285C7.43327 17.2897 7.26407 19.0076 7.59374 20.665C7.92341 22.3224 8.73715 23.8448 9.93206 25.0397C11.127 26.2346 12.6494 27.0483 14.3067 27.378C15.9641 27.7077 17.682 27.5385 19.2433 26.8918C20.8045 26.2451 22.1389 25.15 23.0777 23.745C24.0165 22.3399 24.5176 20.688 24.5176 18.9982C24.5251 17.874 24.3093 16.7596 23.8825 15.7196C23.4558 14.6796 22.8268 13.7348 22.0319 12.9399C21.237 12.145 20.2921 11.5159 19.2521 11.0892C18.2121 10.6625 17.0977 10.4466 15.9736 10.4541ZM19.6765 17.2596L18.1594 18.5762C18.1873 18.7151 18.2018 18.8564 18.2025 18.9982C18.21 19.4803 18.0635 19.9523 17.7842 20.3454C17.5049 20.7385 17.1074 21.0321 16.6496 21.1836C16.1918 21.3351 15.6976 21.3364 15.2389 21.1875C14.7803 21.0386 14.3811 20.7472 14.0996 20.3557C13.8181 19.9642 13.6689 19.493 13.6738 19.0108C13.6787 18.5287 13.8373 18.0606 14.1267 17.6749C14.416 17.2891 14.8209 17.0058 15.2825 16.8661C15.7441 16.7265 16.2381 16.7379 16.6928 16.8985L18.2144 15.5761C18.4376 15.3822 18.7288 15.2849 19.0237 15.3057C19.3187 15.3264 19.5933 15.4635 19.7872 15.6868C19.9811 15.91 20.0784 16.2012 20.0576 16.4961C20.0368 16.7911 19.8998 17.0657 19.6765 17.2596Z" fill="white"/>
</svg>
