<svg width="31" height="32" viewBox="0 0 31 32" fill="none" xmlns="http://www.w3.org/2000/svg">
<path fill-rule="evenodd" clip-rule="evenodd" d="M16.2973 0.326577C16.0761 0.116884 15.783 0 15.4782 0C15.1734 0 14.8802 0.116884 14.659 0.326577C11.2892 3.52679 6.80107 5.2817 2.15425 5.21609C1.9011 5.2128 1.65349 5.29029 1.44738 5.43731C1.24126 5.58433 1.08738 5.79322 1.00808 6.03365C0.338106 8.07544 -0.00218324 10.211 1.05396e-05 12.3599C1.05396e-05 21.7928 6.45162 29.716 15.1813 31.9623C15.376 32.0126 15.5803 32.0126 15.775 31.9623C24.5047 29.716 30.9563 21.7928 30.9563 12.3599C30.9563 10.1532 30.6023 8.02597 29.9483 6.03365C29.8692 5.79292 29.7155 5.58368 29.5093 5.43636C29.3032 5.28904 29.0554 5.21132 28.8021 5.2145L28.5751 5.21609C23.8189 5.21609 19.4993 3.35871 16.2973 0.326577ZM21.2091 13.052C21.3043 12.9251 21.3732 12.7804 21.4118 12.6265C21.4503 12.4725 21.4577 12.3125 21.4335 12.1556C21.4092 11.9988 21.3539 11.8484 21.2707 11.7133C21.1876 11.5781 21.0782 11.461 20.9491 11.3687C20.82 11.2764 20.6738 11.2109 20.519 11.1759C20.3642 11.141 20.204 11.1373 20.0478 11.1652C19.8915 11.1931 19.7425 11.2519 19.6093 11.3382C19.4761 11.4244 19.3616 11.5365 19.2723 11.6677L14.1351 18.8591L11.557 16.281C11.3313 16.0707 11.0328 15.9562 10.7244 15.9616C10.4159 15.9671 10.1216 16.092 9.90346 16.3102C9.68532 16.5283 9.56036 16.8226 9.55492 17.1311C9.54947 17.4395 9.66397 17.738 9.87428 17.9637L13.4462 21.5356C13.5684 21.6578 13.7157 21.7518 13.8779 21.8113C14.0402 21.8708 14.2134 21.8942 14.3856 21.88C14.5578 21.8658 14.7248 21.8143 14.8751 21.7291C15.0254 21.6438 15.1554 21.5269 15.2559 21.3864L21.2091 13.052Z" fill="#F2F5FA"/>
</svg>
