<svg width="29" height="32" viewBox="0 0 29 32" fill="none" xmlns="http://www.w3.org/2000/svg">
<path d="M28.0595 17.0578L23.8017 15.3388V6.08264C23.8017 4.46942 23.1669 2.93554 22.0298 1.7719C20.8926 0.608264 19.3322 0 17.719 0H3.43802C1.53388 0 0 1.53388 0 3.43802V27.2397C0 29.1438 1.53388 30.6777 3.43802 30.6777H19.3058C19.914 31.0744 20.5488 31.4711 21.2628 31.8942C21.395 31.9736 21.5273 32 21.6595 32C21.7917 32 21.9504 31.9736 22.0562 31.8942C26.1818 29.4347 28.5355 27.795 28.5355 22.4793V17.7983C28.562 17.4545 28.3769 17.1636 28.0595 17.0578ZM20.8926 2.90909C21.5537 3.57025 21.9769 4.39008 22.1355 5.28926H20.3636C19.3322 5.28926 18.5124 4.46942 18.5124 3.43802V1.66612C19.4116 1.82479 20.2314 2.24793 20.8926 2.90909ZM6.0562 13.2231H17.6926C18.1421 13.2231 18.486 13.5669 18.486 14.0165C18.486 14.4661 18.1421 14.8099 17.6926 14.8099H6.0562C5.60661 14.8099 5.26281 14.4661 5.26281 14.0165C5.26281 13.5669 5.60661 13.2231 6.0562 13.2231ZM6.0562 17.1901H12.9322C13.3818 17.1901 13.7256 17.5339 13.7256 17.9835C13.7256 18.4331 13.3818 18.7769 12.9322 18.7769H6.0562C5.60661 18.7769 5.26281 18.4331 5.26281 17.9835C5.26281 17.5339 5.60661 17.1901 6.0562 17.1901ZM12.9851 22.7438H6.10909C5.6595 22.7438 5.3157 22.4 5.3157 21.9504C5.3157 21.5008 5.6595 21.157 6.10909 21.157H12.9851C13.4347 21.157 13.7785 21.5008 13.7785 21.9504C13.7785 22.4 13.4347 22.7438 12.9851 22.7438ZM26.9752 22.4793C26.9752 26.605 25.5207 27.9802 21.6859 30.281C17.8512 27.9802 16.3967 26.605 16.3967 22.4793V18.3273L21.6859 16.1851L26.9752 18.3273V22.4793Z" fill="#0033A0"/>
</svg>
