<svg width="32" height="32" viewBox="0 0 32 32" fill="none" xmlns="http://www.w3.org/2000/svg">
<path d="M16 9C14.6155 9 13.2622 9.41054 12.111 10.1797C10.9599 10.9489 10.0627 12.0421 9.53285 13.3212C9.00303 14.6003 8.86441 16.0078 9.13451 17.3656C9.4046 18.7235 10.0713 19.9708 11.0503 20.9497C12.0292 21.9287 13.2765 22.5954 14.6344 22.8655C15.9922 23.1356 17.3997 22.997 18.6788 22.4672C19.9579 21.9373 21.0511 21.0401 21.8203 19.889C22.5895 18.7378 23 17.3845 23 16C22.9979 14.1441 22.2597 12.3649 20.9474 11.0526C19.6351 9.7403 17.8559 9.00212 16 9ZM19.707 14.707L15.707 18.707C15.5195 18.8945 15.2652 18.9998 15 18.9998C14.7348 18.9998 14.4805 18.8945 14.293 18.707L12.293 16.707C12.1108 16.5184 12.0101 16.2658 12.0123 16.0036C12.0146 15.7414 12.1198 15.4906 12.3052 15.3052C12.4906 15.1198 12.7414 15.0146 13.0036 15.0123C13.2658 15.01 13.5184 15.1108 13.707 15.293L15 16.586L18.293 13.293C18.4816 13.1108 18.7342 13.01 18.9964 13.0123C19.2586 13.0146 19.5094 13.1198 19.6948 13.3052C19.8802 13.4906 19.9854 13.7414 19.9877 14.0036C19.99 14.2658 19.8892 14.5184 19.707 14.707Z" fill="#0033A0"/>
<path d="M30.484 12.84L28.462 12.334C28.2012 11.4475 27.8458 10.5915 27.402 9.781L28.476 7.991C28.7059 7.60874 28.8012 7.16055 28.7468 6.71782C28.6925 6.27509 28.4915 5.86329 28.176 5.548L26.45 3.824C26.1348 3.50832 25.723 3.30726 25.2802 3.25288C24.8374 3.19851 24.3892 3.29396 24.007 3.524L22.217 4.597C21.4064 4.15373 20.5505 3.79902 19.664 3.539L19.158 1.515C19.0506 1.08231 18.8014 0.698049 18.4501 0.423473C18.0989 0.148897 17.6658 -0.000182757 17.22 1.04351e-06H14.78C14.3339 -0.000454858 13.9004 0.148486 13.5488 0.423069C13.1972 0.697653 12.9477 1.08207 12.84 1.515L12.334 3.539C11.4472 3.79909 10.5909 4.15379 9.78 4.597L7.99 3.523C7.60763 3.29326 7.15938 3.19808 6.71665 3.25262C6.27391 3.30717 5.86217 3.50831 5.547 3.824L3.824 5.55C3.50847 5.86529 3.30752 6.27709 3.25315 6.71982C3.19879 7.16255 3.29413 7.61074 3.524 7.993L4.598 9.783C4.15417 10.5935 3.79879 11.4495 3.538 12.336L1.515 12.842C1.0824 12.9496 0.698235 13.1988 0.423687 13.55C0.149138 13.9012 -6.84091e-06 14.3342 2.31626e-06 14.78V17.218C-0.000677173 17.6643 0.148161 18.098 0.422762 18.4498C0.697363 18.8016 1.0819 19.0513 1.515 19.159L3.539 19.665C3.79918 20.5515 4.15388 21.4074 4.597 22.218L3.523 24.008C3.29326 24.3904 3.19808 24.8386 3.25263 25.2814C3.30717 25.7241 3.50831 26.1358 3.824 26.451L5.549 28.176C5.8642 28.4917 6.27601 28.6927 6.71879 28.7471C7.16156 28.8015 7.60979 28.706 7.992 28.476L9.782 27.402C10.5926 27.8451 11.4485 28.1998 12.335 28.46L12.841 30.484C12.9484 30.917 13.1978 31.3015 13.5492 31.5762C13.9006 31.851 14.3339 32.0002 14.78 32H17.218C17.6642 32.0006 18.0977 31.8518 18.4493 31.5771C18.801 31.3025 19.0505 30.918 19.158 30.485L19.664 28.461C20.5505 28.201 21.4064 27.8463 22.217 27.403L24.007 28.477C24.3893 28.7069 24.8376 28.8022 25.2804 28.7476C25.7232 28.6931 26.1349 28.4918 26.45 28.176L28.175 26.451C28.4905 26.1357 28.6915 25.7239 28.7458 25.2812C28.8002 24.8384 28.7049 24.3903 28.475 24.008L27.401 22.218C27.8448 21.4074 28.2002 20.5515 28.461 19.665L30.484 19.16C30.9171 19.0525 31.3018 18.8031 31.5765 18.4514C31.8513 18.0998 32.0004 17.6663 32 17.22V14.78C32.0004 14.3337 31.8513 13.9002 31.5765 13.5486C31.3018 13.1969 30.9171 12.9475 30.484 12.84ZM16 25C14.22 25 12.4799 24.4722 10.9999 23.4832C9.51983 22.4943 8.36627 21.0887 7.68509 19.4442C7.0039 17.7996 6.82567 15.99 7.17293 14.2442C7.5202 12.4984 8.37737 10.8947 9.63604 9.63604C10.8947 8.37737 12.4984 7.5202 14.2442 7.17293C15.99 6.82567 17.7996 7.0039 19.4442 7.68508C21.0887 8.36627 22.4943 9.51982 23.4832 10.9999C24.4722 12.4799 25 14.22 25 16C24.9974 18.3861 24.0483 20.6738 22.361 22.361C20.6738 24.0483 18.3861 24.9974 16 25Z" fill="#0033A0"/>
</svg>
