<svg width="32" height="30" viewBox="0 0 32 30" fill="none" xmlns="http://www.w3.org/2000/svg">
<path d="M12.0313 5.03804L12.306 4.69619C13.8758 2.73375 15.1937 1.021 15.8832 0.114448C15.9301 0.0531015 15.9995 0.0128761 16.076 0.00259601C16.1526 -0.00768411 16.2301 0.0128205 16.2916 0.0596117C19.1384 2.2764 21.7308 6.33428 21.1877 10.6768C21.029 11.979 20.6907 13.2529 20.1826 14.4623C19.1616 14.869 18.2001 15.4116 17.3241 16.0753C16.0197 17.0423 14.9401 18.2801 14.1594 19.7038C14.1508 19.7199 14.1432 19.7365 14.1366 19.7534C13.9643 20.0955 13.8172 20.4498 13.6968 20.8134C13.5801 20.6384 13.4576 20.4692 13.3292 20.3035C12.9331 17.5617 12.5049 10.888 16.4111 5.24747C16.4949 5.1202 16.5255 4.96524 16.4965 4.81569C16.4675 4.66614 16.3811 4.53388 16.2558 4.44718C16.1306 4.36047 15.9764 4.3262 15.8262 4.3517C15.676 4.37719 15.5417 4.46042 15.4521 4.5836C11.9198 9.68337 11.7279 15.5427 12.005 18.946C11.2301 18.3215 10.3734 17.8061 9.45862 17.4141C6.49338 11.9118 9.81913 7.78102 12.0313 5.03804ZM2.48625 23.9367C1.77644 21.8745 0.955221 19.8523 0.0262027 17.8791C0.00770669 17.8384 -0.00121252 17.7941 0.000132355 17.7494C0.00147723 17.7048 0.0130503 17.6611 0.0339597 17.6216C0.0548691 17.5822 0.0845568 17.5481 0.120735 17.5219C0.156913 17.4957 0.198616 17.4782 0.242631 17.4707C4.57819 16.7957 11.0144 17.9216 13.0766 22.0501C13.5457 23.0532 13.8945 24.1082 14.1156 25.1933C12.3754 22.7519 9.37286 20.2463 3.22245 18.9285C3.14753 18.9124 3.07017 18.9113 2.9948 18.9251C2.91942 18.9389 2.8475 18.9674 2.78315 19.009C2.71879 19.0506 2.66326 19.1045 2.61973 19.1675C2.57619 19.2306 2.54551 19.3016 2.52942 19.3765C2.51333 19.4515 2.51216 19.5288 2.52597 19.6042C2.53977 19.6796 2.56829 19.7515 2.6099 19.8159C2.6515 19.8802 2.70537 19.9357 2.76843 19.9793C2.8315 20.0228 2.90252 20.0535 2.97744 20.0696C11.1743 21.8261 13.3176 25.8484 14.2311 27.6142L14.2352 27.6224V27.6265C14.241 27.6405 14.2469 27.6539 14.2539 27.6667C14.4015 27.9479 14.5327 28.2367 14.6476 28.5324C14.6891 28.9274 14.7171 29.2617 14.7357 29.509C6.06927 31.6132 3.28604 26.3367 2.48625 23.9367ZM29.3881 22.1644C27.8573 26.248 22.0377 30.8933 15.9065 29.4868C15.833 28.4645 15.7129 27.4461 15.5466 26.4347C16.0226 24.6216 17.5592 19.551 29.4925 16.5647C29.5683 16.5477 29.64 16.5156 29.7033 16.4704C29.7666 16.4253 29.8202 16.3679 29.861 16.3018C29.9018 16.2356 29.929 16.1619 29.9409 16.0851C29.9528 16.0083 29.9493 15.9298 29.9304 15.8544C29.9116 15.779 29.8779 15.708 29.8313 15.6458C29.7847 15.5836 29.7261 15.5313 29.659 15.4921C29.5919 15.4528 29.5176 15.4274 29.4405 15.4172C29.3635 15.4071 29.2851 15.4124 29.2102 15.433C21.7093 17.3079 17.0715 20.2224 15.1056 24.3042C14.9484 23.673 14.7536 23.0518 14.5222 22.4439C14.6107 21.6756 14.8405 20.9304 15.2001 20.2458C15.2082 20.2307 15.2154 20.2151 15.2217 20.1991C15.9255 18.9432 16.8881 17.8512 18.0457 16.9953C18.9007 16.3486 19.8436 15.8273 20.8459 15.447H20.8505C24.7678 13.9093 29.6214 13.9886 31.728 14.1146C31.7717 14.117 31.8143 14.1293 31.8525 14.1506C31.8907 14.1719 31.9236 14.2017 31.9486 14.2377C31.9736 14.2736 31.99 14.3148 31.9967 14.3581C32.0033 14.4014 32 14.4456 31.987 14.4874C31.529 15.9855 30.5945 18.9489 29.3881 22.1644Z" fill="#0033A0"/>
</svg>
