<svg width="28" height="32" viewBox="0 0 28 32" fill="none" xmlns="http://www.w3.org/2000/svg">
<path d="M13.6245 9.90359C10.2625 9.90359 7.52734 12.6387 7.52734 16.0005C7.52734 19.3626 10.2625 22.0977 13.6245 22.0977C16.9864 22.0977 19.7214 19.3626 19.7214 16.0005C19.7214 12.6387 16.9864 9.90359 13.6245 9.90359ZM17.2444 14.8523L12.8765 19.2202C12.7894 19.3076 12.6859 19.3768 12.5719 19.4241C12.4579 19.4713 12.3358 19.4955 12.2124 19.4954C12.0891 19.4956 11.967 19.4714 11.853 19.4241C11.7391 19.3769 11.6357 19.3076 11.5487 19.2202L9.87941 17.551C9.51272 17.1846 9.51272 16.5901 9.87941 16.2234C10.2458 15.8567 10.8403 15.8567 11.207 16.2234L12.2124 17.2288L15.9168 13.5247C16.2832 13.158 16.8777 13.158 17.2444 13.5247C17.6111 13.8912 17.6111 14.4857 17.2444 14.8523Z" fill="#0033A0"/>
<path d="M27.2179 8.68241L27.217 8.65753C27.2025 8.32624 27.1929 7.99474 27.1882 7.66316C27.1621 5.89873 25.7595 4.43923 23.9948 4.34067C20.3156 4.13529 17.4695 2.93561 15.0376 0.565234L15.0168 0.545484C14.2236 -0.181828 13.0271 -0.181828 12.2336 0.545484L12.2128 0.565234C9.78097 2.93561 6.93479 4.13529 3.25561 4.34085C1.49124 4.43923 0.0883623 5.89879 0.0622373 7.66335C0.0576519 7.99487 0.0480674 8.3263 0.0334874 8.65753L0.0319874 8.71535C-0.039575 12.4671 -0.12845 17.1363 1.43355 21.3743C2.29248 23.7049 3.59323 25.7307 5.29954 27.396C7.24292 29.2925 9.78829 30.7981 12.865 31.8709C12.9662 31.9061 13.0698 31.9343 13.175 31.9553C13.3244 31.9851 13.4748 32 13.6252 32C13.7756 32 13.9262 31.9851 14.0754 31.9553C14.181 31.9342 14.285 31.9058 14.3867 31.8703C17.4597 30.7956 20.0024 29.2893 21.944 27.3931C23.6496 25.7273 24.9504 23.701 25.81 21.3699C27.3779 17.1191 27.2893 12.4412 27.2179 8.68241ZM13.6247 23.9753C9.22723 23.9753 5.64986 20.398 5.64986 16.0005C5.64986 11.603 9.22729 8.02566 13.6247 8.02566C18.022 8.02566 21.5996 11.603 21.5996 16.0005C21.5996 20.398 18.022 23.9753 13.6247 23.9753Z" fill="#0033A0"/>
</svg>
