<svg width="24" height="25" viewBox="0 0 24 25" fill="none" xmlns="http://www.w3.org/2000/svg">
<path d="M8.29303 9.20703C7.90203 8.81603 7.90203 8.18397 8.29303 7.79297C8.68403 7.40197 9.31597 7.40197 9.70697 7.79297L11 9.08606V4.5C11 3.947 11.448 3.5 12 3.5C12.552 3.5 13 3.947 13 4.5V9.08606L14.293 7.79297C14.684 7.40197 15.316 7.40197 15.707 7.79297C16.098 8.18397 16.098 8.81603 15.707 9.20703L12.707 12.207C12.512 12.402 12.256 12.5 12 12.5C11.744 12.5 11.488 12.402 11.293 12.207L8.29303 9.20703ZM17 10.5C16.448 10.5 16 10.947 16 11.5C16 12.053 16.448 12.5 17 12.5C18.654 12.5 20 13.846 20 15.5V16.5C20 18.154 18.654 19.5 17 19.5H7C5.346 19.5 4 18.154 4 16.5V15.5C4 13.846 5.346 12.5 7 12.5C7.552 12.5 8 12.053 8 11.5C8 10.947 7.552 10.5 7 10.5C4.243 10.5 2 12.743 2 15.5V16.5C2 19.257 4.243 21.5 7 21.5H17C19.757 21.5 22 19.257 22 16.5V15.5C22 12.743 19.757 10.5 17 10.5ZM18 15.5C18 14.948 17.552 14.5 17 14.5C16.448 14.5 16 14.948 16 15.5C16 16.052 16.448 16.5 17 16.5C17.552 16.5 18 16.052 18 15.5Z" fill="white"/>
</svg>
