<svg width="24" height="24" viewBox="0 0 24 24" fill="none" xmlns="http://www.w3.org/2000/svg">
<path d="M3.53082 2.47C3.38865 2.33752 3.2006 2.2654 3.0063 2.26882C2.812 2.27225 2.62661 2.35096 2.4892 2.48838C2.35179 2.62579 2.27308 2.81118 2.26965 3.00548C2.26622 3.19978 2.33834 3.38782 2.47082 3.53L20.4708 21.53C20.5395 21.6037 20.6223 21.6628 20.7143 21.7038C20.8063 21.7448 20.9056 21.7668 21.0063 21.7686C21.107 21.7704 21.207 21.7518 21.3004 21.7141C21.3938 21.6764 21.4786 21.6203 21.5499 21.549C21.6211 21.4778 21.6772 21.393 21.7149 21.2996C21.7527 21.2062 21.7712 21.1062 21.7694 21.0055C21.7676 20.9048 21.7456 20.8055 21.7046 20.7135C21.6636 20.6215 21.6045 20.5387 21.5308 20.47L3.53082 2.47ZM22.6768 12.553C22.1378 14.1705 21.2381 15.6443 20.0458 16.863L16.9468 13.764C17.2812 12.8279 17.3429 11.8162 17.1248 10.8464C16.9068 9.8766 16.4179 8.98864 15.715 8.28578C15.0122 7.58292 14.1242 7.09404 13.1544 6.87598C12.1847 6.65792 11.1729 6.71966 10.2368 7.054L7.75982 4.577C9.10685 4.02896 10.5476 3.74808 12.0018 3.75C16.9718 3.75 21.1868 6.973 22.6768 11.44C22.7968 11.802 22.7968 12.192 22.6768 12.553Z" fill="#3E4767"/>
<path d="M15.7508 12C15.7508 12.18 15.7378 12.357 15.7138 12.53L11.4697 8.287C12.0017 8.2109 12.5438 8.25004 13.0594 8.40174C13.5749 8.55345 14.0518 8.81419 14.4578 9.1663C14.8638 9.5184 15.1893 9.95365 15.4124 10.4426C15.6355 10.9315 15.7509 11.4626 15.7508 12ZM12.5307 15.713L8.28775 11.469C8.20534 12.0454 8.25828 12.633 8.44237 13.1854C8.62646 13.7378 8.93664 14.2397 9.34835 14.6514C9.76006 15.0631 10.262 15.3733 10.8143 15.5574C11.3667 15.7415 11.9544 15.7944 12.5307 15.712V15.713Z" fill="#3E4767"/>
<path d="M6.75037 12C6.75037 11.381 6.85737 10.787 7.05437 10.236L3.95438 7.136C2.76248 8.35484 1.86316 9.82862 1.32437 11.446C1.20437 11.808 1.20437 12.198 1.32437 12.56C2.81337 17.027 7.02837 20.25 11.9994 20.25C13.4994 20.25 14.9324 19.956 16.2414 19.423L13.7644 16.946C12.972 17.2287 12.1234 17.3168 11.2898 17.2029C10.4563 17.0891 9.66237 16.7766 8.97485 16.2918C8.28734 15.807 7.7264 15.164 7.33927 14.4171C6.95215 13.6702 6.75018 12.8413 6.75037 12Z" fill="#3E4767"/>
</svg>
