<svg width="32" height="32" viewBox="0 0 32 32" fill="none" xmlns="http://www.w3.org/2000/svg">
<g id="Text input container" clip-path="url(#clip0_610_21680)">
<g id="Text input">
<path id="Vector" d="M32 16.0963C31.9996 13.0387 31.1232 10.0452 29.4744 7.47026C27.8256 4.8953 25.4735 2.84669 22.6966 1.56697C19.9197 0.287245 16.8343 -0.170004 13.8055 0.249357C10.7768 0.668718 7.93171 1.94713 5.60699 3.93323C3.28227 5.91934 1.57532 8.52997 0.688211 11.4561C-0.198895 14.3821 -0.229004 17.5011 0.601451 20.4438C1.4319 23.3865 3.08814 26.0296 5.37409 28.0602C7.66003 30.0908 10.48 31.4239 13.5 31.9016V20.7216H9.43733V16.0963H13.5V12.571C13.5 8.56163 15.8893 6.34563 19.5427 6.34563C20.7429 6.36285 21.9402 6.46712 23.1253 6.65763V10.5963H21.1067C20.499 10.5156 19.8842 10.6796 19.3973 11.0521C18.9105 11.4247 18.5916 11.9753 18.5107 12.583C18.4878 12.7531 18.4842 12.9253 18.5 13.0963V16.0963H22.9333L22.224 20.7216H18.4907V31.9016C22.2561 31.3083 25.6859 29.3901 28.1626 26.4924C30.6393 23.5948 32.0001 19.9082 32 16.0963V16.0963Z" fill="white"/>
</g>
</g>
<defs>
<clipPath id="clip0_610_21680">
<rect width="32" height="32" fill="white"/>
</clipPath>
</defs>
</svg>
