<svg width="32" height="32" viewBox="0 0 32 32" fill="none" xmlns="http://www.w3.org/2000/svg">
<g id="Text input">
<path id="Vector" d="M30.5721 9.99137C30.5557 8.75972 30.3247 7.54032 29.8896 6.38772C29.5123 5.4155 28.9359 4.53255 28.1974 3.79528C27.459 3.05802 26.5745 2.48265 25.6007 2.10594C24.461 1.67883 23.257 1.44788 22.0399 1.42294C20.4729 1.35301 19.9761 1.3335 15.9983 1.3335C12.0205 1.3335 11.5107 1.3335 9.95505 1.42294C8.73852 1.44807 7.53506 1.67901 6.39589 2.10594C5.4219 2.48239 4.53734 3.05766 3.79882 3.79496C3.06029 4.53226 2.48406 5.41534 2.10698 6.38772C1.6783 7.52464 1.44748 8.72637 1.42447 9.94096C1.35443 11.507 1.33325 12.003 1.33325 15.9741C1.33325 19.9453 1.33325 20.4527 1.42447 22.0073C1.4489 23.2237 1.67858 24.4239 2.10698 25.5638C2.48469 26.5359 3.06135 27.4186 3.80013 28.1556C4.5389 28.8926 5.42354 29.4676 6.39752 29.844C7.53357 30.2883 8.73724 30.5357 9.95668 30.5758C11.5253 30.6457 12.0221 30.6668 15.9999 30.6668C19.9777 30.6668 20.4876 30.6668 22.0432 30.5758C23.2602 30.5518 24.4643 30.3214 25.6039 29.8944C26.5775 29.5172 27.4617 28.9417 28.2002 28.2045C28.9386 27.4673 29.5151 26.5846 29.8929 25.6126C30.3213 24.4743 30.5509 23.2741 30.5754 22.0561C30.6454 20.4917 30.6666 19.9957 30.6666 16.0229C30.6633 12.0518 30.6633 11.5476 30.5721 9.99137V9.99137ZM15.9885 23.4839C11.8283 23.4839 8.45809 20.1193 8.45809 15.966C8.45809 11.8127 11.8283 8.44811 15.9885 8.44811C17.9857 8.44811 19.9011 9.24017 21.3133 10.6501C22.7256 12.0599 23.5189 13.9721 23.5189 15.966C23.5189 17.9599 22.7256 19.8721 21.3133 21.282C19.9011 22.6919 17.9857 23.4839 15.9885 23.4839V23.4839ZM23.8187 9.92307C23.588 9.92328 23.3596 9.87808 23.1464 9.79006C22.9333 9.70204 22.7396 9.57292 22.5765 9.41009C22.4134 9.24726 22.2841 9.05392 22.1959 8.84114C22.1078 8.62835 22.0625 8.4003 22.0627 8.17003C22.0627 7.93992 22.1081 7.71207 22.1963 7.49948C22.2845 7.28689 22.4138 7.09372 22.5768 6.93102C22.7398 6.76831 22.9332 6.63924 23.1462 6.55118C23.3591 6.46312 23.5874 6.4178 23.8179 6.4178C24.0483 6.4178 24.2766 6.46312 24.4895 6.55118C24.7025 6.63924 24.8959 6.76831 25.0589 6.93102C25.2219 7.09372 25.3512 7.28689 25.4394 7.49948C25.5276 7.71207 25.573 7.93992 25.573 8.17003C25.573 9.13924 24.7879 9.92307 23.8187 9.92307Z" fill="white"/>
<path id="Vector_2" d="M16.0001 21.3332C18.9456 21.3332 21.3334 18.9454 21.3334 15.9998C21.3334 13.0543 18.9456 10.6665 16.0001 10.6665C13.0546 10.6665 10.6667 13.0543 10.6667 15.9998C10.6667 18.9454 13.0546 21.3332 16.0001 21.3332Z" fill="white"/>
</g>
</svg>
