<svg width="32" height="32" viewBox="0 0 32 32" fill="none" xmlns="http://www.w3.org/2000/svg">
<path d="M30.6673 24C30.6673 24.3536 30.5268 24.6928 30.2768 24.9428C30.0267 25.1929 29.6876 25.3333 29.334 25.3333H28.0007V26.6667C28.0007 27.0203 27.8602 27.3594 27.6101 27.6095C27.3601 27.8595 27.0209 28 26.6673 28C26.3137 28 25.9746 27.8595 25.7245 27.6095C25.4745 27.3594 25.334 27.0203 25.334 26.6667V25.3333H24.0007C23.647 25.3333 23.3079 25.1929 23.0578 24.9428C22.8078 24.6928 22.6673 24.3536 22.6673 24C22.6673 23.6464 22.8078 23.3072 23.0578 23.0572C23.3079 22.8071 23.647 22.6667 24.0007 22.6667H25.334V21.3333C25.334 20.9797 25.4745 20.6406 25.7245 20.3905C25.9746 20.1405 26.3137 20 26.6673 20C27.0209 20 27.3601 20.1405 27.6101 20.3905C27.8602 20.6406 28.0007 20.9797 28.0007 21.3333V22.6667H29.334C29.6876 22.6667 30.0267 22.8071 30.2768 23.0572C30.5268 23.3072 30.6673 23.6464 30.6673 24ZM24.0007 4H8.00065C7.12517 4 6.25827 4.17244 5.44943 4.50747C4.64059 4.8425 3.90566 5.33356 3.28661 5.95262C2.03636 7.20286 1.33398 8.89856 1.33398 10.6667V12H30.6673V10.6667C30.6673 9.79119 30.4949 8.92428 30.1598 8.11544C29.8248 7.30661 29.3338 6.57168 28.7147 5.95262C28.0956 5.33356 27.3607 4.8425 26.5519 4.50747C25.743 4.17244 24.8761 4 24.0007 4ZM1.33398 14.6667H30.6673V17.3333C30.6673 17.687 30.5268 18.0261 30.2768 18.2761C30.0267 18.5262 29.6876 18.6667 29.334 18.6667H23.334C22.6267 18.6667 21.9485 18.9476 21.4484 19.4477C20.9483 19.9478 20.6673 20.6261 20.6673 21.3333V26.6667C20.6673 27.0203 20.5268 27.3594 20.2768 27.6095C20.0267 27.8595 19.6876 28 19.334 28H8.00065C7.12517 28 6.25827 27.8276 5.44943 27.4925C4.64059 27.1575 3.90566 26.6664 3.28661 26.0474C2.03636 24.7971 1.33398 23.1014 1.33398 21.3333V14.6667ZM5.33398 21.3333C5.33398 21.687 5.47446 22.0261 5.72451 22.2761C5.97456 22.5262 6.3137 22.6667 6.66732 22.6667H12.0007C12.3543 22.6667 12.6934 22.5262 12.9435 22.2761C13.1935 22.0261 13.334 21.687 13.334 21.3333C13.334 20.9797 13.1935 20.6406 12.9435 20.3905C12.6934 20.1405 12.3543 20 12.0007 20H6.66732C6.3137 20 5.97456 20.1405 5.72451 20.3905C5.47446 20.6406 5.33398 20.9797 5.33398 21.3333Z" fill="white"/>
</svg>
