<svg width="42" height="42" viewBox="0 0 42 42" fill="none" xmlns="http://www.w3.org/2000/svg">
<g id="Icon">
<g id="Button">
<path id="Vector" d="M29.2031 29.1211H27.1372C26.9252 32.3228 24.2545 34.8633 21 34.8633C17.7455 34.8633 15.0748 32.3228 14.8628 29.1211H12.7969C7.14287 29.1211 2.54297 33.721 2.54297 39.375V40.7695C2.54297 41.4491 3.09389 42 3.77344 42H38.2266C38.9061 42 39.457 41.4491 39.457 40.7695V39.375C39.457 33.721 34.8571 29.1211 29.2031 29.1211ZM10.3359 18.457V13.5352C8.97676 13.5352 7.875 14.6369 7.875 15.9961C7.875 17.3553 8.97676 18.457 10.3359 18.457ZM24.2315 8.15341C24.6748 7.71003 25.3807 7.67099 25.8703 8.06261L29.6348 11.0742H31.6641V10.6641C31.6641 4.77447 26.8896 0 21 0C15.1104 0 10.3359 4.77447 10.3359 10.6641V11.0742H17.1802C18.4898 11.0742 19.7865 10.8163 20.9964 10.3151C22.2062 9.81397 23.3056 9.07942 24.2315 8.15341Z" fill="#0033A0"/>
<path id="Vector_2" d="M17.3086 28.052V28.711C17.3086 30.7497 18.9613 32.4024 21 32.4024C23.0387 32.4024 24.6914 30.7497 24.6914 28.711V28.052C23.5406 28.4779 22.2971 28.711 21 28.711C19.7029 28.711 18.4594 28.4779 17.3086 28.052ZM20.5898 22.5586C20.5898 21.8791 21.1408 21.3282 21.8203 21.3282H28.5199C28.959 20.3233 29.2031 19.2137 29.2031 18.0469V13.8805L25.155 10.642C22.922 12.515 20.1292 13.5352 17.1799 13.5352H12.7969V18.0469C12.7969 22.5774 16.4695 26.2501 21 26.2501C23.2945 26.2501 25.3687 25.3076 26.8574 23.7891H21.8203C21.1408 23.7891 20.5898 23.2382 20.5898 22.5586Z" fill="#0033A0"/>
<path id="Vector_3" d="M31.6641 18.457H32.8945V19.2773C32.8945 20.4081 31.9745 21.3281 30.8437 21.3281H28.5199C28.1198 22.2426 27.5565 23.0765 26.8574 23.7891H30.8437C33.3315 23.7891 35.3555 21.7651 35.3555 19.2773V15.9961C35.3555 14.6369 34.2537 13.5352 32.8945 13.5352H31.6641V18.457Z" fill="#0033A0"/>
</g>
</g>
</svg>
