<svg width="42" height="42" viewBox="0 0 42 42" fill="none" xmlns="http://www.w3.org/2000/svg">
<g id="Icon" clip-path="url(#clip0_551_5384)">
<g id="Button">
<path id="Vector" d="M22.2353 34.2176V22.2352H19.7647V34.2176C19.7647 30.3288 16.6123 27.1764 12.7235 27.1764H7.41177V27.547C7.41177 31.4358 10.5642 34.5882 14.4529 34.5882H19.7647V39.5294H17.2941V41.9999H24.7059V39.5294H22.2353V34.5882H27.5471C31.4358 34.5882 34.5882 31.4358 34.5882 27.547V27.1764H29.2765C25.3877 27.1764 22.2353 30.3288 22.2353 34.2176ZM13.1765 22.2352V20.3945C13.1765 14.4806 13.9123 8.88352 15.2482 4.63411C15.7959 2.89234 16.4176 1.45825 17.1022 0.345908C12.9675 1.08733 9.17626 3.00632 6.16362 5.93224C2.18894 9.79237 0 14.9973 0 20.5882V22.2352H2.47059C2.47059 19.2835 4.87184 16.8823 7.82353 16.8823C10.7751 16.8823 13.1765 19.2835 13.1765 22.2352ZM35.8364 5.93215C32.8237 3.00624 29.0325 1.08725 24.8978 0.345825C25.5824 1.45817 26.204 2.89226 26.7518 4.63403C28.0877 8.88344 28.8235 14.4806 28.8235 20.3945V22.2352C28.8235 19.2835 31.2249 16.8823 34.1765 16.8823C37.1281 16.8823 39.5294 19.2835 39.5294 22.2352H42V20.5882C42 14.9973 39.8111 9.79237 35.8364 5.93215Z" fill="#0033A0"/>
<path id="Vector_2" d="M15.6471 22.2353C15.6471 19.2836 18.0483 16.8824 21 16.8824C23.9516 16.8824 26.3529 19.2836 26.3529 22.2353V20.3945C26.3529 14.7251 25.6576 9.3912 24.3949 5.37518C23.2338 1.68206 21.8211 0 21 0C20.1789 0 18.7662 1.68206 17.6051 5.37518C16.3424 9.39112 15.6471 14.7251 15.6471 20.3945V22.2353Z" fill="#0033A0"/>
</g>
</g>
<defs>
<clipPath id="clip0_551_5384">
<rect width="42" height="42" fill="white"/>
</clipPath>
</defs>
</svg>
