<svg width="42" height="42" viewBox="0 0 42 42" fill="none" xmlns="http://www.w3.org/2000/svg">
<g id="Icon">
<path id="Vector" d="M26.0762 22.0369C25.2387 19.8286 23.7051 17.953 21.7071 16.6935C19.7091 15.4341 17.3554 14.8594 15.0019 15.0563C12.6483 15.2532 10.4228 16.211 8.66181 17.7848C6.90085 19.3587 5.70016 21.4631 5.24125 23.7799C4.78235 26.0967 5.09019 28.4999 6.11823 30.6262C7.14628 32.7525 8.83863 34.4864 10.9394 35.5656C13.0403 36.6448 15.4353 37.0107 17.7625 36.608C20.0897 36.2053 22.2226 35.0559 23.8386 33.3335C23.6109 32.8163 23.4395 32.2762 23.3274 31.7223C22.0408 33.3564 20.249 34.5182 18.2321 35.026C16.2153 35.5338 14.087 35.359 12.18 34.529C10.273 33.6989 8.69473 32.2604 7.69198 30.4383C6.68922 28.6162 6.31847 26.5131 6.63767 24.458C6.95688 22.4028 7.94805 20.5113 9.45624 19.0792C10.9644 17.6471 12.9047 16.755 14.9736 16.5425C17.0425 16.33 19.1235 16.809 20.8914 17.9046C22.6592 19.0003 24.0142 20.6508 24.7445 22.5982L26.0762 22.0369Z" fill="#0033A0"/>
<path id="Vector_2" d="M15.931 17.9369C14.5006 17.9363 13.0964 18.3209 11.8659 19.0503C10.6355 19.7798 9.62414 20.8271 8.93813 22.0822C8.25212 23.3374 7.91677 24.7542 7.96728 26.1837C8.0178 27.6132 8.45232 29.0028 9.22521 30.2064C9.99811 31.41 11.0809 32.3833 12.3597 33.0241C13.6386 33.6648 15.0664 33.9494 16.4932 33.8478C17.9201 33.7463 19.2932 33.2624 20.4685 32.447C21.6437 31.6316 22.5777 30.5148 23.1724 29.2139V23.73C23.1727 23.6274 23.195 23.526 23.2377 23.4327C23.2804 23.3394 23.3426 23.2564 23.42 23.1891C22.859 21.6526 21.8401 20.3252 20.5009 19.386C19.1617 18.4469 17.5667 17.9411 15.931 17.9369ZM15.931 25.1783C16.6351 25.1774 17.3153 25.4335 17.844 25.8986C18.3726 26.3636 18.7133 27.0056 18.8022 27.7041C18.8911 28.4025 18.722 29.1094 18.3267 29.6921C17.9314 30.2747 17.337 30.693 16.6551 30.8685V32.4196H15.2069V30.8685C14.5869 30.7085 14.0374 30.3475 13.6444 29.842C13.2513 29.3366 13.0368 28.7151 13.0345 28.0748H14.4827C14.4827 28.3613 14.5677 28.6413 14.7268 28.8794C14.8859 29.1176 15.1121 29.3032 15.3768 29.4128C15.6414 29.5225 15.9326 29.5511 16.2135 29.4953C16.4945 29.4394 16.7525 29.3014 16.9551 29.0989C17.1576 28.8964 17.2956 28.6383 17.3514 28.3574C17.4073 28.0764 17.3787 27.7852 17.269 27.5206C17.1594 27.2559 16.9738 27.0298 16.7356 26.8706C16.4975 26.7115 16.2174 26.6265 15.931 26.6265C15.2269 26.6274 14.5467 26.3713 14.0181 25.9062C13.4894 25.4412 13.1487 24.7992 13.0598 24.1007C12.9709 23.4023 13.14 22.6954 13.5353 22.1127C13.9306 21.5301 14.525 21.1118 15.2069 20.9363V19.3852H16.6551V20.9363C17.2751 21.0963 17.8246 21.4573 18.2176 21.9628C18.6107 22.4682 18.8252 23.0897 18.8276 23.73H17.3793C17.3793 23.4435 17.2943 23.1635 17.1352 22.9254C16.9761 22.6872 16.7499 22.5016 16.4852 22.392C16.2206 22.2823 15.9294 22.2537 15.6485 22.3095C15.3675 22.3654 15.1095 22.5034 14.9069 22.7059C14.7044 22.9084 14.5664 23.1665 14.5106 23.4474C14.4547 23.7284 14.4834 24.0196 14.593 24.2842C14.7026 24.5489 14.8882 24.775 15.1264 24.9342C15.3646 25.0933 15.6446 25.1783 15.931 25.1783ZM9.41376 7.79895H22.4482V9.24723H9.41376V7.79895Z" fill="#0033A0"/>
<path id="Vector_3" d="M24.5743 34.6521C22.6887 36.5136 20.2525 37.7167 17.6282 38.0823C15.0039 38.4479 12.3316 37.9566 10.009 36.6814C7.68636 35.4062 5.83744 33.4153 4.73728 31.0048C3.63712 28.5943 3.34452 25.8931 3.90299 23.3029C4.46146 20.7128 5.84117 18.3721 7.83686 16.6291C9.83256 14.8862 12.3376 13.834 14.9794 13.6292C17.6211 13.4244 20.2584 14.0778 22.4989 15.4924C24.7394 16.9069 26.4634 19.007 27.4144 21.4801L31.8621 19.6263V18.661C31.8596 16.5492 31.0196 14.5246 29.5263 13.0313C28.033 11.538 26.0084 10.698 23.8965 10.6955H7.96552C5.85369 10.698 3.82908 11.538 2.3358 13.0313C0.842513 14.5246 0.00249138 16.5492 0 18.661V33.1438C0.00249138 35.2556 0.842513 37.2802 2.3358 38.7735C3.82908 40.2668 5.85369 41.1068 7.96552 41.1093H23.8965C25.7602 41.1148 27.5661 40.4624 28.9959 39.2671L25.5056 35.7767C25.1616 35.431 24.8499 35.0546 24.5743 34.6521ZM22.7249 6.35067L25.276 1.24767C24.691 1.74885 23.9427 2.01854 23.1724 2.00584C22.3317 2.01293 21.5203 1.69694 20.9059 1.12312C20.7278 0.943909 20.5161 0.801686 20.2829 0.704634C20.0497 0.607581 19.7996 0.557617 19.547 0.557617C19.2944 0.557617 19.0443 0.607581 18.8111 0.704634C18.5779 0.801686 18.3662 0.943909 18.1882 1.12312C17.5717 1.69099 16.7641 2.00624 15.926 2.00624C15.0878 2.00624 14.2803 1.69099 13.6638 1.12312C13.4861 0.944042 13.2748 0.801909 13.0419 0.704915C12.8091 0.60792 12.5593 0.557983 12.3071 0.557983C12.0548 0.557983 11.8051 0.60792 11.5722 0.704915C11.3394 0.801909 11.1281 0.944042 10.9504 1.12312C10.3375 1.69569 9.52841 2.01159 8.68965 2.00584C7.92106 2.01886 7.1742 1.75051 6.58965 1.25129L9.13717 6.35067H22.7249Z" fill="#0033A0"/>
<path id="Vector_4" d="M24.6207 24.213V30.1437C24.6183 31 24.7858 31.8483 25.1135 32.6394C25.4411 33.4306 25.9224 34.1489 26.5295 34.7528L32.5862 40.8095L38.6429 34.7528C39.25 34.1489 39.7313 33.4306 40.059 32.6394C40.3866 31.8483 40.5541 31 40.5517 30.1437V24.213L32.5862 20.8936L24.6207 24.213ZM39.3822 24.5099C39.5141 24.5649 39.6268 24.6578 39.7061 24.7767C39.7853 24.8956 39.8276 25.0354 39.8276 25.1783V30.1437C39.8296 30.9048 39.6807 31.6588 39.3897 32.362C39.0986 33.0652 38.671 33.7038 38.1317 34.2409L33.0982 39.2736C32.9624 39.4094 32.7782 39.4856 32.5862 39.4856C32.3942 39.4856 32.21 39.4094 32.0742 39.2736L27.0415 34.2409C26.502 33.7039 26.0743 33.0653 25.7831 32.3621C25.4919 31.6588 25.3429 30.9048 25.3448 30.1437V25.1783C25.3448 25.0354 25.3871 24.8956 25.4663 24.7767C25.5456 24.6578 25.6583 24.5649 25.7902 24.5099L32.3074 21.7944C32.3957 21.7575 32.4905 21.7386 32.5862 21.7386C32.6819 21.7386 32.7767 21.7575 32.865 21.7944L39.3822 24.5099Z" fill="#0033A0"/>
<path id="Vector_5" d="M26.7931 25.6613V30.1437C26.7916 30.7145 26.9033 31.2799 27.1217 31.8073C27.3401 32.3347 27.6608 32.8135 28.0654 33.2162L32.5862 37.7377L37.107 33.2162C37.5115 32.8135 37.8323 32.3347 38.0507 31.8073C38.269 31.2799 38.3807 30.7145 38.3793 30.1437V25.6613L32.5862 23.247L26.7931 25.6613ZM37.1946 28.111L33.0981 32.2075C32.9623 32.3432 32.7782 32.4195 32.5862 32.4195C32.3942 32.4195 32.21 32.3432 32.0742 32.2075L30.0256 30.1596L31.0495 29.1357L32.5862 30.6716L36.1707 27.0871L37.1946 28.111ZM39.9362 7.2631C39.808 7.42762 39.6445 7.56121 39.4577 7.65396C39.271 7.74672 39.0657 7.79628 38.8572 7.79897C38.649 7.7947 38.4443 7.74444 38.2577 7.6518C38.0712 7.55916 37.9075 7.42643 37.7782 7.2631C37.5175 6.97576 37.1994 6.74615 36.8446 6.58902C36.4898 6.43189 36.1061 6.35072 35.7181 6.35072C35.33 6.35072 34.9463 6.43189 34.5915 6.58902C34.2367 6.74615 33.9187 6.97576 33.6579 7.2631C33.5287 7.42643 33.3649 7.55916 33.1784 7.6518C32.9919 7.74444 32.7872 7.7947 32.5789 7.79897C32.3715 7.79449 32.1675 7.74488 31.9812 7.65359C31.7948 7.5623 31.6306 7.43152 31.5 7.27035C31.2403 6.98203 30.9232 6.75125 30.569 6.59286C30.2148 6.43447 29.8314 6.35198 29.4434 6.35069C28.9935 6.34449 28.5496 6.45422 28.1544 6.66931C28.1834 6.61862 28.2124 6.56793 28.2341 6.52448C28.4586 6.09 28.5962 5.82207 29.0669 5.65552C29.2632 5.58715 29.4723 5.56337 29.679 5.58592C29.8857 5.60847 30.0847 5.67677 30.2617 5.78586C30.6044 5.96876 30.9818 6.07734 31.3693 6.10453C31.7568 6.13172 32.1457 6.0769 32.5106 5.94366C32.8755 5.81041 33.2082 5.60173 33.487 5.33123C33.7658 5.06073 33.9844 4.73449 34.1286 4.37379C34.3531 3.93931 34.4907 3.67862 34.9613 3.51207C35.1576 3.44349 35.3668 3.41961 35.5735 3.44216C35.7802 3.46471 35.9793 3.53313 36.1562 3.64241C36.4998 3.82354 36.8775 3.93072 37.265 3.95703C37.6526 3.98335 38.0413 3.92822 38.4063 3.79521C38.7712 3.66219 39.1043 3.45423 39.384 3.18472C39.6637 2.9152 39.8838 2.5901 40.0303 2.23034C40.2548 1.79586 40.3924 1.52793 40.8631 1.36138L40.3707 0C40.0062 0.133327 39.6737 0.341337 39.3944 0.610693C39.115 0.880048 38.8951 1.2048 38.7486 1.56414C38.5169 1.99862 38.3865 2.25931 37.9086 2.4331C37.7122 2.50147 37.5031 2.52525 37.2965 2.5027C37.0898 2.48015 36.8907 2.41185 36.7138 2.30276C36.3701 2.12163 35.9924 2.01445 35.6049 1.98814C35.2173 1.96182 34.8286 2.01695 34.4637 2.14996C34.0987 2.28298 33.7657 2.49094 33.486 2.76046C33.2063 3.02997 32.9861 3.35507 32.8396 3.71483C32.6151 4.14931 32.4848 4.41 32.0141 4.58379C31.8175 4.65061 31.6087 4.67356 31.4022 4.65104C31.1958 4.62852 30.9968 4.56108 30.8193 4.45345C30.477 4.27025 30.1001 4.16123 29.7129 4.13349C29.3257 4.10575 28.937 4.15992 28.5722 4.29247C28.2073 4.42502 27.8745 4.63297 27.5954 4.90276C27.3163 5.17255 27.0972 5.49813 26.9524 5.85828C26.7279 6.29276 26.5903 6.55345 26.1196 6.72724C25.923 6.79405 25.7142 6.81701 25.5078 6.79449C25.3013 6.77197 25.1024 6.70453 24.9248 6.5969C24.6 6.44253 24.253 6.33991 23.8965 6.29276V8.03069C24.0206 8.12246 24.1391 8.2216 24.2513 8.32759C24.5101 8.61696 24.8271 8.84847 25.1815 9.00697C25.5358 9.16547 25.9197 9.2474 26.3079 9.2474C26.6961 9.2474 27.08 9.16547 27.4343 9.00697C27.7887 8.84847 28.1057 8.61696 28.3644 8.32759C28.4921 8.16308 28.6557 8.02994 28.8427 7.93835C29.0297 7.84676 29.2352 7.79914 29.4434 7.79914C29.6516 7.79914 29.8571 7.84676 30.0441 7.93835C30.2311 8.02994 30.3947 8.16308 30.5224 8.32759C30.7819 8.61693 31.0996 8.84836 31.4545 9.00679C31.8095 9.16522 32.1938 9.24711 32.5825 9.24711C32.9713 9.24711 33.3556 9.16522 33.7106 9.00679C34.0655 8.84836 34.3832 8.61693 34.6427 8.32759C34.7703 8.1625 34.9341 8.02896 35.1215 7.93732C35.3089 7.84567 35.5149 7.79837 35.7235 7.79907C35.9321 7.79977 36.1377 7.84845 36.3245 7.94135C36.5113 8.03426 36.6742 8.16889 36.8007 8.33483C37.0614 8.62217 37.3794 8.85178 37.7342 9.00891C38.089 9.16604 38.4728 9.24721 38.8608 9.24721C39.2489 9.24721 39.6326 9.16604 39.9874 9.00891C40.3422 8.85178 40.6602 8.62217 40.921 8.33483C41.0502 8.1715 41.214 8.03877 41.4005 7.94613C41.587 7.85349 41.7917 7.80323 42 7.79897V6.35069C41.6117 6.35275 41.2281 6.43483 40.873 6.59182C40.5179 6.74881 40.199 6.97733 39.9362 7.2631Z" fill="#0033A0"/>
</g>
</svg>
