<svg width="32" height="32" viewBox="0 0 32 32" fill="none" xmlns="http://www.w3.org/2000/svg">
<g id="Text input" clip-path="url(#clip0_610_21685)">
<path id="Vector" d="M16 -0.000488281C7.16333 -0.000488281 0 7.16285 0 15.9995C0 24.8362 7.16333 31.9995 16 31.9995C24.8367 31.9995 32 24.8362 32 15.9995C32 7.16285 24.8367 -0.000488281 16 -0.000488281ZM12.0833 22.6312H8.84333V12.2045H12.0833V22.6312ZM10.4433 10.9245C9.42 10.9245 8.75833 10.1995 8.75833 9.30284C8.75833 8.38784 9.44 7.68451 10.485 7.68451C11.53 7.68451 12.17 8.38784 12.19 9.30284C12.19 10.1995 11.53 10.9245 10.4433 10.9245ZM23.9167 22.6312H20.6767V16.8528C20.6767 15.5078 20.2067 14.5945 19.035 14.5945C18.14 14.5945 17.6083 15.2128 17.3733 15.8078C17.2867 16.0195 17.265 16.3195 17.265 16.6178V22.6295H14.0233V15.5295C14.0233 14.2278 13.9817 13.1395 13.9383 12.2028H16.7533L16.9017 13.6512H16.9667C17.3933 12.9712 18.4383 11.9678 20.1867 11.9678C22.3183 11.9678 23.9167 13.3962 23.9167 16.4662V22.6312V22.6312Z" fill="white"/>
</g>
<defs>
<clipPath id="clip0_610_21685">
<rect width="32" height="32" fill="white"/>
</clipPath>
</defs>
</svg>
