<svg width="32" height="32" viewBox="0 0 32 32" fill="none" xmlns="http://www.w3.org/2000/svg">
<path d="M7.33325 9.16016C5.8596 9.91061 4.49668 10.8668 3.62888 11.523C3.00652 11.9936 2.66602 12.7359 2.66602 13.5161V26.4087C2.66602 27.5466 4.03655 28.2065 4.98104 27.5718C6.59368 26.4881 8.78427 25.2575 10.666 25.0469C12.8782 24.7992 14.4388 25.9864 15.9993 27.1736C17.5599 28.3608 19.1205 29.5479 21.3327 29.3003C23.8224 29.0216 26.8527 26.9575 28.3698 25.8104C28.9922 25.3398 29.3327 24.5975 29.3327 23.8173V10.9247C29.3327 9.78679 27.9621 9.12692 27.0177 9.76162C26.2425 10.2825 25.3339 10.8373 24.3902 11.2965C23.998 12.9992 23.22 14.7777 22.2685 16.2683C21.5621 17.3749 20.6946 18.4286 19.6953 19.2266C18.7078 20.0151 17.4451 20.6667 15.9993 20.6667C14.5536 20.6667 13.2909 20.0151 12.3034 19.2266C11.3041 18.4286 10.4366 17.3749 9.73021 16.2683C8.36737 14.1334 7.36061 11.4079 7.33325 9.16016Z" fill="#0033A0"/>
<path fill-rule="evenodd" clip-rule="evenodd" d="M15.9987 18.6667C19.332 18.6667 22.6654 12.6013 22.6654 9.06669C22.6654 5.53206 19.6806 2.66669 15.9987 2.66669C12.3168 2.66669 9.33203 5.53206 9.33203 9.06669C9.33203 12.6013 12.6654 18.6667 15.9987 18.6667ZM15.9987 10.6667C17.1033 10.6667 17.9987 9.77126 17.9987 8.66669C17.9987 7.56212 17.1033 6.66669 15.9987 6.66669C14.8941 6.66669 13.9987 7.56212 13.9987 8.66669C13.9987 9.77126 14.8941 10.6667 15.9987 10.6667Z" fill="#0033A0"/>
</svg>
