<svg width="177" height="37" viewBox="0 0 177 37" fill="none" xmlns="http://www.w3.org/2000/svg">
<path fill-rule="evenodd" clip-rule="evenodd" d="M13.3726 0.0821775C13.2194 0.134997 10.7126 1.55114 7.80202 3.22916C4.8914 4.90718 2.14865 6.48381 1.70727 6.73294C1.26572 6.98189 0.973261 7.25301 1.05738 7.33537C1.14131 7.41756 3.04848 8.53433 5.29527 9.81713L9.38034 12.1491L9.43567 10.9178C9.50586 9.35764 9.30439 9.04294 7.6037 8.05489C6.8799 7.63456 6.32898 7.24968 6.3793 7.19945C6.50501 7.07442 11.5358 4.18396 11.6277 4.18396C11.6682 4.18396 11.7014 6.46349 11.7014 9.2496C11.7014 13.4679 11.6555 14.3607 11.4275 14.5875C11.084 14.9291 3.39719 19.3489 2.93967 19.468C2.62456 19.55 2.60283 19.363 2.60283 16.5793C2.60283 14.942 2.64851 13.6027 2.7044 13.6027C2.76029 13.6027 3.43117 13.944 4.19508 14.361C5.31254 14.971 5.70136 15.0968 6.18247 15.0045C6.88547 14.8695 8.20755 14.1549 8.30597 13.8567C8.36427 13.6801 1.27333 9.42412 0.328191 9.06843C0.0221824 8.95319 0.00324249 9.37075 0.00324249 16.2544C0.00324249 24.9788 -0.186899 24.4316 2.34492 22.9916C8.58951 19.44 13.6329 16.4624 13.9159 16.1604C14.2193 15.8365 14.2607 15.1543 14.3846 8.43829C14.4592 4.38637 14.4653 0.899025 14.3981 0.688303C14.2538 0.236202 13.7646 -0.0530096 13.3726 0.0821775ZM16.7416 0.181351C16.5723 0.384132 16.5301 2.33973 16.5697 8.15056L16.6221 15.8512L17.1139 16.2718C17.5141 16.6142 28.3672 22.9798 29.8521 23.7431C30.1537 23.8982 30.3731 23.903 30.6413 23.7602C31.003 23.5676 31.0126 23.3735 31.0126 16.2742C31.0126 10.8997 30.9566 8.98569 30.7989 8.98569C30.4935 8.98569 22.4711 13.6218 22.4711 13.7983C22.4711 14.0661 24.4574 15.0802 24.982 15.0802C25.2657 15.0802 26.0775 14.7478 26.7861 14.3415C27.4947 13.9352 28.1087 13.6027 28.1509 13.6027C28.193 13.6027 28.2274 14.9324 28.2274 16.5576C28.2274 18.1828 28.1646 19.5111 28.0881 19.5094C28.0116 19.5076 26.027 18.4024 23.6781 17.0537L19.4073 14.6011L19.3579 9.48489C19.3308 6.67089 19.3633 4.36864 19.4302 4.36864C19.5835 4.36864 23.7442 6.66221 24.2106 7.00405C24.5313 7.23897 24.4535 7.32263 23.1762 8.11436C22.393 8.60007 21.7002 9.17758 21.576 9.44869C21.337 9.97005 21.272 12.1253 21.495 12.1253C21.799 12.1253 29.8982 7.40703 29.8928 7.23324C29.8894 7.13056 28.9495 6.51151 27.8038 5.85773C26.658 5.20378 24.7597 4.11563 23.5852 3.43969C22.4108 2.76357 20.6349 1.74191 19.6387 1.16903C17.5514 -0.0312174 17.059 -0.199093 16.7416 0.181351ZM8.52117 21.9648C2.34065 25.4885 1.95294 25.7402 1.95294 26.2283C1.95294 26.7144 2.32468 26.9611 7.89486 30.1729C11.1629 32.0573 13.9829 33.6389 14.1617 33.6876C14.4651 33.7704 14.4867 33.4566 14.4867 28.9422V24.1084L13.5352 24.6268C12.1755 25.3679 11.8886 25.9164 11.8878 27.7771C11.8875 28.615 11.8243 29.2964 11.7478 29.2915C11.4669 29.2726 6.6452 26.4128 6.6205 26.2503C6.58559 26.0204 15.0497 21.176 15.4879 21.1752C15.9632 21.1745 24.3395 26.0204 24.2656 26.2534C24.1776 26.5303 19.2998 29.3134 19.1086 29.1958C19.0176 29.14 18.9405 28.3719 18.9372 27.4891C18.9337 26.5205 18.8416 25.7674 18.7051 25.5895C18.3907 25.1803 16.6692 24.1359 16.4902 24.246C16.4096 24.2954 16.3435 26.4503 16.3435 29.0346C16.3435 32.8547 16.3903 33.7331 16.594 33.7331C16.8694 33.7331 28.3029 27.2092 28.839 26.7462C29.5899 26.0976 29.2706 25.8582 22.4778 21.9797C18.856 19.9118 15.712 18.2198 15.491 18.2198C15.2701 18.2198 12.1337 19.905 8.52117 21.9648Z" fill="white"/>
<path d="M37.6505 28.891V5.38665H47.5745C47.803 5.38665 48.1077 5.39753 48.4886 5.41929C48.8803 5.43017 49.2285 5.46282 49.5332 5.51723C50.9369 5.73486 52.0849 6.19733 52.9772 6.90463C53.8804 7.61194 54.5442 8.50423 54.9686 9.58151C55.393 10.6479 55.6051 11.8395 55.6051 13.1561C55.6051 14.4728 55.3875 15.6698 54.9522 16.7471C54.5279 17.8135 53.8641 18.7003 52.9609 19.4076C52.0686 20.1149 50.926 20.5774 49.5332 20.795C49.2285 20.8386 48.8803 20.8712 48.4886 20.893C48.0968 20.9147 47.7921 20.9256 47.5745 20.9256H42.0902V28.891H37.6505ZM42.0902 16.7797H47.3786C47.6071 16.7797 47.8574 16.7688 48.1295 16.7471C48.4015 16.7253 48.6518 16.6818 48.8803 16.6165C49.4788 16.4533 49.9413 16.1812 50.2677 15.8004C50.5942 15.4086 50.8172 14.9788 50.9369 14.5109C51.0675 14.0321 51.1328 13.5805 51.1328 13.1561C51.1328 12.7317 51.0675 12.2856 50.9369 11.8177C50.8172 11.3389 50.5942 10.9091 50.2677 10.5282C49.9413 10.1365 49.4788 9.859 48.8803 9.69577C48.6518 9.63048 48.4015 9.58696 48.1295 9.56519C47.8574 9.54343 47.6071 9.53255 47.3786 9.53255H42.0902V16.7797Z" fill="white"/>
<path d="M65.1905 29.3806C63.4168 29.3806 61.8607 28.9835 60.5223 28.1891C59.1838 27.3947 58.1392 26.3011 57.3884 24.9083C56.6484 23.5046 56.2784 21.8941 56.2784 20.0768C56.2784 18.2379 56.6593 16.6219 57.421 15.2291C58.1827 13.8254 59.2328 12.7317 60.5712 11.9483C61.9097 11.1648 63.4494 10.7731 65.1905 10.7731C66.9642 10.7731 68.5203 11.1702 69.8587 11.9646C71.208 12.759 72.2581 13.858 73.009 15.2617C73.7598 16.6546 74.1352 18.2596 74.1352 20.0768C74.1352 21.905 73.7543 23.5209 72.9926 24.9246C72.2418 26.3175 71.1917 27.4111 69.8424 28.2054C68.504 28.9889 66.9533 29.3806 65.1905 29.3806ZM65.1905 25.2347C66.616 25.2347 67.677 24.7559 68.3734 23.7984C69.0807 22.8299 69.4343 21.5894 69.4343 20.0768C69.4343 18.5099 69.0752 17.2585 68.3571 16.3227C67.6498 15.3869 66.5942 14.919 65.1905 14.919C64.222 14.919 63.4277 15.1366 62.8074 15.5719C62.1872 16.0071 61.7247 16.611 61.42 17.3836C61.1262 18.1562 60.9793 19.054 60.9793 20.0768C60.9793 21.6547 61.333 22.9115 62.0403 23.8473C62.7585 24.7723 63.8085 25.2347 65.1905 25.2347Z" fill="white"/>
<path d="M76.7453 28.891V4.89697H81.185V28.891H76.7453Z" fill="white"/>
<path d="M85.099 8.81436V4.89697H89.5388V8.81436H85.099ZM85.099 28.891V11.2627H89.5388V28.891H85.099Z" fill="white"/>
<path d="M100.896 29.3806C99.0677 29.3806 97.5008 28.9726 96.195 28.1565C94.8892 27.3403 93.8881 26.2304 93.1917 24.8267C92.4952 23.4229 92.147 21.8397 92.147 20.0768C92.147 18.2923 92.5061 16.6981 93.2243 15.2944C93.9534 13.8906 94.9763 12.7862 96.2929 11.9809C97.6096 11.1757 99.1657 10.7731 100.961 10.7731C103.04 10.7731 104.781 11.3008 106.184 12.3563C107.599 13.401 108.502 14.8319 108.894 16.6491L104.454 17.8244C104.193 16.9103 103.736 16.1975 103.083 15.6861C102.441 15.1747 101.712 14.919 100.896 14.919C99.96 14.919 99.1929 15.1475 98.5944 15.6045C97.9959 16.0506 97.5552 16.6655 97.2723 17.4489C96.9894 18.2215 96.8479 19.0975 96.8479 20.0768C96.8479 21.6112 97.1852 22.8571 97.8599 23.8147C98.5454 24.7614 99.5574 25.2347 100.896 25.2347C101.897 25.2347 102.659 25.0062 103.181 24.5492C103.703 24.0922 104.095 23.4393 104.356 22.5905L108.894 23.5372C108.393 25.4088 107.447 26.8507 106.054 27.8627C104.661 28.8746 102.942 29.3806 100.896 29.3806Z" fill="white"/>
<path d="M112.468 36.7257L115.863 27.3893L115.928 30.1315L108.894 16.6491L112.859 11.2627L118.017 24.6145H116.973L122.098 11.2627H126.538L116.581 36.7257H112.468Z" fill="white"/>
<path d="M139.541 28.891V20.5665C139.541 20.1639 139.519 19.6525 139.475 19.0322C139.432 18.4011 139.296 17.7699 139.067 17.1388C138.839 16.5077 138.463 15.9799 137.941 15.5555C137.429 15.1311 136.7 14.919 135.754 14.919C135.373 14.919 134.965 14.9788 134.53 15.0985C134.094 15.2182 133.686 15.4522 133.305 15.8004C132.925 16.1377 132.609 16.6383 132.359 17.302C132.119 17.9658 132 18.8472 132 19.9463L129.453 18.7384C129.453 17.3456 129.736 16.0398 130.302 14.821C130.868 13.6023 131.717 12.6175 132.848 11.8667C133.991 11.1158 135.427 10.7404 137.157 10.7404C138.539 10.7404 139.666 10.9744 140.536 11.4423C141.407 11.9102 142.081 12.5032 142.56 13.2214C143.05 13.9396 143.398 14.6904 143.605 15.4739C143.812 16.2465 143.937 16.9538 143.98 17.5958C144.024 18.2379 144.046 18.7058 144.046 18.9996V28.891H139.541ZM127.495 28.891V5.38665H131.445V17.4653H132V28.891H127.495Z" fill="white"/>
<path d="M153.537 29.4133C152.155 29.4133 151.029 29.1793 150.158 28.7114C149.288 28.2435 148.607 27.6505 148.118 26.9323C147.639 26.2141 147.296 25.4687 147.089 24.6961C146.883 23.9126 146.758 23.1999 146.714 22.5579C146.67 21.9158 146.649 21.4479 146.649 21.1541V11.2627H151.154V19.5872C151.154 19.9898 151.175 20.5067 151.219 21.1378C151.263 21.7581 151.399 22.3838 151.627 23.0149C151.856 23.646 152.226 24.1738 152.737 24.5982C153.259 25.0225 153.994 25.2347 154.941 25.2347C155.321 25.2347 155.729 25.1749 156.165 25.0552C156.6 24.9355 157.008 24.707 157.389 24.3697C157.77 24.0214 158.08 23.5154 158.319 22.8517C158.57 22.177 158.695 21.2956 158.695 20.2074L161.241 21.4153C161.241 22.8081 160.958 24.1139 160.392 25.3327C159.826 26.5514 158.972 27.5362 157.83 28.287C156.698 29.0379 155.267 29.4133 153.537 29.4133ZM159.25 28.891V23.0475H158.695V11.2627H163.167V28.891H159.25Z" fill="white"/>
<path d="M177 28.891C175.781 29.1195 174.584 29.2174 173.409 29.1848C172.245 29.163 171.2 28.9617 170.275 28.5808C169.361 28.1891 168.665 27.5634 168.186 26.7038C167.751 25.8985 167.522 25.0824 167.5 24.2554C167.479 23.4175 167.468 22.4708 167.468 21.4153V6.36599H171.907V21.1541C171.907 21.8397 171.913 22.4599 171.924 23.0149C171.946 23.559 172.06 23.9942 172.267 24.3207C172.658 24.9409 173.284 25.2783 174.144 25.3327C175.003 25.3871 175.955 25.3436 177 25.2021V28.891ZM163.167 14.6904V11.2627H177V14.6904H163.167Z" fill="white"/>
</svg>
