<svg width="177" height="38" viewBox="0 0 177 38" fill="none" xmlns="http://www.w3.org/2000/svg">
<g id="Logo">
<path id="Icon" fill-rule="evenodd" clip-rule="evenodd" d="M13.3726 0.719415C13.2194 0.772234 10.7126 2.18837 7.80202 3.86639C4.8914 5.54441 2.14865 7.12104 1.70727 7.37018C1.26572 7.61913 0.973261 7.89024 1.05738 7.97261C1.14131 8.05479 3.04848 9.17157 5.29527 10.4544L9.38034 12.7863L9.43567 11.5551C9.50586 9.99488 9.30439 9.68018 7.6037 8.69213C6.8799 8.27179 6.32898 7.88692 6.3793 7.83669C6.50501 7.71166 11.5358 4.8212 11.6277 4.8212C11.6682 4.8212 11.7014 7.10073 11.7014 9.88684C11.7014 14.1052 11.6555 14.9979 11.4275 15.2247C11.084 15.5664 3.39719 19.9862 2.93967 20.1053C2.62456 20.1873 2.60283 20.0002 2.60283 17.2165C2.60283 15.5793 2.64851 14.24 2.7044 14.24C2.76029 14.24 3.43117 14.5813 4.19508 14.9983C5.31254 15.6083 5.70136 15.734 6.18247 15.6417C6.88547 15.5067 8.20755 14.7922 8.30597 14.4939C8.36427 14.3174 1.27333 10.0614 0.328191 9.70566C0.0221824 9.59042 0.00324249 10.008 0.00324249 16.8916C0.00324249 25.616 -0.186899 25.0688 2.34492 23.6288C8.58951 20.0772 13.6329 17.0996 13.9159 16.7976C14.2193 16.4737 14.2607 15.7915 14.3846 9.07553C14.4592 5.02361 14.4653 1.53626 14.3981 1.32554C14.2538 0.873439 13.7646 0.584228 13.3726 0.719415ZM16.7416 0.818589C16.5723 1.02137 16.5301 2.97697 16.5697 8.7878L16.6221 16.4885L17.1139 16.909C17.5141 17.2514 28.3672 23.617 29.8521 24.3803C30.1537 24.5354 30.3731 24.5402 30.6413 24.3975C31.003 24.2049 31.0126 24.0108 31.0126 16.9114C31.0126 11.537 30.9566 9.62293 30.7989 9.62293C30.4935 9.62293 22.4711 14.259 22.4711 14.4356C22.4711 14.7033 24.4574 15.7174 24.982 15.7174C25.2657 15.7174 26.0775 15.385 26.7861 14.9787C27.4947 14.5724 28.1087 14.24 28.1509 14.24C28.193 14.24 28.2274 15.5697 28.2274 17.1949C28.2274 18.8201 28.1646 20.1483 28.0881 20.1467C28.0116 20.1448 26.027 19.0397 23.6781 17.6909L19.4073 15.2384L19.3579 10.1221C19.3308 7.30813 19.3633 5.00588 19.4302 5.00588C19.5835 5.00588 23.7442 7.29944 24.2106 7.64129C24.5313 7.87621 24.4535 7.95987 23.1762 8.7516C22.393 9.23731 21.7002 9.81481 21.576 10.0859C21.337 10.6073 21.272 12.7625 21.495 12.7625C21.799 12.7625 29.8982 8.04427 29.8928 7.87048C29.8894 7.7678 28.9495 7.14875 27.8038 6.49497C26.658 5.84101 24.7597 4.75287 23.5852 4.07693C22.4108 3.40081 20.6349 2.37915 19.6387 1.80627C17.5514 0.60602 17.059 0.438144 16.7416 0.818589ZM8.52117 22.602C2.34065 26.1257 1.95294 26.3775 1.95294 26.8656C1.95294 27.3516 2.32468 27.5984 7.89486 30.8102C11.1629 32.6945 13.9829 34.2761 14.1617 34.3249C14.4651 34.4076 14.4867 34.0938 14.4867 29.5795V24.7456L13.5352 25.264C12.1755 26.0051 11.8886 26.5536 11.8878 28.4143C11.8875 29.2522 11.8243 29.9337 11.7478 29.9287C11.4669 29.9099 6.6452 27.0501 6.6205 26.8875C6.58559 26.6576 15.0497 21.8132 15.4879 21.8125C15.9632 21.8117 24.3395 26.6576 24.2656 26.8907C24.1776 27.1675 19.2998 29.9507 19.1086 29.833C19.0176 29.7773 18.9405 29.0092 18.9372 28.1264C18.9337 27.1577 18.8416 26.4046 18.7051 26.2267C18.3907 25.8175 16.6692 24.7731 16.4902 24.8832C16.4096 24.9327 16.3435 27.0876 16.3435 29.6718C16.3435 33.492 16.3903 34.3703 16.594 34.3703C16.8694 34.3703 28.3029 27.8464 28.839 27.3834C29.5899 26.7348 29.2706 26.4955 22.4778 22.617C18.856 20.5491 15.712 18.857 15.491 18.857C15.2701 18.857 12.1337 20.5422 8.52117 22.602Z" fill="#0033A0"/>
<g id="Policyhut">
<path d="M37.6505 29.528V6.02367H47.5745C47.803 6.02367 48.1077 6.03455 48.4886 6.05631C48.8803 6.0672 49.2285 6.09984 49.5332 6.15425C50.9369 6.37188 52.0849 6.83435 52.9772 7.54166C53.8804 8.24896 54.5442 9.14126 54.9686 10.2185C55.393 11.2849 55.6051 12.4765 55.6051 13.7932C55.6051 15.1098 55.3875 16.3068 54.9522 17.3841C54.5279 18.4505 53.8641 19.3373 52.9609 20.0447C52.0686 20.752 50.926 21.2144 49.5332 21.4321C49.2285 21.4756 48.8803 21.5082 48.4886 21.53C48.0968 21.5518 47.7921 21.5626 47.5745 21.5626H42.0902V29.528H37.6505ZM42.0902 17.4167H47.3786C47.6071 17.4167 47.8574 17.4059 48.1295 17.3841C48.4015 17.3623 48.6518 17.3188 48.8803 17.2535C49.4788 17.0903 49.9413 16.8182 50.2677 16.4374C50.5942 16.0457 50.8172 15.6158 50.9369 15.1479C51.0675 14.6691 51.1328 14.2175 51.1328 13.7932C51.1328 13.3688 51.0675 12.9226 50.9369 12.4547C50.8172 11.9759 50.5942 11.5461 50.2677 11.1652C49.9413 10.7735 49.4788 10.496 48.8803 10.3328C48.6518 10.2675 48.4015 10.224 48.1295 10.2022C47.8574 10.1805 47.6071 10.1696 47.3786 10.1696H42.0902V17.4167Z" fill="#0033A0"/>
<path d="M65.1905 30.0177C63.4168 30.0177 61.8607 29.6205 60.5223 28.8261C59.1838 28.0318 58.1392 26.9382 57.3884 25.5453C56.6484 24.1416 56.2784 22.5311 56.2784 20.7139C56.2784 18.8749 56.6593 17.259 57.421 15.8661C58.1827 14.4624 59.2328 13.3688 60.5712 12.5853C61.9097 11.8018 63.4494 11.4101 65.1905 11.4101C66.9642 11.4101 68.5203 11.8073 69.8587 12.6016C71.208 13.396 72.2581 14.495 73.009 15.8987C73.7598 17.2916 74.1352 18.8966 74.1352 20.7139C74.1352 22.542 73.7543 24.1579 72.9926 25.5616C72.2418 26.9545 71.1917 28.0481 69.8424 28.8425C68.504 29.6259 66.9533 30.0177 65.1905 30.0177ZM65.1905 25.8718C66.616 25.8718 67.677 25.393 68.3734 24.4354C69.0807 23.4669 69.4343 22.2264 69.4343 20.7139C69.4343 19.1469 69.0752 17.8955 68.3571 16.9597C67.6498 16.0239 66.5942 15.556 65.1905 15.556C64.222 15.556 63.4277 15.7736 62.8074 16.2089C62.1872 16.6441 61.7247 17.2481 61.42 18.0207C61.1262 18.7933 60.9793 19.691 60.9793 20.7139C60.9793 22.2917 61.333 23.5485 62.0403 24.4844C62.7585 25.4093 63.8085 25.8718 65.1905 25.8718Z" fill="#0033A0"/>
<path d="M76.7453 29.528V5.534H81.185V29.528H76.7453Z" fill="#0033A0"/>
<path d="M85.099 9.45138V5.534H89.5388V9.45138H85.099ZM85.099 29.528V11.8998H89.5388V29.528H85.099Z" fill="#0033A0"/>
<path d="M100.896 30.0177C99.0677 30.0177 97.5008 29.6096 96.195 28.7935C94.8892 27.9774 93.8881 26.8674 93.1917 25.4637C92.4952 24.06 92.147 22.4767 92.147 20.7139C92.147 18.9293 92.5061 17.3351 93.2243 15.9314C93.9534 14.5277 94.9763 13.4232 96.2929 12.6179C97.6096 11.8127 99.1657 11.4101 100.961 11.4101C103.04 11.4101 104.781 11.9378 106.184 12.9934C107.599 14.038 108.502 15.4689 108.894 17.2862L104.454 18.4614C104.193 17.5473 103.736 16.8346 103.083 16.3231C102.441 15.8117 101.712 15.556 100.896 15.556C99.96 15.556 99.1929 15.7845 98.5944 16.2415C97.9959 16.6877 97.5552 17.3025 97.2723 18.086C96.9894 18.8586 96.8479 19.7345 96.8479 20.7139C96.8479 22.2482 97.1852 23.4941 97.8599 24.4517C98.5454 25.3984 99.5574 25.8718 100.896 25.8718C101.897 25.8718 102.659 25.6433 103.181 25.1862C103.703 24.7292 104.095 24.0763 104.356 23.2275L108.894 24.1742C108.393 26.0459 107.447 27.4877 106.054 28.4997C104.661 29.5117 102.942 30.0177 100.896 30.0177Z" fill="#0033A0"/>
<path d="M112.468 37.3628L115.863 28.0263L115.928 30.7685L108.894 17.2862L112.859 11.8998L118.017 25.2515H116.973L122.098 11.8998H126.538L116.581 37.3628H112.468Z" fill="#0033A0"/>
<path d="M139.541 29.528V21.2035C139.541 20.8009 139.519 20.2895 139.475 19.6692C139.432 19.0381 139.296 18.407 139.067 17.7758C138.839 17.1447 138.463 16.6169 137.941 16.1926C137.429 15.7682 136.7 15.556 135.754 15.556C135.373 15.556 134.965 15.6158 134.53 15.7355C134.094 15.8552 133.686 16.0892 133.305 16.4374C132.925 16.7747 132.609 17.2753 132.359 17.9391C132.119 18.6028 132 19.4842 132 20.5833L129.453 19.3754C129.453 17.9826 129.736 16.6768 130.302 15.458C130.868 14.2393 131.717 13.2545 132.848 12.5037C133.991 11.7528 135.427 11.3774 137.157 11.3774C138.539 11.3774 139.666 11.6114 140.536 12.0793C141.407 12.5472 142.081 13.1403 142.56 13.8584C143.05 14.5766 143.398 15.3275 143.605 16.1109C143.812 16.8835 143.937 17.5908 143.98 18.2329C144.024 18.8749 144.046 19.3428 144.046 19.6366V29.528H139.541ZM127.495 29.528V6.02367H131.445V18.1023H132V29.528H127.495Z" fill="#0033A0"/>
<path d="M153.537 30.0503C152.155 30.0503 151.029 29.8164 150.158 29.3484C149.288 28.8805 148.607 28.2875 148.118 27.5693C147.639 26.8511 147.296 26.1057 147.089 25.3331C146.883 24.5496 146.758 23.8369 146.714 23.1949C146.67 22.5529 146.649 22.085 146.649 21.7912V11.8998H151.154V20.2242C151.154 20.6268 151.175 21.1437 151.219 21.7748C151.263 22.3951 151.399 23.0208 151.627 23.6519C151.856 24.283 152.226 24.8108 152.737 25.2352C153.259 25.6596 153.994 25.8718 154.941 25.8718C155.321 25.8718 155.729 25.8119 156.165 25.6922C156.6 25.5725 157.008 25.344 157.389 25.0067C157.77 24.6585 158.08 24.1525 158.319 23.4887C158.57 22.814 158.695 21.9326 158.695 20.8445L161.241 22.0523C161.241 23.4452 160.958 24.751 160.392 25.9697C159.826 27.1884 158.972 28.1732 157.83 28.9241C156.698 29.6749 155.267 30.0503 153.537 30.0503ZM159.25 29.528V23.6846H158.695V11.8998H163.167V29.528H159.25Z" fill="#0033A0"/>
<path d="M177 29.528C175.781 29.7565 174.584 29.8544 173.409 29.8218C172.245 29.8 171.2 29.5987 170.275 29.2179C169.361 28.8261 168.665 28.2004 168.186 27.3408C167.751 26.5355 167.522 25.7194 167.5 24.8924C167.479 24.0545 167.468 23.1078 167.468 22.0523V7.00302H171.907V21.7912C171.907 22.4767 171.913 23.097 171.924 23.6519C171.946 24.196 172.06 24.6313 172.267 24.9577C172.658 25.578 173.284 25.9153 174.144 25.9697C175.003 26.0241 175.955 25.9806 177 25.8391V29.528ZM163.167 15.3275V11.8998H177V15.3275H163.167Z" fill="#0033A0"/>
</g>
</g>
</svg>
