<svg width="32" height="32" viewBox="0 0 32 32" fill="none" xmlns="http://www.w3.org/2000/svg">
<path fill-rule="evenodd" clip-rule="evenodd" d="M7.99935 4H23.9993C26.9449 4 29.3327 6.38781 29.3327 9.33333V22.6667C29.3327 25.6122 26.9449 28 23.9993 28H13.9993C13.263 28 12.666 27.403 12.666 26.6667V22C12.666 19.0545 10.2782 16.6667 7.33268 16.6667H3.99935C3.26297 16.6667 2.66602 16.0697 2.66602 15.3333V9.33333C2.66602 6.38781 5.05383 4 7.99935 4ZM8.55405 9.83456C8.09453 9.52821 7.47366 9.65238 7.1673 10.1119C6.86095 10.5714 6.98513 11.1923 7.44465 11.4987L12.4863 14.8597C14.6136 16.278 17.3851 16.278 19.5125 14.8597L24.5541 11.4987C25.0136 11.1923 25.1378 10.5714 24.8314 10.1119C24.5251 9.65238 23.9042 9.52821 23.4447 9.83456L18.4031 13.1956C16.9475 14.166 15.0512 14.166 13.5957 13.1956L8.55405 9.83456ZM1.66602 20C1.66602 19.4477 2.11373 19 2.66602 19H9.33268C9.88497 19 10.3327 19.4477 10.3327 20C10.3327 20.5523 9.88497 21 9.33268 21H2.66602C2.11373 21 1.66602 20.5523 1.66602 20ZM2.66602 23C2.11373 23 1.66602 23.4477 1.66602 24C1.66602 24.5523 2.11373 25 2.66602 25H9.33268C9.88497 25 10.3327 24.5523 10.3327 24C10.3327 23.4477 9.88497 23 9.33268 23H2.66602Z" fill="#0033A0"/>
</svg>
