<svg width="73" height="73" viewBox="0 0 73 73" fill="none" xmlns="http://www.w3.org/2000/svg">
<g clip-path="url(#clip0_568_8635)">
<path fill-rule="evenodd" clip-rule="evenodd" d="M36.5153 50.3849C39.7977 53.4094 44.2056 55.2439 49.0001 55.2439C59.2971 55.2439 67.6311 46.8454 67.6311 36.5159C67.6311 26.155 59.2971 17.7562 49.0001 17.7562C44.2056 17.7562 39.7977 19.5903 36.5153 22.6151C32.7505 26.058 30.3691 31.0135 30.3691 36.5159C30.3695 42.0183 32.7505 46.9742 36.5153 50.3849Z" fill="#E9B040"/>
<path fill-rule="evenodd" clip-rule="evenodd" d="M65.1543 46.9416C65.1543 46.6197 65.4118 46.3625 65.7334 46.3625C66.0871 46.3625 66.3442 46.6201 66.3442 46.9416C66.3442 47.2961 66.0867 47.5532 65.7334 47.5532C65.4118 47.5532 65.1543 47.2961 65.1543 46.9416ZM65.7334 47.4249C65.9909 47.4249 66.2155 47.1991 66.2155 46.942C66.2155 46.6848 65.9905 46.4917 65.7334 46.4917C65.5076 46.4917 65.2831 46.6848 65.2831 46.942C65.2831 47.1991 65.508 47.4249 65.7334 47.4249ZM65.669 47.2317H65.5402V46.6845H65.7652C65.7977 46.6845 65.8621 46.6845 65.8939 46.717C65.9583 46.7488 65.9583 46.7814 65.9583 46.8458C65.9583 46.9102 65.9265 46.9746 65.8621 46.9746L65.9909 47.2321H65.8296L65.7652 47.0064H65.669V47.2317V46.9098H65.7977C65.8296 46.9098 65.8296 46.8772 65.8296 46.8454C65.8296 46.8128 65.8296 46.8128 65.7977 46.781H65.669V47.2317Z" fill="#E9B040"/>
<path fill-rule="evenodd" clip-rule="evenodd" d="M42.5326 34.5212C42.4682 33.8456 42.3394 33.2021 42.2107 32.5261H30.8196C30.9484 31.8505 31.1415 31.2071 31.3343 30.5632H41.6638C41.4396 29.8858 41.1819 29.22 40.8916 28.5682H32.1391C32.461 27.8866 32.8154 27.2208 33.201 26.5731H39.7979C39.3734 25.8859 38.9003 25.2299 38.3822 24.6102H34.617C35.1994 23.8989 35.834 23.2321 36.5155 22.6151C33.2014 19.6225 28.8249 17.7562 23.9982 17.7562C13.7334 17.7562 5.36719 26.155 5.36719 36.5159C5.36719 46.8454 13.7334 55.2439 23.9982 55.2439C28.8249 55.2439 33.201 53.4094 36.5155 50.3849C37.1866 49.7788 37.8107 49.1224 38.3822 48.4216H34.617C34.102 47.7782 33.6517 47.1348 33.201 46.4266H39.7979C40.2127 45.7903 40.5784 45.1233 40.892 44.4315H32.1391C31.8494 43.788 31.56 43.1446 31.3343 42.4682H41.6638C41.8888 41.8248 42.0501 41.1495 42.2103 40.4731C42.3391 39.8297 42.4678 39.1544 42.5322 38.4781C42.5974 37.8257 42.6298 37.1704 42.6292 36.5148C42.6292 35.8403 42.597 35.1647 42.5326 34.5212Z" fill="#CC2131"/>
<path fill-rule="evenodd" clip-rule="evenodd" d="M65.1543 40.8601C65.1543 40.5064 65.4118 40.2493 65.7334 40.2493C66.0871 40.2493 66.3442 40.5068 66.3442 40.8601C66.3442 41.182 66.0867 41.4718 65.7334 41.4718C65.4118 41.4718 65.1543 41.1817 65.1543 40.8601ZM65.7334 41.3104C65.9909 41.3104 66.2155 41.1173 66.2155 40.8601C66.2155 40.603 65.9905 40.4098 65.7334 40.4098C65.5076 40.4098 65.2831 40.603 65.2831 40.8601C65.2831 41.1173 65.508 41.3104 65.7334 41.3104ZM65.669 41.1173H65.5402V40.6026H65.8939C65.9583 40.6352 65.9583 40.6996 65.9583 40.7639C65.9583 40.7958 65.9265 40.8601 65.8621 40.8927L65.9909 41.1177H65.8296L65.7652 40.9245H65.669V41.1173V40.8279H65.7334C65.7652 40.8279 65.7977 40.8279 65.7977 40.7954C65.8296 40.7954 65.8296 40.7636 65.8296 40.731C65.8296 40.731 65.8296 40.6992 65.7977 40.6992C65.7977 40.6666 65.7652 40.6992 65.7334 40.6992H65.669V41.1173Z" fill="white"/>
<path fill-rule="evenodd" clip-rule="evenodd" d="M30.1773 41.9221C29.566 42.0827 29.1154 42.1796 28.6651 42.1796C27.6997 42.1796 27.1203 41.568 27.1203 40.4739C27.1203 40.2489 27.1525 40.0236 27.1847 39.7661L27.3134 39.0264L27.41 38.4148L28.2788 33.1378H30.2095L29.9841 34.2963H31.207L30.9173 36.227H29.6944L29.1797 39.3802C29.1476 39.5415 29.1476 39.6377 29.1476 39.7021C29.1476 40.1205 29.3407 40.2811 29.8232 40.2811C30.0485 40.2811 30.2413 40.2493 30.4344 40.2167L30.1773 41.9221ZM36.4201 41.8577C35.7122 42.0509 35.0688 42.1471 34.3606 42.1471C32.1724 42.1471 30.9173 40.9886 30.9173 38.7045C30.9173 36.0334 32.3977 34.1027 34.4568 34.1027C36.0978 34.1027 37.1597 35.1968 37.1597 36.9018C37.1597 37.4816 37.0953 38.0285 36.9347 38.8007H32.9124C32.8802 38.9295 32.8802 38.9939 32.8802 39.0582C32.8802 39.9592 33.4914 40.4095 34.6499 40.4095C35.3899 40.4095 36.0334 40.2489 36.7416 39.9274L36.4201 41.8577ZM35.2294 37.2563V36.87C35.2294 36.2266 34.8753 35.8725 34.264 35.8725C33.6202 35.8725 33.1699 36.355 32.9768 37.2559L35.2294 37.2563ZM14.7317 42.0183H12.7366L13.8951 34.7144L11.2888 42.0183H9.90532L9.74436 34.7465L8.52148 42.0183H6.55859L8.13519 32.5261H11.0634L11.1278 38.383L13.0907 32.5261H16.3087L14.7317 42.0183ZM19.591 38.5758C19.3979 38.5432 19.3335 38.5432 19.2047 38.5432C18.0462 38.5432 17.4672 38.9935 17.4672 39.7017C17.4672 40.1845 17.7569 40.5065 18.2072 40.5065C19.1725 40.5065 19.5584 39.7017 19.591 38.5758ZM21.1998 42.0183H19.4622L19.4944 41.2143C19.0438 41.8251 18.4325 42.1471 17.3706 42.1471C16.4052 42.1471 15.5687 41.2787 15.5687 40.0236C15.5687 39.6699 15.633 39.3483 15.7296 39.0264C16.0511 37.8354 17.2418 37.0957 19.076 37.0632C19.3013 37.0632 19.655 37.0632 19.9769 37.0957C20.0409 36.8382 20.0409 36.7413 20.0409 36.5807C20.0409 36.0656 19.6228 35.9047 18.6897 35.9047C18.1106 35.9047 17.4668 36.0012 17.0165 36.1622L16.7268 36.2266L16.598 36.2584L16.8877 34.5208C17.8209 34.2311 18.4965 34.1027 19.2369 34.1027C20.9745 34.1027 21.9076 34.9071 21.9076 36.3872C21.9076 36.7734 21.9398 37.0632 21.811 37.8997L21.3608 40.667L21.2964 41.1499L21.2642 41.5362L21.232 41.7937L21.1998 42.0183ZM46.1379 34.3603C46.717 34.3603 47.2321 34.5212 47.9399 34.8749L48.2936 32.8155C48.1005 32.7189 48.0361 32.7189 47.7789 32.6223L46.9749 32.397C46.7174 32.3326 46.3958 32.3004 46.0414 32.3004C45.0434 32.3004 44.4644 32.3326 43.8535 32.6867C43.5316 32.912 43.1131 33.2018 42.6625 33.7164L42.4049 33.6521L40.3455 35.0999L40.4424 34.2955H38.3182L37.0639 42.0179H39.0915L39.8312 37.8676C39.8312 37.8676 40.1213 37.2877 40.2496 37.0954C40.6359 36.6125 40.9575 36.6125 41.3756 36.6125H41.5369C41.4694 37.1029 41.437 37.5975 41.44 38.0925C41.44 40.6023 42.8556 42.1793 45.0438 42.1793C45.5911 42.1793 46.0743 42.1149 46.814 41.9217L47.1684 39.7339C46.525 40.0876 45.9456 40.2486 45.4627 40.2486C44.2724 40.2486 43.5638 39.3476 43.5638 37.9319C43.563 35.8403 44.6253 34.3603 46.1379 34.3603ZM63.2238 32.5261L62.7739 35.229C62.291 34.489 61.7115 34.1349 60.9393 34.1349C59.877 34.1349 58.8799 34.7462 58.2683 35.9047V35.8729L56.9814 35.1003L57.1101 34.2959H54.9541L53.7312 42.0183H55.7263L56.4023 37.8679C56.4023 37.8679 56.917 37.2881 57.0458 37.0957C57.3677 36.7094 57.6892 36.6447 57.9467 36.6129C57.7218 37.2563 57.593 38.0285 57.593 38.8977C57.593 40.8284 58.5902 42.1152 60.0702 42.1152C60.8106 42.1152 61.3896 41.8577 61.9365 41.2461L61.8403 42.0183H63.7392L65.2836 32.5261H63.2238ZM60.7466 40.1845C60.0706 40.1845 59.7168 39.6699 59.7168 38.672C59.7168 37.1594 60.3603 36.0656 61.2931 36.0656C62.0009 36.0656 62.3554 36.6129 62.3554 37.5782C62.3554 39.1226 61.7119 40.1845 60.7466 40.1845ZM51.4476 38.5758C51.2544 38.5432 51.19 38.5432 51.0613 38.5432C49.902 38.5432 49.3229 38.9935 49.3229 39.7017C49.3229 40.1845 49.613 40.5065 50.0633 40.5065C51.0287 40.5065 51.415 39.7017 51.4476 38.5758ZM53.0563 42.0183H51.2862L51.3506 41.2143C50.9003 41.8251 50.2883 42.1471 49.2271 42.1471C48.2292 42.1471 47.3608 41.3105 47.3608 40.0236C47.3608 38.1898 48.7439 37.0635 50.9321 37.0635C51.1578 37.0635 51.5112 37.0635 51.8013 37.0961C51.8657 36.8386 51.8982 36.7416 51.8982 36.5811C51.8982 36.066 51.4797 35.905 50.5144 35.905C49.9672 35.905 49.2915 36.0016 48.8412 36.1626L48.5837 36.227L48.4549 36.2588L48.7443 34.5212C49.6778 34.2315 50.3538 34.1031 51.0935 34.1031C52.831 34.1031 53.732 34.9075 53.732 36.3875C53.732 36.7738 53.7964 37.0635 53.6358 37.9001L53.2173 40.6674L53.1529 41.1503L53.0885 41.5366L53.0567 41.7941V42.0183H53.0563ZM25.4149 35.9369C25.8012 35.9369 26.3481 35.969 26.9275 36.0656L27.2172 34.2637C26.6378 34.1993 25.8656 34.1027 25.4149 34.1027C23.1627 34.1027 22.4227 35.3256 22.4227 36.7413C22.4227 37.6748 22.8408 38.35 23.9349 38.8647C24.7393 39.251 24.8681 39.315 24.8681 39.6695C24.8681 40.1516 24.4499 40.4417 23.6774 40.4417C23.0661 40.4417 22.4867 40.3447 21.8432 40.1198L21.6179 41.8892L21.6497 41.9217L22.036 41.9861C22.1648 42.0179 22.3257 42.0505 22.5511 42.0823C23.0335 42.1149 23.452 42.1467 23.7096 42.1467C25.9622 42.1467 26.8953 41.2783 26.8953 39.5725C26.8953 38.511 26.3803 37.8676 25.3827 37.4173C24.514 37.0306 24.4174 36.967 24.4174 36.6125C24.4174 36.2588 24.8037 35.9369 25.4149 35.9369Z" fill="#1B3771"/>
<path fill-rule="evenodd" clip-rule="evenodd" d="M48.8405 32.2042L48.4861 34.2637C47.7782 33.9096 47.2632 33.749 46.6841 33.749C45.1715 33.749 44.11 35.229 44.11 37.3207C44.11 38.7689 44.8178 39.6373 46.0089 39.6373C46.491 39.6373 47.0704 39.4767 47.7139 39.1552L47.3601 41.3105C46.6197 41.5036 46.1373 41.6006 45.59 41.6006C43.4022 41.6006 42.0505 40.0236 42.0505 37.482C42.0505 34.1031 43.9168 31.7217 46.5876 31.7217C46.9413 31.7217 47.2628 31.7539 47.5203 31.8183L48.3251 32.0115C48.583 32.108 48.6474 32.1402 48.8405 32.2042ZM42.3402 33.6203H42.1471C41.4718 33.6203 41.0856 33.9422 40.4739 34.8749L40.6671 33.6843H38.8326L37.5783 41.4071H39.6059C40.3455 36.6769 40.5387 35.8725 41.504 35.8725H41.6328C41.8259 34.9393 42.0831 34.2633 42.405 33.6521L42.3402 33.6203ZM30.692 41.3105C30.1452 41.5036 29.6945 41.568 29.2442 41.568C28.2145 41.568 27.635 40.989 27.635 39.863C27.635 39.6699 27.6672 39.4127 27.6994 39.187L27.8282 38.4148L27.9248 37.8039L28.7935 32.5261H30.7886L30.5633 33.6846H31.593L31.3355 35.5831H30.3058L29.7589 38.8011C29.7267 38.9299 29.7267 39.0268 29.7267 39.123C29.7267 39.5093 29.9198 39.6703 30.4023 39.6703C30.6277 39.6703 30.8204 39.6703 30.9492 39.6059L30.692 41.3105ZM22.9371 36.13C22.9371 37.0957 23.3873 37.771 24.4493 38.286C25.2859 38.6723 25.4146 38.8007 25.4146 39.1226C25.4146 39.6055 25.0605 39.8305 24.2561 39.8305C23.6449 39.8305 23.0976 39.7343 22.4542 39.5411L22.1645 41.3105L22.261 41.343L22.6151 41.4074C22.7435 41.4392 22.9049 41.4718 23.162 41.4718C23.6123 41.5362 23.9986 41.5362 24.2561 41.5362C26.3796 41.5362 27.3775 40.7314 27.3775 38.9621C27.3775 37.8998 26.9594 37.2881 25.9619 36.806C25.0931 36.4197 24.9965 36.3235 24.9965 35.9694C24.9965 35.5513 25.3506 35.3582 25.9941 35.3582C26.3803 35.3582 26.9272 35.3904 27.4423 35.4548L27.7316 33.685C27.2169 33.5884 26.4125 33.5241 25.9619 33.5241C23.7093 33.5237 22.9049 34.7144 22.9371 36.13ZM64.254 41.4074H62.3551L62.452 40.667C61.9048 41.2461 61.3253 41.5036 60.5849 41.5036C59.1049 41.5036 58.1396 40.2493 58.1396 38.3186C58.1396 35.7441 59.6522 33.5559 61.4215 33.5559C62.2263 33.5559 62.8054 33.91 63.353 34.6178L63.8033 31.9149H65.7984L64.254 41.4074ZM61.2931 39.6055C62.2267 39.6055 62.8701 38.5114 62.8701 36.9988C62.8701 36.0012 62.5156 35.4862 61.8078 35.4862C60.9069 35.4862 60.2316 36.5481 60.2316 38.0607C60.2316 39.0908 60.5853 39.6055 61.2931 39.6055ZM36.8701 41.2461C36.1619 41.4718 35.5184 41.568 34.7784 41.568C32.5258 41.568 31.3673 40.3777 31.3673 38.0929C31.3673 35.4544 32.8477 33.4915 34.875 33.4915C36.5481 33.4915 37.6097 34.5856 37.6097 36.291C37.6097 36.8704 37.5453 37.4176 37.3522 38.2217H33.3628C33.3306 38.3186 33.3306 38.383 33.3306 38.4474C33.3306 39.3483 33.9422 39.7986 35.1003 39.7986C35.8403 39.7986 36.4838 39.6699 37.192 39.3158L36.8701 41.2461ZM35.7437 36.6447V36.2588C35.7437 35.6153 35.3897 35.2612 34.7784 35.2612C34.135 35.2612 33.6843 35.7441 33.4911 36.6447H35.7437ZM15.2464 41.4074H13.2514L14.4099 34.1027L11.8035 41.4074H10.4197L10.2587 34.1671L9.03624 41.4074H7.16992L8.74652 31.9149H11.6426L11.7391 37.8036L13.6695 31.9149H16.823L15.2464 41.4074ZM20.2341 37.9641C20.041 37.9641 19.9444 37.9323 19.7835 37.9323C18.6572 37.9323 18.0781 38.3504 18.0781 39.1226C18.0781 39.6055 18.3356 39.8948 18.7859 39.8948C19.6225 39.8948 20.202 39.1226 20.2341 37.9641ZM21.7142 41.4074H20.0406L20.0728 40.6027C19.5578 41.2461 18.8821 41.5362 17.949 41.5362C16.8549 41.5362 16.1148 40.6996 16.1148 39.4445C16.1148 37.5464 17.4017 36.4523 19.6543 36.4523C19.8797 36.4523 20.1694 36.4845 20.4909 36.5163C20.5553 36.2591 20.5553 36.1626 20.5553 36.0338C20.5553 35.5191 20.2012 35.326 19.268 35.326C18.689 35.326 18.0452 35.3904 17.5949 35.5191L17.3051 35.6157L17.112 35.6479L17.4017 33.9103C18.3993 33.6206 19.0749 33.5241 19.8153 33.5241C21.5528 33.5241 22.486 34.2963 22.486 35.7763C22.486 36.1626 22.4538 36.4523 22.325 37.3211L21.8744 40.0565L21.81 40.5387L21.7778 40.9249L21.7456 41.215L21.7142 41.4074ZM52.0907 37.9641C51.865 37.9641 51.7688 37.9323 51.6404 37.9323C50.4819 37.9323 49.9021 38.3504 49.9021 39.1226C49.9021 39.6055 50.1922 39.8948 50.6425 39.8948C51.4473 39.8948 52.0581 39.1226 52.0907 37.9641ZM53.5707 41.4074H51.8976L51.9294 40.6027C51.4147 41.2461 50.7391 41.5362 49.8059 41.5362C48.7118 41.5362 47.9714 40.6996 47.9714 39.4445C47.9714 37.5464 49.2583 36.4523 51.5109 36.4523C51.7366 36.4523 52.0263 36.4845 52.3157 36.5163C52.38 36.2591 52.4126 36.1626 52.4126 36.0338C52.4126 35.5191 52.0581 35.326 51.1257 35.326C50.5459 35.326 49.8707 35.3904 49.42 35.5191L49.1625 35.6157L48.9693 35.6479L49.2587 33.9103C50.2566 33.6206 50.9318 33.5241 51.6722 33.5241C53.4098 33.5241 54.3107 34.2963 54.3107 35.7763C54.3107 36.1626 54.3107 36.4523 54.1502 37.3211L53.7317 40.0565L53.6673 40.5387L53.6029 40.9249L53.5711 41.215L53.5707 41.4074ZM58.9765 33.6203H58.7834C58.1081 33.6203 57.7218 33.9422 57.1102 34.8749L57.3034 33.6843H55.4689L54.246 41.4071H56.2411C56.9814 36.6769 57.1746 35.8725 58.1399 35.8725H58.2687C58.4619 34.9393 58.719 34.2633 59.0409 33.6521L58.9765 33.6203Z" fill="white"/>
</g>
<defs>
<clipPath id="clip0_568_8635">
<rect width="73" height="73" fill="white"/>
</clipPath>
</defs>
</svg>
