<svg width="24" height="24" viewBox="0 0 24 24" fill="none" xmlns="http://www.w3.org/2000/svg">
<path fill-rule="evenodd" clip-rule="evenodd" d="M5.25071 9C5.25071 7.20979 5.96186 5.4929 7.22773 4.22703C8.49361 2.96116 10.2105 2.25 12.0007 2.25C13.7909 2.25 15.5078 2.96116 16.7737 4.22703C18.0395 5.4929 18.7507 7.20979 18.7507 9V9.75C18.7507 11.873 19.5507 13.807 20.8687 15.27C20.9508 15.361 21.0094 15.4707 21.0392 15.5896C21.0691 15.7084 21.0694 15.8328 21.0401 15.9518C21.0108 16.0708 20.9528 16.1808 20.8711 16.2722C20.7895 16.3636 20.6867 16.4335 20.5717 16.476C19.0277 17.046 17.4117 17.466 15.7407 17.719C15.7783 18.2331 15.7095 18.7495 15.5386 19.2359C15.3677 19.7222 15.0984 20.1681 14.7474 20.5457C14.3964 20.9233 13.9714 21.2245 13.4988 21.4304C13.0262 21.6364 12.5162 21.7427 12.0007 21.7427C11.4852 21.7427 10.9752 21.6364 10.5026 21.4304C10.03 21.2245 9.60497 20.9233 9.254 20.5457C8.90303 20.1681 8.63368 19.7222 8.46277 19.2359C8.29187 18.7495 8.22308 18.2331 8.26071 17.719C6.61236 17.4692 4.99369 17.0524 3.42971 16.475C3.31484 16.4326 3.2121 16.3627 3.13047 16.2715C3.04883 16.1802 2.99078 16.0703 2.96139 15.9515C2.93199 15.8326 2.93214 15.7084 2.96183 15.5896C2.99152 15.4708 3.04984 15.3611 3.13171 15.27C4.49851 13.7567 5.25378 11.7892 5.25071 9.75V9ZM9.75271 17.9C9.73991 18.2032 9.78858 18.5058 9.89579 18.7897C10.003 19.0736 10.1665 19.3329 10.3765 19.5519C10.5865 19.771 10.8387 19.9453 11.1178 20.0644C11.3969 20.1835 11.6972 20.2448 12.0007 20.2448C12.3042 20.2448 12.6045 20.1835 12.8836 20.0644C13.1627 19.9453 13.4149 19.771 13.6249 19.5519C13.8349 19.3329 13.9984 19.0736 14.1056 18.7897C14.2128 18.5058 14.2615 18.2032 14.2487 17.9C12.7531 18.0347 11.2483 18.0347 9.75271 17.9Z" fill="#3E4767"/>
</svg>
