<svg width="32" height="32" viewBox="0 0 32 32" fill="none" xmlns="http://www.w3.org/2000/svg">
<path fill-rule="evenodd" clip-rule="evenodd" d="M17.3333 3C16.781 3 16.3333 3.44772 16.3333 4C16.3333 4.55228 16.781 5 17.3333 5C18.6028 5 19.8598 5.25004 21.0326 5.73583C22.2054 6.22163 23.2711 6.93367 24.1687 7.8313C25.0663 8.72893 25.7784 9.79458 26.2642 10.9674C26.75 12.1402 27 13.3972 27 14.6667C27 15.219 27.4477 15.6667 28 15.6667C28.5523 15.6667 29 15.219 29 14.6667C29 13.1346 28.6982 11.6175 28.1119 10.202C27.5256 8.78656 26.6663 7.50044 25.5829 6.41709C24.4996 5.33374 23.2134 4.47438 21.798 3.88807C20.3825 3.30177 18.8654 3 17.3333 3ZM28 25.3333V23.1388C28 22.0483 27.3361 21.0678 26.3237 20.6628L23.6115 19.5779C22.3238 19.0629 20.8563 19.6208 20.236 20.8613L20 21.3333C20 21.3333 16.6667 20.6667 14 18C11.3333 15.3333 10.6667 12 10.6667 12L11.1387 11.764C12.3792 11.1437 12.9371 9.67618 12.4221 8.38848L11.3372 5.67629C10.9322 4.66387 9.95166 4 8.86125 4H6.66667C5.19391 4 4 5.19391 4 6.66667C4 18.4487 13.5513 28 25.3333 28C26.8061 28 28 26.8061 28 25.3333ZM16.3333 9.33333C16.3333 8.78105 16.781 8.33333 17.3333 8.33333C18.165 8.33333 18.9886 8.49715 19.757 8.81543C20.5254 9.13371 21.2236 9.60022 21.8117 10.1883C22.3998 10.7764 22.8663 11.4746 23.1846 12.243C23.5028 13.0114 23.6667 13.835 23.6667 14.6667C23.6667 15.219 23.219 15.6667 22.6667 15.6667C22.1144 15.6667 21.6667 15.219 21.6667 14.6667C21.6667 14.0976 21.5546 13.5341 21.3368 13.0084C21.119 12.4826 20.7999 12.0049 20.3975 11.6025C19.9951 11.2001 19.5174 10.881 18.9916 10.6632C18.4659 10.4454 17.9024 10.3333 17.3333 10.3333C16.781 10.3333 16.3333 9.88562 16.3333 9.33333Z" fill="#0033A0"/>
</svg>
