<svg width="32" height="32" viewBox="0 0 32 32" fill="none" xmlns="http://www.w3.org/2000/svg">
<path d="M14.1254 11.7312C14.1254 11.2135 14.5451 10.7937 15.0629 10.7937C15.5806 10.7937 16.0004 11.2135 16.0004 11.7312V17.0943C16.0161 17.0888 16.0317 17.0828 16.0476 17.0775L19.7726 15.8359V9.99875C19.7726 8.29319 18.3851 6.90569 16.6796 6.90569H5.90169C4.19612 6.90569 2.80862 8.29325 2.80862 9.99875V24.5489C2.80862 25.9277 3.71562 27.0983 4.96419 27.4964V28.5906C4.96419 29.1084 5.38394 29.5281 5.90169 29.5281C6.41944 29.5281 6.83919 29.1084 6.83919 28.5906V27.642H15.045C14.4496 26.2744 14.1246 24.7727 14.1246 23.2119L14.1254 11.7312ZM8.45587 22.9322C8.45587 23.45 8.03612 23.8697 7.51837 23.8697C7.00062 23.8697 6.58087 23.45 6.58087 22.9322V11.7312C6.58087 11.2135 7.00062 10.7937 7.51837 10.7937C8.03612 10.7937 8.45587 11.2135 8.45587 11.7312V22.9322ZM12.2281 22.9322C12.2281 23.45 11.8084 23.8697 11.2906 23.8697C10.7729 23.8697 10.3531 23.45 10.3531 22.9322V11.7312C10.3531 11.2135 10.7729 10.7937 11.2906 10.7937C11.8084 10.7937 12.2281 11.2135 12.2281 11.7312V22.9322ZM9.41069 1.875H13.1706V5.03069H15.0456V1.86881C15.0456 0.838375 14.2072 0 13.1767 0H9.4045C8.374 0 7.53569 0.838375 7.53569 1.86881V5.03062H9.41069V1.875Z" fill="#0033A0"/>
<path d="M28.5504 18.8563L22.8919 16.9702C22.6995 16.9061 22.4915 16.9061 22.2991 16.9702L16.6407 18.8563C16.454 18.9186 16.2917 19.0379 16.1766 19.1976C16.0616 19.3572 15.9996 19.5489 15.9996 19.7457V23.2119C15.9979 25.1459 16.6056 27.0313 17.7364 28.6003C18.8673 30.1693 20.4638 31.342 22.2991 31.9519C22.4916 32.016 22.6996 32.016 22.892 31.9519C24.7274 31.342 26.3238 30.1693 27.4547 28.6003C28.5855 27.0313 29.1932 25.1459 29.1914 23.2119V19.7457C29.1914 19.5489 29.1295 19.3572 29.0145 19.1976C28.8994 19.0379 28.7371 18.9186 28.5504 18.8563ZM25.2741 24.2329L21.8904 26.2911C21.7438 26.3806 21.5755 26.4278 21.4038 26.4278C21.2569 26.4279 21.1119 26.3935 20.9807 26.3273C20.8496 26.2611 20.7358 26.1649 20.6486 26.0466L19.6496 24.6917C19.3423 24.275 19.431 23.688 19.8477 23.3808C20.2644 23.0735 20.8514 23.1621 21.1586 23.579L21.6487 24.2435L24.2996 22.631C24.742 22.362 25.3186 22.5024 25.5878 22.9448C25.8569 23.3871 25.7165 23.9638 25.2741 24.2329Z" fill="#0033A0"/>
</svg>
