<svg width="32" height="32" viewBox="0 0 32 32" fill="none" xmlns="http://www.w3.org/2000/svg">
<g id="Button container" clip-path="url(#clip0_551_5403)">
<g id="Button">
<path id="Vector" d="M8 0.888001V13.28L14.503 15.337C14.7362 15.4102 14.9397 15.5562 15.0837 15.7537C15.2277 15.9512 15.3046 16.1896 15.303 16.434V20.571H20.571C20.8739 20.5718 21.1642 20.6925 21.3783 20.9067C21.5925 21.1208 21.7132 21.4111 21.714 21.714V32H24V0.888001C24 0.652488 23.9064 0.426622 23.7399 0.26009C23.5734 0.0935574 23.3475 5.63114e-07 23.112 5.63114e-07H8.889C8.7723 -0.000130854 8.65672 0.022741 8.54887 0.0673083C8.44102 0.111876 8.34301 0.177264 8.26044 0.259736C8.17788 0.342207 8.11238 0.440144 8.06769 0.547947C8.023 0.655749 8 0.771303 8 0.888001ZM13.714 13.714H11.43C11.2771 13.7185 11.1249 13.6923 10.9823 13.6369C10.8398 13.5816 10.7098 13.4981 10.6 13.3916C10.4903 13.2851 10.403 13.1576 10.3435 13.0167C10.2839 12.8758 10.2532 12.7244 10.2532 12.5715C10.2532 12.4186 10.2839 12.2672 10.3435 12.1263C10.403 11.9854 10.4903 11.858 10.6 11.7514C10.7098 11.6449 10.8398 11.5614 10.9823 11.5061C11.1249 11.4507 11.2771 11.4245 11.43 11.429H13.715C13.8679 11.4245 14.0201 11.4507 14.1627 11.5061C14.3052 11.5614 14.4352 11.6449 14.545 11.7514C14.6547 11.858 14.742 11.9854 14.8015 12.1263C14.8611 12.2672 14.8918 12.4186 14.8918 12.5715C14.8918 12.7244 14.8611 12.8758 14.8015 13.0167C14.742 13.1576 14.6547 13.2851 14.545 13.3916C14.4352 13.4981 14.3052 13.5816 14.1627 13.6369C14.0201 13.6923 13.8679 13.7185 13.715 13.714H13.714ZM13.714 9.143H11.43C11.1269 9.143 10.8361 9.02258 10.6218 8.80822C10.4074 8.59387 10.287 8.30314 10.287 8C10.287 7.69686 10.4074 7.40613 10.6218 7.19178C10.8361 6.97742 11.1269 6.857 11.43 6.857H13.715C14.0181 6.857 14.3089 6.97742 14.5232 7.19178C14.7376 7.40613 14.858 7.69686 14.858 8C14.858 8.30314 14.7376 8.59387 14.5232 8.80822C14.3089 9.02258 14.0181 9.143 13.715 9.143H13.714ZM13.714 4.571H11.43C11.2771 4.57552 11.1249 4.54932 10.9823 4.49394C10.8398 4.43856 10.7098 4.35513 10.6 4.24859C10.4903 4.14205 10.403 4.01457 10.3435 3.8737C10.2839 3.73284 10.2532 3.58145 10.2532 3.4285C10.2532 3.27555 10.2839 3.12416 10.3435 2.9833C10.403 2.84243 10.4903 2.71495 10.6 2.60841C10.7098 2.50187 10.8398 2.41844 10.9823 2.36306C11.1249 2.30768 11.2771 2.28148 11.43 2.286H13.715C13.8679 2.28148 14.0201 2.30768 14.1627 2.36306C14.3052 2.41844 14.4352 2.50187 14.545 2.60841C14.6547 2.71495 14.742 2.84243 14.8015 2.9833C14.8611 3.12416 14.8918 3.27555 14.8918 3.4285C14.8918 3.58145 14.8611 3.73284 14.8015 3.8737C14.742 4.01457 14.6547 4.14205 14.545 4.24859C14.4352 4.35513 14.3052 4.43856 14.1627 4.49394C14.0201 4.54932 13.8679 4.57552 13.715 4.571H13.714ZM20.571 18.286H18.286C17.9829 18.286 17.6921 18.1656 17.4778 17.9512C17.2634 17.7369 17.143 17.4461 17.143 17.143C17.143 16.8399 17.2634 16.5491 17.4778 16.3348C17.6921 16.1204 17.9829 16 18.286 16H20.572C20.8751 16 21.1659 16.1204 21.3802 16.3348C21.5946 16.5491 21.715 16.8399 21.715 17.143C21.715 17.4461 21.5946 17.7369 21.3802 17.9512C21.1659 18.1656 20.8751 18.286 20.572 18.286H20.571ZM20.571 13.714H18.286C17.9888 13.7052 17.7068 13.581 17.4997 13.3677C17.2926 13.1544 17.1768 12.8688 17.1768 12.5715C17.1768 12.2742 17.2926 11.9886 17.4997 11.7753C17.7068 11.562 17.9888 11.4378 18.286 11.429H20.572C20.7249 11.4245 20.8771 11.4507 21.0197 11.5061C21.1622 11.5614 21.2922 11.6449 21.402 11.7514C21.5117 11.858 21.599 11.9854 21.6585 12.1263C21.7181 12.2672 21.7488 12.4186 21.7488 12.5715C21.7488 12.7244 21.7181 12.8758 21.6585 13.0167C21.599 13.1576 21.5117 13.2851 21.402 13.3916C21.2922 13.4981 21.1622 13.5816 21.0197 13.6369C20.8771 13.6923 20.7249 13.7185 20.572 13.714H20.571ZM20.571 9.143H18.286C17.9829 9.143 17.6921 9.02258 17.4778 8.80822C17.2634 8.59387 17.143 8.30314 17.143 8C17.143 7.69686 17.2634 7.40613 17.4778 7.19178C17.6921 6.97742 17.9829 6.857 18.286 6.857H20.572C20.7221 6.857 20.8707 6.88656 21.0094 6.94401C21.1481 7.00145 21.2741 7.08564 21.3802 7.19178C21.4864 7.29791 21.5706 7.42392 21.628 7.56259C21.6854 7.70127 21.715 7.8499 21.715 8C21.715 8.1501 21.6854 8.29873 21.628 8.43741C21.5706 8.57608 21.4864 8.70209 21.3802 8.80822C21.2741 8.91436 21.1481 8.99855 21.0094 9.05599C20.8707 9.11344 20.7221 9.143 20.572 9.143H20.571ZM20.571 4.571H18.286C17.9888 4.56221 17.7068 4.43798 17.4997 4.22468C17.2926 4.01138 17.1768 3.72579 17.1768 3.4285C17.1768 3.13121 17.2926 2.84562 17.4997 2.63232C17.7068 2.41902 17.9888 2.29479 18.286 2.286H20.572C20.7249 2.28148 20.8771 2.30768 21.0197 2.36306C21.1622 2.41844 21.2922 2.50187 21.402 2.60841C21.5117 2.71495 21.599 2.84243 21.6585 2.9833C21.7181 3.12416 21.7488 3.27555 21.7488 3.4285C21.7488 3.58145 21.7181 3.73284 21.6585 3.8737C21.599 4.01457 21.5117 4.14205 21.402 4.24859C21.2922 4.35513 21.1622 4.43856 21.0197 4.49394C20.8771 4.54932 20.7249 4.57552 20.572 4.571H20.571Z" fill="#0033A0"/>
<path id="Vector_2" d="M6.51401 15.2111L1.2059e-05 17.2701V25.4871C-0.0321205 26.4153 0.163942 27.3372 0.571012 28.1721C2.00001 31.0061 5.60001 31.8171 6.51401 31.9901C7.42901 31.8181 11.017 31.0071 12.446 28.1611C12.8508 27.3415 13.047 26.4347 13.017 25.5211V17.2701L6.51401 15.2111ZM11.303 21.5661L6.84601 26.0101C6.74169 26.1186 6.61653 26.2049 6.47803 26.2639C6.33953 26.3229 6.19055 26.3533 6.04001 26.3533C5.88948 26.3533 5.74049 26.3229 5.602 26.2639C5.4635 26.2049 5.33833 26.1186 5.23401 26.0101L2.87001 23.6571C2.7641 23.5514 2.68007 23.4258 2.62273 23.2876C2.5654 23.1494 2.53589 23.0012 2.53589 22.8516C2.53589 22.7019 2.5654 22.5538 2.62273 22.4155C2.68007 22.2773 2.7641 22.1518 2.87001 22.0461C3.0858 21.8319 3.37749 21.7117 3.68151 21.7117C3.98553 21.7117 4.27723 21.8319 4.49301 22.0461L6.04701 23.5891L9.68101 19.9541C9.8968 19.7399 10.1885 19.6197 10.4925 19.6197C10.7965 19.6197 11.0882 19.7399 11.304 19.9541C11.4101 20.0598 11.4942 20.1854 11.5517 20.3237C11.6091 20.462 11.6386 20.6103 11.6386 20.7601C11.6386 20.9098 11.6091 21.0581 11.5517 21.1964C11.4942 21.3347 11.4091 21.4603 11.303 21.5661ZM12.572 32.0001V31.6391C13.3633 30.9556 14.0137 30.1244 14.487 29.1921C15.0618 28.0448 15.3425 26.7727 15.304 25.4901V22.8571H19.429V32.0001H12.572ZM26.286 10.0311V32.0001H32V10.0311C32 9.79555 31.9065 9.56969 31.7399 9.40316C31.5734 9.23662 31.3475 9.14307 31.112 9.14307H27.174C26.9385 9.14307 26.7126 9.23662 26.5461 9.40316C26.3796 9.56969 26.286 9.79555 26.286 10.0311ZM29.714 28.5711H28.571C28.2739 28.5623 27.9918 28.438 27.7847 28.2247C27.5776 28.0114 27.4618 27.7259 27.4618 27.4286C27.4618 27.1313 27.5776 26.8457 27.7847 26.6324C27.9918 26.4191 28.2739 26.2949 28.571 26.2861H29.714C29.8669 26.2815 30.0191 26.3077 30.1617 26.3631C30.3043 26.4185 30.4343 26.5019 30.544 26.6085C30.6537 26.715 30.741 26.8425 30.8005 26.9834C30.8601 27.1242 30.8908 27.2756 30.8908 27.4286C30.8908 27.5815 30.8601 27.7329 30.8005 27.8738C30.741 28.0146 30.6537 28.1421 30.544 28.2487C30.4343 28.3552 30.3043 28.4386 30.1617 28.494C30.0191 28.5494 29.8669 28.5756 29.714 28.5711ZM29.714 24.0001H28.571C28.2679 24.0001 27.9771 23.8796 27.7628 23.6653C27.5484 23.4509 27.428 23.1602 27.428 22.8571C27.428 22.5539 27.5484 22.2632 27.7628 22.0488C27.9771 21.8345 28.2679 21.7141 28.571 21.7141H29.714C30.0172 21.7141 30.3079 21.8345 30.5222 22.0488C30.7366 22.2632 30.857 22.5539 30.857 22.8571C30.857 23.1602 30.7366 23.4509 30.5222 23.6653C30.3079 23.8796 30.0172 24.0001 29.714 24.0001ZM29.714 19.4291H28.571C28.2679 19.4291 27.9771 19.3086 27.7628 19.0943C27.5484 18.8799 27.428 18.5892 27.428 18.2861C27.428 17.9829 27.5484 17.6922 27.7628 17.4778C27.9771 17.2635 28.2679 17.1431 28.571 17.1431H29.714C29.8641 17.1431 30.0127 17.1726 30.1514 17.2301C30.2901 17.2875 30.4161 17.3717 30.5222 17.4778C30.6284 17.584 30.7126 17.71 30.77 17.8487C30.8274 17.9873 30.857 18.136 30.857 18.2861C30.857 18.4362 30.8274 18.5848 30.77 18.7235C30.7126 18.8621 30.6284 18.9882 30.5222 19.0943C30.4161 19.2004 30.2901 19.2846 30.1514 19.3421C30.0127 19.3995 29.8641 19.4291 29.714 19.4291ZM29.714 14.8571H28.571C28.2679 14.8571 27.9771 14.7366 27.7628 14.5223C27.5484 14.3079 27.428 14.0172 27.428 13.7141C27.428 13.4109 27.5484 13.1202 27.7628 12.9058C27.9771 12.6915 28.2679 12.5711 28.571 12.5711H29.714C29.8641 12.5711 30.0127 12.6006 30.1514 12.6581C30.2901 12.7155 30.4161 12.7997 30.5222 12.9058C30.6284 13.012 30.7126 13.138 30.77 13.2767C30.8274 13.4153 30.857 13.564 30.857 13.7141C30.857 13.8642 30.8274 14.0128 30.77 14.1515C30.7126 14.2901 30.6284 14.4162 30.5222 14.5223C30.4161 14.6284 30.2901 14.7126 30.1514 14.7701C30.0127 14.8275 29.8641 14.8571 29.714 14.8571Z" fill="#0033A0"/>
</g>
</g>
<defs>
<clipPath id="clip0_551_5403">
<rect width="32" height="32" fill="white"/>
</clipPath>
</defs>
</svg>
