<svg width="32" height="32" viewBox="0 0 32 32" fill="none" xmlns="http://www.w3.org/2000/svg">
<path d="M12.2808 28.626V31.4376C12.2808 31.5867 12.2215 31.7297 12.1161 31.8352C12.0106 31.9406 11.8676 31.9999 11.7185 31.9999H3.8461C3.69697 31.9999 3.55394 31.9406 3.44849 31.8352C3.34303 31.7297 3.28379 31.5867 3.28379 31.4376V28.626C3.28379 27.433 3.75774 26.2887 4.60137 25.4451C5.445 24.6015 6.58921 24.1275 7.78228 24.1275C8.97535 24.1275 10.1196 24.6015 10.9632 25.4451C11.8068 26.2887 12.2808 27.433 12.2808 28.626ZM28.0255 28.626V31.4376C28.0255 31.5867 27.9662 31.7297 27.8608 31.8352C27.7553 31.9406 27.6123 31.9999 27.4632 31.9999H19.5908C19.4417 31.9999 19.2987 31.9406 19.1932 31.8352C19.0877 31.7297 19.0285 31.5867 19.0285 31.4376V28.626C19.0285 27.433 19.5024 26.2887 20.3461 25.4451C21.1897 24.6015 22.3339 24.1275 23.527 24.1275C24.7201 24.1275 25.8643 24.6015 26.7079 25.4451C27.5515 26.2887 28.0255 27.433 28.0255 28.626ZM3.28379 18.5044C2.85905 18.5048 2.44289 18.3848 2.08347 18.1585C1.72405 17.9322 1.43606 17.6087 1.25282 17.2256C1.06958 16.8424 0.998572 16.4152 1.04802 15.9933C1.09748 15.5715 1.26536 15.1722 1.53226 14.8418C1.79916 14.5114 2.15415 14.2633 2.55617 14.1263C2.95819 13.9892 3.3908 13.9688 3.80394 14.0673C4.21708 14.1659 4.59388 14.3794 4.89072 14.6832C5.18756 14.987 5.39232 15.3687 5.4813 15.784C4.47678 16.3854 3.74709 17.3556 3.44798 18.4876C3.39288 18.4921 3.34002 18.5044 3.28379 18.5044ZM11.1561 19.629C11.1561 20.5239 10.8007 21.382 10.168 22.0147C9.53524 22.6475 8.67708 23.0029 7.78228 23.0029C6.88747 23.0029 6.02932 22.6475 5.3966 22.0147C4.76387 21.382 4.40841 20.5239 4.40841 19.629C4.40841 18.7342 4.76387 17.8761 5.3966 17.2434C6.02932 16.6106 6.88747 16.2552 7.78228 16.2552C8.67708 16.2552 9.53524 16.6106 10.168 17.2434C10.8007 17.8761 11.1561 18.7342 11.1561 19.629ZM27.8602 18.4876C27.5611 17.3556 26.8314 16.3854 25.8268 15.784C25.9158 15.3687 26.1205 14.9871 26.4173 14.6833C26.7141 14.3796 27.0908 14.166 27.5039 14.0674C27.917 13.9688 28.3496 13.9892 28.7516 14.1261C29.1536 14.2631 29.5086 14.5111 29.7755 14.8414C30.0425 15.1717 30.2105 15.5708 30.26 15.9926C30.3096 16.4144 30.2388 16.8416 30.0557 17.2248C29.8726 17.608 29.5848 17.9315 29.2255 18.158C28.8662 18.3845 28.4502 18.5046 28.0255 18.5044C27.9692 18.5044 27.9164 18.4921 27.8602 18.4876ZM23.527 16.2552C24.4218 16.2552 25.28 16.6106 25.9127 17.2434C26.5454 17.8761 26.9009 18.7342 26.9009 19.629C26.9009 20.5239 26.5454 21.382 25.9127 22.0147C25.28 22.6475 24.4218 23.0029 23.527 23.0029C22.6322 23.0029 21.774 22.6475 21.1413 22.0147C20.5086 21.382 20.1531 20.5239 20.1531 19.629C20.1531 18.7342 20.5086 17.8761 21.1413 17.2434C21.774 16.6106 22.6322 16.2552 23.527 16.2552ZM12.8667 0.21582C9.99666 3.09935 8.32997 7.15699 7.98471 12.1829C5.39133 10.3959 2.82719 10.6399 0.294544 13.0792C0.175335 13.194 -0.0282222 13.0961 0.00326723 12.933C1.23023 6.45635 6.36413 1.36518 12.8667 0.21582ZM31.0159 13.0792C28.4821 10.6399 25.9179 10.3948 23.3257 12.1829C22.9793 7.15811 21.3137 3.10048 18.4437 0.21582C24.9463 1.36518 30.079 6.45635 31.3083 12.933C31.3386 13.0961 31.1351 13.194 31.0159 13.0792ZM16.7793 12.8195V22.4406C16.7793 22.5897 16.72 22.7328 16.6146 22.8382C16.5091 22.9437 16.3661 23.0029 16.2169 23.0029H15.0923C14.9432 23.0029 14.8002 22.9437 14.6947 22.8382C14.5893 22.7328 14.53 22.5897 14.53 22.4406V12.8195C14.9079 12.7475 15.2835 12.7025 15.6546 12.7025C16.0269 12.7025 16.4014 12.7475 16.7793 12.8195Z" fill="#0033A0"/>
<path d="M21.4093 13.1749C17.5732 10.2959 13.7372 10.2959 9.89994 13.1749C9.78636 13.2604 9.61991 13.1772 9.62554 13.0344C9.85833 7.11211 11.8703 2.72159 15.6546 0C19.439 2.72159 21.4509 7.11211 21.6837 13.0355C21.6894 13.1772 21.5229 13.2604 21.4093 13.1749Z" fill="#0033A0"/>
</svg>
