<svg width="32" height="32" viewBox="0 0 32 32" fill="none" xmlns="http://www.w3.org/2000/svg">
<path fill-rule="evenodd" clip-rule="evenodd" d="M13.0786 9.43038C12.7934 9.14516 12.7934 8.68265 13.0786 8.39737C13.3639 8.11215 13.8263 8.11215 14.1116 8.39737L15.2295 9.51521L17.93 6.78999C18.2137 6.50477 18.6749 6.50343 18.9601 6.78712C19.2454 7.0708 19.2466 7.53204 18.963 7.81725C17.5683 9.22592 17.1485 9.66453 15.7471 11.0659C15.4619 11.3511 14.9994 11.3511 14.7141 11.0659L13.0786 9.43038ZM25.1632 26.4054C26.7081 26.4054 27.9605 27.6578 27.9605 29.2027C27.9605 30.7476 26.7081 32 25.1632 32C23.6183 32 22.3659 30.7476 22.3659 29.2027C22.3658 27.6578 23.6183 26.4054 25.1632 26.4054ZM21.4704 22.2636L22.0408 23.3871C22.1866 23.6763 22.0426 24.0258 21.7383 24.1308L21.1159 24.3731L21.5472 25.4815C21.5724 25.5467 21.5845 25.6162 21.5828 25.6861C21.5811 25.756 21.5657 25.8248 21.5374 25.8887C21.5092 25.9527 21.4686 26.0104 21.418 26.0586C21.3674 26.1068 21.3078 26.1446 21.2426 26.1698C21.1774 26.195 21.1079 26.2071 21.038 26.2055C20.9681 26.2038 20.8993 26.1884 20.8353 26.1601C20.7714 26.1318 20.7137 26.0912 20.6655 26.0406C20.6173 25.99 20.5795 25.9304 20.5543 25.8652L19.9305 24.2621C19.9053 24.1969 19.8932 24.1274 19.8949 24.0575C19.8965 23.9877 19.9119 23.9188 19.9402 23.8549C19.9685 23.791 20.0091 23.7332 20.0597 23.685C20.1103 23.6368 20.1699 23.599 20.2351 23.5738L20.8244 23.3443L20.2758 22.2637H19.1008C18.1444 22.704 17.4665 23.3551 17.1347 24.1058H17.748C18.4319 24.1058 18.9895 24.6634 18.9895 25.3473V25.7032C18.9895 26.3871 18.4319 26.9448 17.748 26.9448H16.9033V27.7672C16.9033 28.3249 17.358 28.7796 17.9156 28.7796H21.3209C21.5318 26.8443 23.172 25.3375 25.1633 25.3375C27.1546 25.3375 28.7948 26.8442 29.0056 28.7796H31.6128V22.2637H21.4704V22.2636ZM31.6127 21.1956H23.1527C26.9017 19.6293 26.4955 15.6473 30.3543 15.6473H31.6127V21.1956ZM16.9033 25.8767C16.9033 25.6425 16.9018 25.4078 16.9034 25.1737H17.748C17.8424 25.1737 17.9216 25.2529 17.9216 25.3473V25.7032C17.9216 25.7976 17.8424 25.8767 17.748 25.8767L16.9033 25.8767ZM25.1632 28.0565C24.5302 28.0565 24.017 28.5697 24.017 29.2027C24.017 29.8357 24.5302 30.3489 25.1632 30.3489C25.7963 30.3489 26.3094 29.8357 26.3094 29.2027C26.3094 28.5697 25.7963 28.0565 25.1632 28.0565ZM6.44948 26.4054C4.90458 26.4054 3.65217 27.6578 3.65217 29.2027C3.65217 30.7476 4.90458 32 6.44948 32C7.99439 32 9.2468 30.7476 9.2468 29.2027C9.24687 27.6578 7.99439 26.4054 6.44948 26.4054ZM10.1423 22.2636L9.57193 23.3871C9.42609 23.6763 9.57006 24.0258 9.87437 24.1308L10.4968 24.3731L10.0656 25.4815C10.0404 25.5467 10.0283 25.6162 10.03 25.6861C10.0316 25.756 10.047 25.8248 10.0753 25.8887C10.1036 25.9527 10.1442 26.0104 10.1948 26.0586C10.2454 26.1068 10.305 26.1446 10.3702 26.1698C10.4354 26.195 10.5049 26.2071 10.5748 26.2055C10.6446 26.2038 10.7135 26.1884 10.7774 26.1601C10.8413 26.1318 10.8991 26.0912 10.9473 26.0406C10.9955 25.99 11.0333 25.9304 11.0585 25.8652L11.6823 24.2621C11.7075 24.1969 11.7196 24.1274 11.7179 24.0575C11.7163 23.9877 11.7008 23.9188 11.6726 23.8549C11.6443 23.791 11.6037 23.7332 11.5531 23.685C11.5025 23.6368 11.4429 23.599 11.3777 23.5738L10.7884 23.3443L11.337 22.2637H12.512C13.4683 22.704 14.1463 23.3551 14.478 24.1058H13.8648C13.1808 24.1058 12.6232 24.6634 12.6232 25.3473V25.7032C12.6232 26.3871 13.1808 26.9448 13.8648 26.9448H14.7095V27.7672C14.7095 28.3249 14.2548 28.7796 13.6972 28.7796H10.2919C10.081 26.8443 8.44081 25.3375 6.44948 25.3375C4.45816 25.3375 2.81801 26.8442 2.60715 28.7796H0V22.2637H10.1423V22.2636ZM0 21.1956H8.46003C4.71101 19.6293 5.11724 15.6473 1.25842 15.6473H0V21.1956ZM14.7094 25.8767C14.7094 25.6425 14.7109 25.4078 14.7093 25.1737H13.8647C13.7703 25.1737 13.6911 25.2529 13.6911 25.3473V25.7032C13.6911 25.7976 13.7703 25.8767 13.8647 25.8767L14.7094 25.8767ZM6.44948 28.0565C7.08253 28.0565 7.5957 28.5697 7.5957 29.2027C7.5957 29.8357 7.08253 30.3489 6.44948 30.3489C5.81644 30.3489 5.30327 29.8357 5.30327 29.2027C5.30327 28.5697 5.8165 28.0565 6.44948 28.0565ZM16.2038 0.0391983C16.0818 -0.0130661 15.9576 -0.0130661 15.8357 0.0391983L8.79598 3.05618C8.62043 3.13141 8.51276 3.29461 8.51276 3.48565V9.24768C8.51276 13.7032 11.7028 17.1424 16.0197 17.8949C20.3365 17.1423 23.5267 13.7031 23.5267 9.24768V3.48558C23.5267 3.29454 23.4191 3.13141 23.2435 3.05612L16.2038 0.0391983ZM16.0197 3.63804C13.0985 3.63804 10.7303 6.00629 10.7303 8.92756C10.7303 11.8488 13.0985 14.2171 16.0197 14.2171C18.941 14.2171 21.3093 11.8488 21.3093 8.92756C21.3093 6.00629 18.941 3.63804 16.0197 3.63804Z" fill="#0033A0"/>
</svg>
