<svg width="105" height="112" viewBox="0 0 105 112" fill="none" xmlns="http://www.w3.org/2000/svg">
<path d="M68.9427 18.3227C66.2308 16.4969 63.3041 14.9395 60.1895 13.7581" stroke="#6685C6" stroke-width="0.537515" stroke-miterlimit="10" stroke-linecap="round" stroke-linejoin="round"/>
<path d="M87.2821 58.0618C87.121 59.5117 86.8793 60.9616 86.584 62.3847" stroke="#6685C6" stroke-width="0.537515" stroke-miterlimit="10" stroke-linecap="round" stroke-linejoin="round"/>
<path d="M85.403 66.6809C84.9197 68.1576 84.3558 69.5807 83.7383 70.9769" stroke="#6685C6" stroke-width="0.537515" stroke-miterlimit="10" stroke-linecap="round" stroke-linejoin="round"/>
<path d="M4.66276 40.8773C3.42762 44.8244 2.7832 49.0399 2.7832 53.3898C2.7832 58.0081 3.50818 62.4385 4.87757 66.6003" stroke="#6685C6" stroke-width="0.537515" stroke-miterlimit="10" stroke-linecap="round" stroke-linejoin="round"/>
<path d="M15.2953 23.3438C11.4825 27.1566 8.36778 31.6675 6.21973 36.7154" stroke="#6685C6" stroke-width="0.537515" stroke-miterlimit="10" stroke-linecap="round" stroke-linejoin="round"/>
<path d="M84.1142 82.7646C83.4161 74.9242 79.8181 66.332 74.5822 60.7202C69.3463 55.1084 61.6939 54.4371 61.6939 54.4371L61.9087 56.1824C63.0901 56.5583 63.9225 58.1425 64.6743 59.8073C65.4261 61.472 65.3456 63.8617 65.3187 65.6607C65.2918 67.4597 64.2984 73.6891 62.8216 76.1862C61.3448 78.6833 60.3782 77.3139 57.9616 75.0316C55.545 72.7762 54.3368 70.8966 54.3368 70.8966L53.4238 72.0244C53.4238 72.0244 49.4231 78.8981 48.7518 80.1333C48.0805 81.3953 45.9862 81.3147 40.079 77.2334C34.1987 73.1521 28.9091 67.2718 28.8286 67.0033C28.7212 66.7079 28.9091 61.2841 28.9091 61.2841L29.3656 53.739L28.6675 53.8733C24.3713 53.6585 19.028 56.8537 19.028 56.8537C7.34798 62.6266 2.46114 76.5084 1.19916 85.3692C-0.0359771 94.2299 4.87771 100.835 4.87771 100.835C4.87771 100.835 20.5854 106.957 33.4737 108.514C46.3889 110.045 79.2005 105.937 79.2005 105.937L77.3478 85.0201C82.1273 84.7516 84.1142 82.7646 84.1142 82.7646ZM63.8688 96.6733L63.0095 97.6668C63.0095 97.6668 64.0836 98.6603 63.2512 100.11C62.4188 101.56 62.4188 101.56 62.4188 101.56C62.4188 101.56 62.9827 102.339 62.204 103.305C60.593 104.863 58.3912 105.722 56.0015 105.722C54.0414 105.722 51.1684 105.292 48.8055 104.648C45.7714 103.816 44.5631 101.668 44.1872 98.6066C43.7576 95.1965 44.6168 92.2429 46.0399 91.6522C47.0333 91.2226 54.7664 87.9468 57.2098 87.4635C59.5458 87.0071 60.0828 88.8061 58.606 90.2023C58.2838 90.4977 57.5857 91.1152 57.3172 91.33C56.9144 91.6791 57.2903 92.0281 57.4514 92.1355C58.606 92.78 60.3782 92.8874 62.5262 92.0013C62.5262 92.0013 63.2512 91.4911 63.7882 91.6791C64.3252 91.867 64.5669 93.0216 63.9225 93.666C63.9225 93.6123 65.2382 94.579 63.8688 96.6733Z" fill="#E5EBF5"/>
<path fill-rule="evenodd" clip-rule="evenodd" d="M23.9401 41.2266C24.2086 38.1387 27.0313 33.984 28.9109 32.5072C30.6186 32.1587 32.3535 31.4754 34.0616 30.6382C33.8761 32.0019 33.4477 34.0941 32.4787 35.6145C30.9213 38.058 29.7936 37.7895 29.7936 37.7895C29.7936 37.7895 28.2631 35.7756 26.3567 37.682C24.4503 39.5884 26.2493 42.193 26.7595 42.6226C27.2965 43.0253 28.5048 43.9114 30.1695 43.5624L29.7399 49.3084C29.7399 49.3084 26.0708 45.3128 23.8184 41.1398L23.9401 41.2266ZM39.2501 27.7257C38.5427 28.3581 37.8241 28.7492 37.1313 28.9833C37.8503 28.5675 38.558 28.1433 39.2501 27.7257Z" fill="#1A47A9"/>
<path d="M45.4217 44.0188C45.4217 44.0188 46.9254 44.7438 48.8049 45.066C50.6844 45.3882 51.5436 45.0123 51.4094 45.3882C51.2751 45.7641 50.0937 47.5362 49.4493 47.7242C48.8317 47.9121 47.0328 48.3149 46.1199 47.1871C45.2338 46.0326 45.019 44.9854 45.4217 44.0188Z" fill="#0033A0"/>
<path d="M51.651 32.8757C51.7047 33.0637 51.7584 33.2516 51.8121 33.4396C52.1343 33.1174 52.4834 32.7683 52.8056 32.4461H52.7787C52.8324 32.473 52.913 32.4998 52.9667 32.5267C52.9667 32.5267 52.9398 32.5267 52.9398 32.4998C52.9935 32.5535 53.0472 32.5804 53.1009 32.6341L53.0741 32.6072C53.1278 32.6609 53.1546 32.7146 53.2083 32.7683C53.2083 32.7683 53.1815 32.7415 53.1815 32.7146C53.2083 32.7683 53.2352 32.8489 53.262 32.9026C53.262 32.8757 53.262 32.8757 53.2352 32.8489C53.2352 32.9294 53.262 32.9831 53.262 33.0637C53.262 33.0368 53.262 33.0368 53.262 33.01C53.262 33.0905 53.2352 33.1442 53.2352 33.2248C53.2352 33.1979 53.2352 33.1979 53.2352 33.1979C53.2083 33.2516 53.1815 33.3322 53.1546 33.3859C53.1546 33.3859 53.1546 33.359 53.1815 33.359C53.1278 33.4127 53.1009 33.4664 53.0472 33.5201C53.0472 33.5201 53.0472 33.5201 53.0741 33.4933C53.1546 33.4127 53.2083 33.3322 53.2352 33.2248C53.2889 33.1174 53.3157 33.0368 53.3157 32.9026C53.3157 32.7952 53.2889 32.6878 53.2352 32.5804C53.2083 32.473 53.1546 32.3924 53.0741 32.3119C53.0204 32.2582 52.9667 32.2313 52.913 32.1776C52.7787 32.0971 52.6445 32.0702 52.5102 32.0702C52.4297 32.0702 52.376 32.0971 52.2954 32.0971C52.1612 32.1239 52.0537 32.2045 51.9463 32.3119C51.9195 32.3387 51.8926 32.3924 51.8658 32.4193C51.8389 32.4461 51.8121 32.473 51.7852 32.5267C51.7584 32.5804 51.7315 32.6609 51.7047 32.7146V32.7415C51.7047 32.7683 51.6778 32.8489 51.6778 32.8489C51.6778 32.8757 51.6778 32.9294 51.651 32.9563V32.9831C51.651 33.0368 51.6778 33.1442 51.6778 33.1979V33.2248V33.2516C51.7047 33.3053 51.7315 33.3859 51.7584 33.4396C51.7584 33.4396 51.7584 33.4664 51.7852 33.4664C51.8121 33.5201 51.8658 33.6007 51.9195 33.6275C51.9464 33.6544 52 33.6812 52.0269 33.7081C52.0537 33.7349 52.0806 33.7618 52.1343 33.7886C52.188 33.8155 52.2686 33.8423 52.3223 33.8692H52.3491C52.4833 33.896 52.6445 33.896 52.7787 33.8692C52.913 33.8423 53.0204 33.7618 53.1278 33.6544C53.3157 33.4664 53.4231 33.1442 53.3426 32.8757C53.2889 32.6878 53.2352 32.4998 53.1815 32.3119C53.1546 32.2045 53.1009 32.1239 53.0472 32.0434C52.9935 31.9628 52.913 31.8823 52.8324 31.8286C52.7519 31.7749 52.6445 31.748 52.5371 31.7212C52.4297 31.6943 52.3222 31.6943 52.2148 31.748C52.1611 31.7749 52.0806 31.8017 52.0269 31.8286C51.8926 31.9091 51.8121 31.9897 51.7315 32.1239C51.7047 32.1776 51.6778 32.2582 51.651 32.3119C51.6241 32.5804 51.6241 32.7146 51.651 32.8757Z" fill="#0033A0"/>
<path d="M44.3737 34.6748C44.4274 34.8628 44.4811 35.0507 44.5348 35.2387C44.857 34.9165 45.206 34.5674 45.5282 34.2452H45.5014C45.5551 34.272 45.6356 34.2989 45.6893 34.3257C45.6893 34.3257 45.6625 34.3257 45.6625 34.2989C45.7162 34.3526 45.7699 34.3794 45.8236 34.4331L45.7967 34.4063C45.8504 34.46 45.8773 34.5137 45.931 34.5674C45.931 34.5674 45.9041 34.5405 45.9041 34.5137C45.931 34.5674 45.9578 34.648 45.9847 34.7017C45.9847 34.6748 45.9847 34.6748 45.9578 34.6479C45.9578 34.7285 45.9847 34.7822 45.9847 34.8627C45.9847 34.8359 45.9847 34.8359 45.9847 34.8091C45.9847 34.8896 45.9578 34.9433 45.9578 35.0239C45.9578 34.997 45.9578 34.997 45.9578 34.997C45.931 35.0507 45.9041 35.1313 45.8773 35.185C45.8773 35.185 45.8773 35.1581 45.9041 35.1581C45.8504 35.2118 45.8236 35.2655 45.7699 35.3192C45.7699 35.3192 45.7699 35.3192 45.7967 35.2924C45.8773 35.2118 45.931 35.1313 45.9578 35.0239C46.0115 34.9165 46.0384 34.8359 46.0384 34.7017C46.0384 34.5943 46.0115 34.4868 45.9578 34.3794C45.931 34.272 45.8773 34.1915 45.7967 34.1109C45.743 34.0572 45.6893 34.0304 45.6356 33.9767C45.5014 33.8961 45.3671 33.8693 45.2329 33.8693C45.1523 33.8693 45.0986 33.8961 45.0181 33.8961C44.8838 33.923 44.7764 34.0035 44.669 34.1109C44.6422 34.1378 44.6153 34.1915 44.5885 34.2183C44.5616 34.2452 44.5348 34.272 44.5079 34.3257C44.4811 34.3794 44.4542 34.46 44.4273 34.5137V34.5405C44.4273 34.5674 44.4005 34.6479 44.4005 34.6479C44.4005 34.6748 44.4005 34.7285 44.3737 34.7553V34.7822C44.3737 34.8359 44.4005 34.9433 44.4005 34.997V35.0239V35.0507C44.4274 35.1044 44.4542 35.185 44.4811 35.2387C44.4811 35.2387 44.4811 35.2655 44.5079 35.2655C44.5348 35.3192 44.5885 35.3998 44.6422 35.4266C44.669 35.4535 44.7227 35.4803 44.7496 35.5072C44.7764 35.534 44.8033 35.5609 44.857 35.5877C44.9107 35.6146 44.9912 35.6414 45.0449 35.6683H45.0718C45.206 35.6951 45.3671 35.6951 45.5014 35.6683C45.6356 35.6414 45.743 35.5609 45.8504 35.4535C46.0384 35.2655 46.1458 34.9433 46.0652 34.6748C46.0115 34.4868 45.9578 34.2989 45.9041 34.1109C45.8773 34.0035 45.8236 33.923 45.7699 33.8424C45.7162 33.7619 45.6356 33.6813 45.5551 33.6276C45.4745 33.5739 45.3671 33.5471 45.2597 33.5202C45.1523 33.4934 45.0449 33.4934 44.9375 33.5471C44.8838 33.5739 44.8033 33.6008 44.7496 33.6276C44.6153 33.7082 44.5348 33.7887 44.4542 33.923C44.4274 33.9767 44.4005 34.0572 44.3737 34.1109C44.3468 34.4063 44.3468 34.5405 44.3737 34.6748Z" fill="#0033A0"/>
<path d="M61.3984 54.4635C61.3984 54.4635 80.8115 54.4635 84.3021 84.2678" stroke="#0033A0" stroke-width="0.537515" stroke-miterlimit="10" stroke-linecap="round" stroke-linejoin="round"/>
<path d="M33.8757 31.023C33.8757 31.023 34.4127 35.1848 30.0361 37.7893" stroke="#0033A0" stroke-width="0.537515" stroke-miterlimit="10" stroke-linecap="round" stroke-linejoin="round"/>
<path d="M30.7081 38.8903C30.7081 38.8903 29.7146 36.3126 27.4054 36.9839C25.0963 37.6552 25.1768 41.1458 26.7341 42.5957C28.2915 44.0456 30.1442 43.5355 30.1442 43.5355C30.1442 43.5355 28.9628 58.6793 29.0165 59.1089C29.097 59.5117 35.031 66.278 44.2945 69.0705C53.558 71.863 54.4709 70.9501 55.3033 70.3862C56.7532 69.3927 60.9957 63.942 62.0965 59.0015C62.0965 59.0015 59.7068 41.6022 59.3041 40.9041C58.9013 40.206 63.7613 37.1182 62.4187 35.6682C61.0762 34.2183 58.928 34.3525 57.1022 26.8612" stroke="#0033A0" stroke-width="0.537515" stroke-miterlimit="10" stroke-linecap="round" stroke-linejoin="round"/>
<path d="M53.1553 43.5893C53.1553 43.5893 50.5777 44.4485 48.3222 43.5624C45.6909 42.5421 45.4224 43.0523 45.2344 44.2605C45.0465 45.4688 45.4761 47.5631 47.8389 47.8853C50.6045 48.2612 51.8396 45.4151 51.598 43.8041" stroke="#0033A0" stroke-width="0.537515" stroke-miterlimit="10" stroke-linecap="round" stroke-linejoin="round"/>
<path d="M45.2607 45.4957C45.2607 45.4957 48.4291 44.8782 49.2614 47.778" stroke="#0033A0" stroke-width="0.537515" stroke-miterlimit="10" stroke-linecap="round" stroke-linejoin="round"/>
<path d="M43.8646 28.4185C43.8646 28.4185 42.5221 28.2574 40.4814 30.298" stroke="#0033A0" stroke-width="0.537515" stroke-miterlimit="10" stroke-linecap="round" stroke-linejoin="round"/>
<path d="M50.1211 26.8344C50.5775 26.6733 51.4905 26.3511 52.7524 26.8613" stroke="#0033A0" stroke-width="0.537515" stroke-miterlimit="10" stroke-linecap="round" stroke-linejoin="round"/>
<path d="M26.5459 61.0691C26.17 62.2237 28.6402 67.6475 34.4132 72.7223C41.9314 79.3544 47.758 82.0932 48.7514 80.1331C49.7449 78.173 54.041 70.9502 54.041 70.9502C54.041 70.9502 58.0149 75.2463 59.9482 76.9916C61.8814 78.7369 63.6268 76.4009 64.9424 68.641C66.285 60.8811 63.8684 57.0415 61.6935 56.1286" stroke="#0033A0" stroke-width="0.537515" stroke-miterlimit="10" stroke-linecap="round" stroke-linejoin="round"/>
<path d="M39.7029 84.0532C39.7029 84.0532 32.9902 84.5097 27.2979 84.0532" stroke="#6685C6" stroke-width="0.537515" stroke-miterlimit="10" stroke-linecap="round" stroke-linejoin="round"/>
<path d="M27.835 39.9376C27.835 39.9376 29.3386 39.6422 29.6071 41.4412" stroke="#0033A0" stroke-width="0.537515" stroke-miterlimit="10" stroke-linecap="round" stroke-linejoin="round"/>
<path d="M79.2534 106.93C78.7701 94.74 77.4275 78.4416 73.5879 71.1382" stroke="#0033A0" stroke-width="0.537515" stroke-miterlimit="10" stroke-linecap="round" stroke-linejoin="round"/>
<path d="M29.3653 53.8999C29.3653 53.8999 20.7194 53.3897 11.5096 62.3042C1.25262 72.2389 -16.5494 119.04 45.6637 105.507" stroke="#0033A0" stroke-width="0.537515" stroke-miterlimit="10" stroke-linecap="round" stroke-linejoin="round"/>
<path d="M24.0762 41.2263C25.8214 45.2539 29.6612 49.6573 29.6612 49.6573" stroke="#0033A0" stroke-width="0.537515" stroke-miterlimit="10" stroke-linecap="round" stroke-linejoin="round"/>
<path d="M54.0682 70.95C54.0682 70.95 53.3164 73.125 53.6117 74.8434C53.9071 76.5888 54.7663 80.348 54.7663 80.348" stroke="#0033A0" stroke-width="0.537515" stroke-miterlimit="10" stroke-linecap="round" stroke-linejoin="round"/>
<path d="M71.0026 86.3575C72.8577 85.8331 73.907 83.8001 73.3464 81.8166C72.7857 79.833 70.8273 78.6501 68.9722 79.1745C67.1171 79.6989 66.0678 81.7319 66.6284 83.7154C67.1891 85.699 69.1475 86.8818 71.0026 86.3575Z" fill="#6685C6"/>
<path d="M64.1117 93.3165C63.3868 94.6322 61.2924 96.0553 58.4463 95.7062" stroke="#0033A0" stroke-width="0.537515" stroke-miterlimit="10" stroke-linecap="round" stroke-linejoin="round"/>
<path d="M64.0577 96.297C64.0577 96.297 62.393 99.707 59.1709 99.4653" stroke="#0033A0" stroke-width="0.537515" stroke-miterlimit="10" stroke-linecap="round" stroke-linejoin="round"/>
<path d="M62.1776 103.278C60.5666 104.836 58.3648 105.695 55.9751 105.695C54.015 105.695 51.142 105.265 48.7791 104.621C45.745 103.788 44.5367 101.64 44.1608 98.5794C43.7312 95.1694 44.5904 92.2158 46.0135 91.6251C47.007 91.1955 54.74 87.8929 57.1834 87.4364C59.5194 86.9799 60.0564 88.7789 58.5796 90.1752C58.2574 90.4705 57.5593 91.0881 57.2908 91.3029C56.8881 91.652 57.264 92.001 57.4251 92.1084C58.5797 92.7528 60.3518 92.8602 62.4999 91.9742" stroke="#0033A0" stroke-width="0.537515" stroke-miterlimit="10" stroke-linecap="round" stroke-linejoin="round"/>
<path d="M59.4121 102.58C59.4121 102.58 61.3453 102.58 62.2851 101.533C63.198 100.512 63.2517 99.9754 63.2517 99.9754" stroke="#0033A0" stroke-width="0.537515" stroke-miterlimit="10" stroke-linecap="round" stroke-linejoin="round"/>
<path d="M47.2479 90.954C47.2479 90.954 32.3995 84.9394 16.1816 86.2551" stroke="#0033A0" stroke-width="0.537515" stroke-miterlimit="10" stroke-linecap="round" stroke-linejoin="round"/>
<path d="M42.2537 106.151C42.2537 106.151 41.1259 85.53 36.7761 70.9232C32.6679 57.1219 26.6265 52.9063 25.6062 52.5573C24.6127 52.2082 15.9131 54.1415 16.5307 58.008C16.5307 58.008 17.7658 57.2293 18.8398 59.0015C19.9407 60.8005 14.9465 98.3378 4.9043 100.835C4.9043 100.835 7.0255 104.675 12.7716 107.548C22.4915 112.408 33.6614 112.3 42.2537 106.151Z" fill="#6685C6"/>
<path d="M12.7715 107.548C22.4914 112.408 33.6614 112.3 42.2536 106.178C42.2536 106.178 41.1259 85.557 36.776 70.9502C32.6679 57.1489 26.6265 52.9333 25.6061 52.5843" stroke="#0033A0" stroke-width="0.537515" stroke-miterlimit="10" stroke-linecap="round" stroke-linejoin="round"/>
<path d="M16.96 109.293C16.96 109.293 24.9883 105.051 25.4985 82.5228" stroke="#0033A0" stroke-width="0.537515" stroke-miterlimit="10" stroke-linecap="round" stroke-linejoin="round"/>
<path d="M33.93 87.1144C33.93 87.1144 33.7152 71.5678 27.2441 61.2839" stroke="#0033A0" stroke-width="0.537515" stroke-miterlimit="10" stroke-linecap="round" stroke-linejoin="round"/>
<path d="M60.4842 20.6318C60.2157 19.9874 59.7592 18.9939 58.9269 17.1144C57.0473 12.8451 53.2614 6.64259 45.7432 4.62878" stroke="#0033A0" stroke-width="0.537515" stroke-miterlimit="10" stroke-linecap="round" stroke-linejoin="round"/>
<path d="M21.3362 13.9998C19.0001 17.6784 17.8187 21.7865 17.3891 25.2503C17.1743 27.3446 17.6845 30.3788 19.0538 34.0842C20.101 36.9572 22.1417 43.0255 24.8267 42.7301L24.0749 41.4681C24.0749 41.4681 23.7259 37.897 28.908 32.7685" stroke="#0033A0" stroke-width="0.537515" stroke-miterlimit="10" stroke-linecap="round" stroke-linejoin="round"/>
<path d="M54.4166 17.5977C54.4166 17.5977 47.4086 3.8501 41.0718 1.35299C36.9636 -0.258055 27.5122 3.8501 22.2494 9.5156C20.6115 11.2878 21.4439 13.7849 21.4439 13.7849C26.277 7.36755 30.7611 5.91761 30.7611 5.91761C30.7611 5.91761 34.4397 3.31309 42.0653 18.9939C42.0921 18.9939 48.8585 16.2283 54.4166 17.5977Z" stroke="#0033A0" stroke-width="0.537515" stroke-miterlimit="10" stroke-linecap="round" stroke-linejoin="round"/>
<path d="M63.6534 24.2031C64.083 25.7067 62.5794 27.1567 57.5046 27.5594C57.5046 27.5594 54.8732 21.0347 44.6699 25.0355" stroke="#0033A0" stroke-width="0.537515" stroke-miterlimit="10" stroke-linecap="round" stroke-linejoin="round"/>
<path d="M25.6318 30.7009C25.6318 30.7009 26.3837 33.0101 28.9076 32.661C32.9084 32.0971 33.4186 30.9694 43.4339 25.5993C53.7446 20.0949 61.585 19.1014 63.6256 24.0956" stroke="#0033A0" stroke-width="0.537515" stroke-miterlimit="10" stroke-linecap="round" stroke-linejoin="round"/>
<path d="M62.579 22.5112C62.579 22.5112 60.6994 20.2826 56.7256 18.3225" stroke="#0033A0" stroke-width="0.537515" stroke-miterlimit="10" stroke-linecap="round" stroke-linejoin="round"/>
<path d="M30.788 12.6304C30.788 12.6304 27.3243 14.5368 25.2031 17.5978" stroke="#6685C6" stroke-width="0.537515" stroke-miterlimit="10" stroke-linecap="round" stroke-linejoin="round"/>
<path d="M32.4794 15.1275C32.4794 15.1275 29.0157 17.0339 26.8945 20.0948" stroke="#6685C6" stroke-width="0.537515" stroke-miterlimit="10" stroke-linecap="round" stroke-linejoin="round"/>
<path d="M52.4824 9.51572C52.4824 9.51572 54.2546 9.56942 55.6508 10.6703" stroke="#6685C6" stroke-width="0.537515" stroke-miterlimit="10" stroke-linecap="round" stroke-linejoin="round"/>
<path d="M53.7451 12.3082C53.7451 12.3082 55.7052 12.3082 57.3162 13.1674" stroke="#6685C6" stroke-width="0.537515" stroke-miterlimit="10" stroke-linecap="round" stroke-linejoin="round"/>
<path d="M45.1535 18.0272C45.1535 18.0272 39.9445 7.04527 35.702 3.95744C32.7753 1.83623 29.5264 3.95744 29.5264 3.95744" stroke="#6685C6" stroke-width="0.537515" stroke-miterlimit="10" stroke-linecap="round" stroke-linejoin="round"/>
<path d="M42.0916 18.9939C42.0916 18.9939 32.8549 21.9744 25.8469 30.4055C21.5239 35.6145 21.4434 39.8838 21.4434 39.8838" stroke="#0033A0" stroke-width="0.537515" stroke-miterlimit="10" stroke-linecap="round" stroke-linejoin="round"/>
<path d="M86.503 19.2359C86.503 19.2359 81.294 21.4914 73.1582 23.7737C73.1582 23.7737 73.1582 33.789 73.1582 37.924C73.1582 42.059 79.307 50.1948 86.503 51.2688C93.699 50.1948 99.8478 42.059 99.8478 37.924C99.8478 33.789 99.8478 23.7737 99.8478 23.7737C91.7121 21.4914 86.503 19.2359 86.503 19.2359ZM87.228 43.0525V45.7107H85.617V43.1331C84.1402 43.1062 82.6097 42.6498 81.7236 42.0053L82.3412 40.2869C83.2541 40.9045 84.5966 41.3878 86.0197 41.3878C87.8456 41.3878 89.0538 40.3406 89.0538 38.8907C89.0538 37.4944 88.0604 36.6083 86.1808 35.8565C83.5763 34.8362 81.9652 33.6548 81.9652 31.453C81.9652 29.3318 83.4689 27.7208 85.8049 27.3448V24.7672H87.3891V27.2374C88.9196 27.2911 89.9668 27.6939 90.6917 28.1235L90.0473 29.8151C89.5103 29.5198 88.4631 28.9559 86.8252 28.9559C84.8651 28.9559 84.1133 30.1373 84.1133 31.1577C84.1133 32.4733 85.0531 33.1446 87.2817 34.0575C89.9131 35.1316 91.2287 36.4472 91.2287 38.7296C91.2824 40.7434 89.8594 42.6229 87.228 43.0525Z" fill="#1A47A9"/>
<path d="M85.8857 55.4037C81.6701 54.7862 77.4546 52.3428 74.0177 48.5568C70.8493 45.0662 68.9697 41.0923 68.9697 37.8971V20.5515L72.0307 19.6923C79.7637 17.5442 84.7848 15.3693 84.8385 15.3425L86.5033 14.6175L88.168 15.3425C88.2217 15.3693 93.2428 17.5174 100.976 19.6654L104.037 20.5247V37.8702C104.037 41.0386 102.157 45.0125 98.9888 48.53C95.5519 52.3159 91.3364 54.7593 87.1208 55.3769L86.5033 55.4574L85.8857 55.4037Z" stroke="#6685C6" stroke-width="0.537515" stroke-miterlimit="10" stroke-linecap="round" stroke-linejoin="round"/>
<path d="M86.5029 19.2359C86.5029 19.2359 91.712 21.4914 99.8477 23.7737C99.8477 23.7737 99.8477 33.789 99.8477 37.924C99.8477 42.059 93.6989 50.1948 86.5029 51.2688" stroke="#0033A0" stroke-width="0.537515" stroke-miterlimit="10" stroke-linecap="round" stroke-linejoin="round"/>
<path d="M87.3354 34.0575C85.0262 33.2425 83.9522 32.0974 84.167 31.1576C84.167 31.1576 83.6837 32.7687 87.3354 34.0575ZM87.3354 34.0575C90.2621 35.1852 91.3361 36.662 91.2825 38.7295C91.2825 38.7295 91.7389 35.6116 87.3354 34.0575ZM87.228 45.7107H85.617V43.133C84.1402 43.1062 82.6097 42.6497 81.7236 42.0053L82.3412 40.2869C83.2541 40.9044 84.5967 41.3878 86.0198 41.3878C87.8187 41.3878 89.0539 40.3406 89.0539 38.8906C89.0539 37.4944 88.0604 36.6083 86.1808 35.8565C83.5763 34.8362 81.9653 33.6547 81.9653 31.453C81.9653 29.3318 83.4689 27.7207 85.8049 27.3448V24.7672H87.3891V27.2374C88.9196 27.2911 89.9668 27.6939 90.6918 28.1235L90.0474 29.8151" stroke="#0033A0" stroke-width="0.537515" stroke-miterlimit="10" stroke-linecap="round" stroke-linejoin="round"/>
<path d="M5.36042 40.9847C6.59123 40.9847 7.589 39.9869 7.589 38.7561C7.589 37.5253 6.59123 36.5275 5.36042 36.5275C4.12961 36.5275 3.13184 37.5253 3.13184 38.7561C3.13184 39.9869 4.12961 40.9847 5.36042 40.9847Z" stroke="#6685C6" stroke-width="0.537515" stroke-miterlimit="10" stroke-linecap="round" stroke-linejoin="round"/>
<path d="M85.9669 66.7345C87.1977 66.7345 88.1954 65.7367 88.1954 64.5059C88.1954 63.2751 87.1977 62.2773 85.9669 62.2773C84.7361 62.2773 83.7383 63.2751 83.7383 64.5059C83.7383 65.7367 84.7361 66.7345 85.9669 66.7345Z" stroke="#6685C6" stroke-width="0.537515" stroke-miterlimit="10" stroke-linecap="round" stroke-linejoin="round"/>
</svg>
