<svg width="104" height="112" viewBox="0 0 104 112" fill="none" xmlns="http://www.w3.org/2000/svg">
<path d="M86.4498 53.4713V80.6552H81.3133V78.4162H80.1279V53.4713H86.4498Z" fill="#99ADD9"/>
<path d="M22.0995 64.7716H18.0957V80.6552" stroke="#6685C6" stroke-width="0.52731" stroke-miterlimit="10" stroke-linecap="round" stroke-linejoin="round"/>
<path d="M82.5518 53.4713H86.4502V80.6552" stroke="#6685C6" stroke-width="0.52731" stroke-miterlimit="10" stroke-linecap="round" stroke-linejoin="round"/>
<path d="M92.5612 80.6551L83.816 108.735C83.2628 108.498 82.6307 108.366 81.7614 108.366C78.1527 108.366 78.1527 111 74.5703 111C70.9616 111 70.9616 108.366 67.3792 108.366C63.7705 108.366 63.7705 111 60.1881 111C56.5794 111 56.5794 108.366 52.997 108.366C52.6283 108.366 52.3122 108.392 51.9961 108.445V80.6551H92.5612Z" fill="#E5EBF5"/>
<path d="M80.1285 46.2803V78.4163H24.7598L24.7598 46.2803" stroke="#0033A0" stroke-width="0.52731" stroke-miterlimit="10" stroke-linecap="round" stroke-linejoin="round"/>
<path d="M30.4492 50.4158V74.2807" stroke="#0033A0" stroke-width="0.52731" stroke-miterlimit="10" stroke-linecap="round" stroke-linejoin="round"/>
<path d="M34.8486 50.4161V74.281" stroke="#6685C6" stroke-width="0.52731" stroke-miterlimit="10" stroke-linecap="round" stroke-linejoin="round"/>
<path d="M39.2471 50.4158V74.2808" stroke="#0033A0" stroke-width="0.52731" stroke-miterlimit="10" stroke-linecap="round" stroke-linejoin="round"/>
<path d="M43.6465 50.4158V74.2808" stroke="#6685C6" stroke-width="0.52731" stroke-miterlimit="10" stroke-linecap="round" stroke-linejoin="round"/>
<path d="M48.0459 52.1017V74.2808" stroke="#0033A0" stroke-width="0.52731" stroke-miterlimit="10" stroke-linecap="round" stroke-linejoin="round"/>
<path d="M52.4443 53.3661V74.2809" stroke="#6685C6" stroke-width="0.52731" stroke-miterlimit="10" stroke-linecap="round" stroke-linejoin="round"/>
<path d="M56.8428 52.1017V74.2808" stroke="#0033A0" stroke-width="0.52731" stroke-miterlimit="10" stroke-linecap="round" stroke-linejoin="round"/>
<path d="M61.2422 50.4158V74.2808" stroke="#6685C6" stroke-width="0.52731" stroke-miterlimit="10" stroke-linecap="round" stroke-linejoin="round"/>
<path d="M65.6406 50.4158V74.2808" stroke="#0033A0" stroke-width="0.52731" stroke-miterlimit="10" stroke-linecap="round" stroke-linejoin="round"/>
<path d="M70.04 50.4158V74.2808" stroke="#6685C6" stroke-width="0.52731" stroke-miterlimit="10" stroke-linecap="round" stroke-linejoin="round"/>
<path d="M74.4395 50.4158V74.2808" stroke="#0033A0" stroke-width="0.52731" stroke-miterlimit="10" stroke-linecap="round" stroke-linejoin="round"/>
<path d="M67.0898 46.2801H81.314V44.0411H69.3288" stroke="#0033A0" stroke-width="0.52731" stroke-miterlimit="10" stroke-linecap="round" stroke-linejoin="round"/>
<path d="M35.375 44.0412H23.6006V46.2802H37.614" stroke="#6685C6" stroke-width="0.52731" stroke-miterlimit="10" stroke-linecap="round" stroke-linejoin="round"/>
<path d="M81.3137 78.4161H23.6006V80.6551H81.3137V78.4161Z" stroke="#0033A0" stroke-width="0.52731" stroke-miterlimit="10" stroke-linecap="round" stroke-linejoin="round"/>
<path d="M2.63379 111C6.2425 111 6.2425 108.366 9.82488 108.366C13.4336 108.366 13.4336 111 17.016 111C20.6247 111 20.6247 108.366 24.2071 108.366C27.8158 108.366 27.8158 111 31.3981 111C35.0069 111 35.0068 108.366 38.5892 108.366C42.1979 108.366 42.1979 111 45.7803 111C49.389 111 49.389 108.366 52.9714 108.366C56.5801 108.366 56.5801 111 60.1625 111C63.7712 111 63.7712 108.366 67.3536 108.366C70.9623 108.366 70.9623 111 74.5447 111C78.1534 111 78.1534 108.366 81.7357 108.366C85.3445 108.366 85.3445 111 88.9268 111C92.5356 111 92.5356 108.366 96.1179 108.366C99.7266 108.366 99.7266 111 103.309 111" stroke="#0033A0" stroke-width="0.52731" stroke-miterlimit="10" stroke-linecap="round" stroke-linejoin="round"/>
<path d="M20.6764 109.683L11.457 80.6551H92.5609L83.8157 108.735" stroke="#6685C6" stroke-width="0.52731" stroke-miterlimit="10" stroke-linecap="round" stroke-linejoin="round"/>
<path d="M13.3799 87.3195H90.6116" stroke="#6685C6" stroke-width="0.52731" stroke-miterlimit="10" stroke-linecap="round" stroke-linejoin="round"/>
<path d="M51.7061 50.521C46.596 49.7572 41.4595 46.807 37.2712 42.1973C33.4255 37.9564 31.1338 33.1097 31.1338 29.2639V8.19109L34.8742 7.13745C44.2516 4.52969 50.389 1.89559 50.4417 1.86925L52.47 1L54.4982 1.86925C54.5509 1.89559 60.662 4.52969 70.0658 7.13745L73.8062 8.19109V29.2639C73.8062 33.1097 71.5145 37.9564 67.6687 42.1973C63.4805 46.807 58.3704 49.7835 53.2339 50.521L52.4963 50.6264L51.7061 50.521Z" stroke="#6685C6" stroke-width="0.52731" stroke-miterlimit="10" stroke-linecap="round" stroke-linejoin="round"/>
<path d="M52.4438 6.5578C52.4438 6.5578 46.122 9.29726 36.2178 12.0631C36.2178 12.0631 36.2178 24.2326 36.2178 29.2637C36.2178 34.2948 43.6723 44.1727 52.4438 45.4898C61.189 44.1991 68.6699 34.2948 68.6699 29.2637C68.6699 24.2326 68.6699 12.0631 68.6699 12.0631C58.7656 9.29726 52.4438 6.5578 52.4438 6.5578ZM61.7949 20.94L52.5755 30.1593C50.6526 32.0822 47.5181 32.0822 45.5688 30.1593L43.1191 27.7096C42.1708 26.735 42.1708 25.1809 43.1191 24.2326C43.5932 23.7585 44.2254 23.5214 44.8576 23.5214C45.4898 23.5214 46.122 23.7585 46.5961 24.2326L48.2556 25.8921C48.7034 26.3399 49.4409 26.3399 49.8887 25.8921L58.2915 17.4893C59.2661 16.541 60.8202 16.541 61.7685 17.4893C62.2427 17.9634 62.4797 18.5956 62.4797 19.2278C62.5061 19.8336 62.269 20.4658 61.7949 20.94Z" fill="#1A47A9"/>
<path d="M52.4434 6.55807C52.4434 6.55807 58.7652 9.29753 68.6694 12.0633C68.6694 12.0633 68.6694 24.2329 68.6694 29.264C68.6694 34.2951 61.2149 44.173 52.4434 45.49" stroke="#0033A0" stroke-width="0.52731" stroke-miterlimit="10" stroke-linecap="round" stroke-linejoin="round"/>
<path d="M45.5684 30.1596L43.1187 27.7098C42.144 26.7352 42.144 25.1811 43.1187 24.2328C44.0933 23.2582 45.6474 23.2582 46.5957 24.2328L48.2551 25.8923C48.7029 26.3401 49.4405 26.3401 49.8883 25.8923L58.2911 17.4895C59.2657 16.5149 60.8198 16.5149 61.7681 17.4895C62.7427 18.4642 62.7427 20.0183 61.7681 20.9665L52.5487 30.1859C50.6258 32.0824 47.4913 32.0824 45.5684 30.1596Z" stroke="#0033A0" stroke-width="0.52731" stroke-miterlimit="10" stroke-linecap="round" stroke-linejoin="round"/>
<path d="M27.5782 101.385C29.7021 101.385 31.4239 99.6637 31.4239 97.5397C31.4239 95.4158 29.7021 93.694 27.5782 93.694C25.4542 93.694 23.7324 95.4158 23.7324 97.5397C23.7324 99.6637 25.4542 101.385 27.5782 101.385Z" stroke="#6685C6" stroke-width="0.52731" stroke-miterlimit="10" stroke-linecap="round" stroke-linejoin="round"/>
<path d="M76.4141 101.386C78.538 101.386 80.2598 99.6637 80.2598 97.5398C80.2598 95.4158 78.538 93.694 76.4141 93.694C74.2902 93.694 72.5684 95.4158 72.5684 97.5398C72.5684 99.6637 74.2902 101.386 76.4141 101.386Z" fill="#99ADD9"/>
<path d="M91.8496 44.4891C91.8496 44.4891 93.6145 41.6442 96.4067 44.0413C96.4067 44.0413 98.3033 41.5915 100.779 43.5935" stroke="#6685C6" stroke-width="0.52731" stroke-miterlimit="10" stroke-linecap="round" stroke-linejoin="round"/>
<path d="M1 48.6772C1 48.6772 3.23902 46.2011 5.55706 49.046C5.55706 49.046 7.87511 46.965 9.95609 49.3884" stroke="#6685C6" stroke-width="0.52731" stroke-miterlimit="10" stroke-linecap="round" stroke-linejoin="round"/>
<path d="M7.90137 35.1643C7.90137 35.1643 10.1404 32.6883 12.4584 35.5331C12.4584 35.5331 14.7765 33.4522 16.8574 35.8756" stroke="#6685C6" stroke-width="0.52731" stroke-miterlimit="10" stroke-linecap="round" stroke-linejoin="round"/>
</svg>
