<svg width="110" height="113" viewBox="0 0 110 113" fill="none" xmlns="http://www.w3.org/2000/svg">
<path d="M96.2146 48.2323C92.9136 49.0945 90.2531 51.5579 89.1446 54.7604H72.541C72.541 54.7604 74.3886 42.7388 76.8274 39.0437C79.2662 35.3731 82.0745 23.1791 83.996 23.327C83.996 23.327 90.8197 23.9674 96.0175 23.8689C96.0422 23.8935 97.0522 37.8366 96.2146 48.2323Z" fill="#E5EBF5"/>
<path d="M15.0938 54.5385H37.2154L36.0329 64.7371L29.8743 66.092C29.8743 66.092 30.4163 70.1566 30.8844 71.1666C30.8844 71.1666 23.2724 74.7386 22.1392 76.0442C22.1392 76.0442 16.3501 65.3529 15.0938 54.5385Z" fill="#E5EBF5"/>
<path d="M26.8438 16.5277C44.0878 14.4585 55.1732 8.25061 55.1732 8.25061C55.1732 8.25061 74.5112 19.1144 101.831 16.8973C101.831 16.8973 104.417 29.6825 103.087 46.0889" stroke="#0033A0" stroke-width="0.493145" stroke-miterlimit="10" stroke-linecap="round" stroke-linejoin="round"/>
<path d="M97.0034 73.1867C90.5985 89.2236 78.2567 104.374 55.1743 111.863C10.9804 97.5007 6.12739 55.0804 6.96496 32.0966" stroke="#0033A0" stroke-width="0.493145" stroke-miterlimit="10" stroke-linecap="round" stroke-linejoin="round"/>
<path d="M26.0068 23.3762C27.14 23.253 28.2485 23.1298 29.3571 22.982" stroke="#6685C6" stroke-width="0.493145" stroke-miterlimit="10" stroke-linecap="round" stroke-linejoin="round"/>
<path d="M93.7267 61.6332C88.1593 83.1143 75.2263 97.5993 55.174 104.768C33.4218 96.9834 20.0208 80.577 15.3402 55.9919C13.9115 48.4538 13.5173 41.162 13.6158 35.0527" stroke="#6685C6" stroke-width="0.493145" stroke-miterlimit="10" stroke-linecap="round" stroke-linejoin="round"/>
<path d="M87.5674 23.6471C89.7845 23.7949 92.0755 23.8934 94.4403 23.8934C94.9577 23.8934 95.4996 23.8934 96.0416 23.8688C96.5835 28.7956 97.0762 36.4816 96.4111 45.276" stroke="#6685C6" stroke-width="0.493145" stroke-miterlimit="10" stroke-linecap="round" stroke-linejoin="round"/>
<path d="M72.5404 54.5385C72.5404 54.5385 80.448 53.0851 79.1671 39.0681C78.8715 35.7425 82.9361 28.771 83.823 24.3122C84.562 20.5924 83.1825 14.1136 78.3541 10.2952C77.3934 9.53158 76.2848 8.86645 75.0531 8.34913C75.0531 8.34913 74.659 7.14205 73.3041 5.73789C71.1609 3.5208 66.5789 0.786393 57.341 1.45152C48.5958 2.06738 42.5851 -0.7163 36.8206 2.88031C32.1401 5.8118 29.3564 14.9019 33.8399 21.9473C33.8399 21.9719 33.8645 21.9719 33.8645 21.9966C35.3672 24.3368 38.9392 23.8195 39.7521 21.159C40.9838 17.1436 42.5112 12.3399 42.6836 12.5862C42.9546 13.005 45.4427 18.129 54.3849 19.878C63.3272 21.627 67.2933 19.7548 67.9831 19.5578C68.6728 19.336 69.8306 20.2968 68.796 21.2575C67.7614 22.2183 65.0516 24.4107 66.9238 28.4754C68.796 32.54 69.6582 34.6832 71.9246 34.7571C74.1909 34.831 75.127 34.9049 76.0139 36.6047C76.9007 38.3045 76.5805 40.7186 74.6343 42.1474C72.6882 43.6009 72.1216 43.8226 72.3187 48.4785C72.4912 53.159 72.5404 54.5385 72.5404 54.5385Z" fill="#1A47A9"/>
<path d="M72.541 54.5385C72.541 54.5385 80.4486 53.085 79.1676 39.0681C78.872 35.7425 82.9367 28.771 83.8235 24.3121C84.5626 20.5924 83.183 14.1135 78.3547 10.2952C77.394 9.53154 76.2854 8.86641 75.0537 8.34909" stroke="#0033A0" stroke-width="0.493145" stroke-miterlimit="10" stroke-linecap="round" stroke-linejoin="round"/>
<path d="M73.2797 5.73789C71.1365 3.5208 66.5545 0.786393 57.3166 1.45152C48.5714 2.06738 42.5607 -0.7163 36.7962 2.88031C32.1157 5.8118 29.332 14.9019 33.8155 21.9473" stroke="#0033A0" stroke-width="0.493145" stroke-miterlimit="10" stroke-linecap="round" stroke-linejoin="round"/>
<path d="M43.866 87.6962C43.866 87.6962 42.1169 85.0603 38.7174 82.2766C35.9584 80.0103 34.1601 78.3105 33.5442 76.4137C32.9037 74.4183 33.5442 72.2505 34.0862 70.3782L35.6135 69.319C35.6135 69.319 35.3179 72.2505 35.3179 72.7924C35.3179 73.3344 38.742 76.1919 43.866 76.6107C48.9653 77.0295 53.3995 76.7093 54.7051 76.4383C56.0107 76.1919 57.4395 75.8471 57.4395 75.8471C57.4395 75.8471 57.9075 78.9264 54.4341 80.7493C50.9607 82.5969 45.7628 84.8879 44.9253 85.824C44.1123 86.7354 43.866 87.6962 43.866 87.6962Z" fill="#99ADD9"/>
<path d="M76.8516 71.3639L75.8416 66.0922L58.2034 67.7181C58.2034 67.7181 57.9324 75.3547 56.9224 78.3601C55.9124 81.3655 45.566 84.2723 44.556 86.2677C43.546 88.2631 43.1025 93.2639 43.1025 93.2639" stroke="#0033A0" stroke-width="0.493145" stroke-miterlimit="10" stroke-linecap="round" stroke-linejoin="round"/>
<path d="M73.2548 66.3383C73.2548 66.3383 72.3187 53.7502 72.1955 44.5369C72.1955 44.5369 71.9738 43.8718 73.7474 42.7879C77.9599 40.1767 76.5311 35.6932 74.1662 34.8556C71.9984 34.0673 70.9145 35.4715 70.1016 35.4961" stroke="#0033A0" stroke-width="0.493145" stroke-miterlimit="10" stroke-linecap="round" stroke-linejoin="round"/>
<path d="M71.1368 35.0528C71.1368 35.0528 68.156 33.5008 66.3577 26.6032C64.9289 21.1344 70.2253 23.1051 68.6487 19.3607" stroke="#0033A0" stroke-width="0.493145" stroke-miterlimit="10" stroke-linecap="round" stroke-linejoin="round"/>
<path d="M40.9099 16.0104C40.9099 16.0104 38.545 24.0412 36.8945 32.0967" stroke="#0033A0" stroke-width="0.493145" stroke-miterlimit="10" stroke-linecap="round" stroke-linejoin="round"/>
<path d="M33.3963 41.6549C32.2385 44.9066 31.2285 47.8381 31.2285 48.2076C31.2285 49.0452 37.6088 50.2523 37.4856 52.0752C37.3625 53.8981 35.0715 71.487 35.2932 72.6941C35.5395 73.9012 43.3979 79.37 57.4641 75.8473" stroke="#0033A0" stroke-width="0.493145" stroke-miterlimit="10" stroke-linecap="round" stroke-linejoin="round"/>
<path d="M36.2536 64.6878C36.2536 64.6878 30.834 66.0674 29.8486 66.092C29.8486 66.092 29.9718 66.9788 30.1689 68.2845C31.0311 73.5562 33.864 78.3353 38.0519 81.6609C40.3182 83.4592 42.5846 85.3068 43.0773 85.9473C44.1366 87.3022 43.8163 88.46 43.8163 88.46" stroke="#0033A0" stroke-width="0.493145" stroke-miterlimit="10" stroke-linecap="round" stroke-linejoin="round"/>
<path d="M30.7117 71.1667C30.7117 71.1667 26.0804 73.1375 22.0156 76.0444" stroke="#0033A0" stroke-width="0.493145" stroke-miterlimit="10" stroke-linecap="round" stroke-linejoin="round"/>
<path d="M43.5707 35.9397C43.5707 36.2353 43.5707 36.5309 43.5707 36.8265C43.9402 36.6048 44.3097 36.4078 44.6792 36.186C44.6545 36.186 44.6545 36.1614 44.6299 36.1614C44.6792 36.2107 44.7284 36.2353 44.7777 36.2846C44.7531 36.2846 44.7531 36.26 44.7284 36.2353C44.7777 36.2846 44.8023 36.3339 44.8516 36.3831C44.827 36.3585 44.827 36.3585 44.827 36.3339C44.8516 36.3831 44.8762 36.457 44.9009 36.5063C44.9009 36.4817 44.8762 36.457 44.8762 36.4324C44.8762 36.5063 44.9009 36.5556 44.9009 36.6295C44.9009 36.6048 44.9009 36.5802 44.9009 36.5309C44.9009 36.6048 44.8762 36.6541 44.8762 36.728C44.8762 36.7034 44.8762 36.6787 44.9009 36.6541C44.8762 36.7034 44.8516 36.7773 44.827 36.8265C44.827 36.8019 44.8516 36.8019 44.8516 36.7773C44.8023 36.8265 44.7777 36.8758 44.7284 36.9251C44.7284 36.9004 44.7531 36.9004 44.7777 36.8758C44.7284 36.9251 44.6792 36.9497 44.6299 36.999C44.6545 36.999 44.6545 36.9743 44.6792 36.9743C44.7531 36.9251 44.827 36.8758 44.8762 36.7773C44.9501 36.7034 44.9748 36.6295 44.9994 36.5309C45.0241 36.4324 45.0241 36.3339 45.0241 36.2353C45.0241 36.1368 44.9994 36.0382 44.9255 35.9643C44.827 35.8165 44.6792 35.6687 44.4821 35.6195C44.4082 35.6195 44.3589 35.5948 44.285 35.5948C44.1619 35.5948 44.0387 35.6195 43.9155 35.6934C43.9155 35.6934 43.8909 35.6934 43.8909 35.718C43.8416 35.7673 43.7677 35.7919 43.7185 35.8658C43.6938 35.8904 43.6692 35.9397 43.6446 35.9643C43.6199 35.989 43.5953 36.0382 43.5707 36.0629C43.546 36.1368 43.5214 36.1861 43.4721 36.26C43.4721 36.2846 43.4721 36.2846 43.4475 36.3092C43.4229 36.3831 43.4229 36.457 43.4229 36.5309C43.4229 36.5556 43.4229 36.5556 43.4229 36.5802C43.4229 36.6048 43.4229 36.6048 43.4229 36.6295C43.4229 36.7034 43.4475 36.7773 43.4475 36.8512C43.4475 36.8758 43.4475 36.8758 43.4721 36.9004C43.4968 36.9743 43.5214 37.0482 43.546 37.0975C43.546 37.1221 43.5707 37.1221 43.5707 37.1221C43.6199 37.1714 43.6446 37.2453 43.6938 37.2946C43.7431 37.3685 43.817 37.4178 43.9155 37.4424C44.0387 37.5163 44.1619 37.5409 44.285 37.5409C44.4082 37.5409 44.5314 37.5163 44.6545 37.4424C44.8762 37.3192 45.0241 37.0729 45.0241 36.8019C45.0241 36.5063 45.0241 36.2107 45.0241 35.9151C45.0241 35.718 44.9502 35.5209 44.8023 35.3978C44.7284 35.3239 44.6545 35.2746 44.556 35.25C44.4575 35.2007 44.3836 35.1761 44.2604 35.1761C44.0633 35.1761 43.8663 35.25 43.7431 35.3978C43.6446 35.5456 43.5707 35.7426 43.5707 35.9397Z" fill="#0033A0"/>
<path d="M57.1683 36.3831C57.1683 36.6787 57.1683 36.9743 57.1683 37.2699C57.5378 37.0482 57.9073 36.8511 58.2768 36.6294C58.2522 36.6294 58.2522 36.6048 58.2276 36.6048C58.2768 36.654 58.3261 36.6787 58.3754 36.7279C58.3507 36.7279 58.3507 36.7033 58.3261 36.6787C58.3754 36.7279 58.4 36.7772 58.4493 36.8265C58.4246 36.8018 58.4246 36.8019 58.4246 36.7772C58.4493 36.8265 58.4739 36.9004 58.4986 36.9497C58.4986 36.925 58.4739 36.9004 58.4739 36.8758C58.4739 36.9497 58.4986 36.9989 58.4986 37.0728C58.4986 37.0482 58.4986 37.0236 58.4986 36.9743C58.4986 37.0482 58.4739 37.0975 58.4739 37.1714C58.4739 37.1467 58.4739 37.1221 58.4986 37.0975C58.4739 37.1467 58.4493 37.2206 58.4246 37.2699C58.4246 37.2453 58.4493 37.2453 58.4493 37.2206C58.4 37.2699 58.3754 37.3192 58.3261 37.3684C58.3261 37.3438 58.3507 37.3438 58.3754 37.3192C58.3261 37.3684 58.2768 37.3931 58.2276 37.4423C58.2522 37.4423 58.2522 37.4177 58.2768 37.4177C58.3507 37.3684 58.4246 37.3192 58.4739 37.2206C58.5478 37.1467 58.5725 37.0728 58.5971 36.9743C58.6217 36.8758 58.6217 36.7772 58.6217 36.6787C58.6217 36.5801 58.5971 36.4816 58.5232 36.4077C58.4246 36.2599 58.2768 36.1121 58.0798 36.0628C58.0059 36.0628 57.9566 36.0382 57.8827 36.0382C57.7595 36.0382 57.6364 36.0628 57.5132 36.1367C57.5132 36.1367 57.4886 36.1367 57.4886 36.1614C57.4393 36.2106 57.3654 36.2353 57.3161 36.3092C57.2915 36.3338 57.2668 36.3831 57.2422 36.4077C57.2176 36.4323 57.1929 36.4816 57.1683 36.5062C57.1437 36.5801 57.119 36.6294 57.0698 36.7033C57.0698 36.7279 57.0698 36.7279 57.0451 36.7526C57.0205 36.8265 57.0205 36.9004 57.0205 36.9743C57.0205 36.9989 57.0205 36.9989 57.0205 37.0236C57.0205 37.0482 57.0205 37.0482 57.0205 37.0728C57.0205 37.1467 57.0451 37.2206 57.0451 37.2945C57.0451 37.3192 57.0451 37.3192 57.0698 37.3438C57.0944 37.4177 57.119 37.4916 57.1437 37.5409C57.1437 37.5655 57.1683 37.5655 57.1683 37.5655C57.2176 37.6148 57.2422 37.6887 57.2915 37.7379C57.3407 37.8118 57.4147 37.8611 57.5132 37.8858C57.6364 37.9597 57.7595 37.9843 57.8827 37.9843C58.0059 37.9843 58.129 37.9597 58.2522 37.8858C58.4739 37.7626 58.6217 37.5162 58.6217 37.2453C58.6217 36.9497 58.6217 36.654 58.6217 36.3584C58.6217 36.1614 58.5478 35.9643 58.4 35.8411C58.3261 35.7672 58.2522 35.7179 58.1537 35.6933C58.0551 35.644 57.9812 35.6194 57.8581 35.6194C57.661 35.6194 57.4639 35.6933 57.3407 35.8411C57.2422 35.9889 57.1683 36.186 57.1683 36.3831Z" fill="#0033A0"/>
<path d="M35.6377 73.1867C35.6377 73.1867 34.5291 72.0782 34.1104 70.3784" stroke="#0033A0" stroke-width="0.493145" stroke-miterlimit="10" stroke-linecap="round" stroke-linejoin="round"/>
<path d="M73.7477 37.935C73.7477 37.935 72.4668 38.3045 72.516 40.1274" stroke="#0033A0" stroke-width="0.493145" stroke-miterlimit="10" stroke-linecap="round" stroke-linejoin="round"/>
<path d="M46.8714 27.4655C46.8714 27.4655 45.1224 26.2338 41.4766 27.096" stroke="#0033A0" stroke-width="0.493145" stroke-miterlimit="10" stroke-linecap="round" stroke-linejoin="round"/>
<path d="M57.1436 27.5394C57.1436 27.5394 60.3952 25.9628 63.105 27.5394" stroke="#0033A0" stroke-width="0.493145" stroke-miterlimit="10" stroke-linecap="round" stroke-linejoin="round"/>
<path d="M60.8887 77.0051C60.8887 77.0051 71.309 76.611 76.8517 71.3639C76.8517 71.3639 81.4337 72.029 87.5677 77.5471" stroke="#0033A0" stroke-width="0.493145" stroke-miterlimit="10" stroke-linecap="round" stroke-linejoin="round"/>
<path d="M42.0928 11.4778C42.0928 11.4778 43.9157 16.38 50.838 18.8681C60.47 22.3415 68.6486 19.3361 68.6486 19.3361" stroke="#0033A0" stroke-width="0.493145" stroke-miterlimit="10" stroke-linecap="round" stroke-linejoin="round"/>
<path d="M58.277 52.8141C58.277 52.8141 56.1338 53.7009 53.5225 54.0458C50.9112 54.3907 49.7288 53.7995 49.9012 54.3168C50.049 54.8341 51.601 57.3469 52.4386 57.6425C53.3008 57.9381 55.7396 58.5786 57.0946 57.1005C58.4495 55.6225 58.7943 54.1444 58.277 52.8141Z" fill="#0033A0"/>
<path d="M47.6592 51.7055C47.6592 51.7055 50.9356 52.7402 54.3352 51.9765C58.1536 51.1143 58.3753 51.4592 58.5477 53.159C58.7202 54.8588 58.0058 57.6918 54.7047 58.012C50.8863 58.3815 49.3343 54.3414 49.7778 52.1489" stroke="#0033A0" stroke-width="0.493145" stroke-miterlimit="10" stroke-linecap="round" stroke-linejoin="round"/>
<path d="M58.4246 54.834C58.4246 54.834 54.089 53.7993 52.7588 57.7654" stroke="#0033A0" stroke-width="0.493145" stroke-miterlimit="10" stroke-linecap="round" stroke-linejoin="round"/>
<path d="M39.1359 22.4397C39.1359 22.4397 36.2783 19.9517 36.2783 16.2812" stroke="#0033A0" stroke-width="0.493145" stroke-miterlimit="10" stroke-linecap="round" stroke-linejoin="round"/>
<path d="M40.6642 46.0644C45.0179 46.0644 48.5472 42.535 48.5472 38.1814C48.5472 33.8277 45.0179 30.2984 40.6642 30.2984C36.3106 30.2984 32.7812 33.8277 32.7812 38.1814C32.7812 42.535 36.3106 46.0644 40.6642 46.0644Z" stroke="#0033A0" stroke-width="0.493145" stroke-miterlimit="10" stroke-linecap="round" stroke-linejoin="round"/>
<path d="M62.2687 46.0644C66.6224 46.0644 70.1517 42.535 70.1517 38.1814C70.1517 33.8277 66.6224 30.2984 62.2687 30.2984C57.9151 30.2984 54.3857 33.8277 54.3857 38.1814C54.3857 42.535 57.9151 46.0644 62.2687 46.0644Z" stroke="#0033A0" stroke-width="0.493145" stroke-miterlimit="10" stroke-linecap="round" stroke-linejoin="round"/>
<path d="M54.3851 37.8119C54.3851 37.8119 52.6361 37.2454 50.8378 37.2454C49.3105 37.2454 48.5469 37.8119 48.5469 37.8119" stroke="#0033A0" stroke-width="0.493145" stroke-miterlimit="10" stroke-linecap="round" stroke-linejoin="round"/>
<path d="M66.6279 91.1206C68.5598 91.1206 70.1259 89.5544 70.1259 87.6225C70.1259 85.6906 68.5598 84.1245 66.6279 84.1245C64.696 84.1245 63.1299 85.6906 63.1299 87.6225C63.1299 89.5544 64.696 91.1206 66.6279 91.1206Z" stroke="#0033A0" stroke-width="0.493145" stroke-miterlimit="10" stroke-linecap="round" stroke-linejoin="round"/>
<path d="M88.6025 58.1105C88.6025 52.4693 93.1599 47.9119 98.8012 47.9119C104.442 47.9119 109 52.4693 109 58.1105C106.241 56.0166 103.777 58.1105 103.777 58.1105C101.043 55.8934 98.8012 58.1105 98.8012 58.1105C98.8012 58.1105 96.5594 55.8934 93.825 58.1105C93.825 58.1105 91.3616 56.0166 88.6025 58.1105Z" stroke="#0033A0" stroke-width="0.493145" stroke-miterlimit="10" stroke-linecap="round" stroke-linejoin="round"/>
<path d="M98.8018 58.1107V71.0684C98.8018 71.6842 99.2944 72.1769 99.9103 72.1769C100.526 72.1769 101.019 71.6842 101.019 71.0684V70.2308" stroke="#0033A0" stroke-width="0.493145" stroke-miterlimit="10" stroke-linecap="round" stroke-linejoin="round"/>
<path d="M12.5316 32.1708C12.5316 32.1708 19.8973 28.722 22.8288 23.1547C25.7603 17.6119 23.149 11.478 18.8134 10.9853C14.4778 10.4926 12.5316 13.4487 12.5316 13.4487C12.5316 13.4487 10.5855 10.4926 6.2499 10.9853C1.91425 11.478 -0.672352 17.6119 2.2345 23.1547C5.16598 28.722 12.5316 32.1708 12.5316 32.1708Z" stroke="#6685C6" stroke-width="0.493145" stroke-miterlimit="10" stroke-linecap="round" stroke-linejoin="round"/>
<path d="M5.31348 20.8141H8.56521L10.7084 17.1682L13.8123 25.0512L15.9062 20.8141H19.1333" stroke="#0033A0" stroke-width="0.493145" stroke-miterlimit="10" stroke-linecap="round" stroke-linejoin="round"/>
<path d="M66.6282 89.6178C67.7302 89.6178 68.6235 88.7244 68.6235 87.6224C68.6235 86.5204 67.7302 85.6271 66.6282 85.6271C65.5262 85.6271 64.6328 86.5204 64.6328 87.6224C64.6328 88.7244 65.5262 89.6178 66.6282 89.6178Z" fill="#6685C6"/>
</svg>
