<svg width="26" height="24" viewBox="0 0 26 24" fill="none" xmlns="http://www.w3.org/2000/svg">
<g clip-path="url(#clip0_506_3937)">
<path d="M6.40339 20.3906C9.71122 20.3906 12.4024 17.8672 12.4024 14.7656C12.4024 13.2825 11.7921 11.883 10.684 10.8249C9.57829 9.76922 8.10145 9.17161 6.52522 9.14208L6.47943 9.141C5.92683 9.12539 5.46831 9.5362 5.45391 10.0538C5.43951 10.5714 5.87539 11.0019 6.42739 11.0154L6.48273 11.0167C8.64421 11.0559 10.4027 12.7378 10.4027 14.7656C10.4027 16.8334 8.60861 18.5156 6.40339 18.5156C4.19818 18.5156 2.40409 16.8334 2.40409 14.7656C2.40409 12.1829 3.05917 9.79969 4.3513 7.68211C5.31698 6.09937 6.29901 5.26336 6.31736 5.24789C6.72919 4.90509 6.76788 4.31409 6.40324 3.92658C6.30947 3.82672 6.19405 3.74677 6.06469 3.69206C5.93534 3.63735 5.79503 3.60914 5.65312 3.60933C5.40959 3.60913 5.17442 3.69257 4.99204 3.84389C4.9437 3.88392 3.79494 4.84462 2.66414 6.67209C1.63322 8.33803 0.404432 11.0946 0.404432 14.7656C0.404432 17.8673 3.09557 20.3906 6.40339 20.3906ZM20.001 20.3906C23.3089 20.3906 26 17.8673 26 14.7656C26 13.2825 25.3897 11.883 24.2816 10.8248C23.1759 9.76912 21.6991 9.17156 20.1229 9.14198L20.0771 9.14091C19.5257 9.1253 19.0659 9.53611 19.0516 10.0537C19.0372 10.5713 19.473 11.0018 20.025 11.0153L20.0804 11.0166C22.2419 11.0559 24.0003 12.7378 24.0003 14.7656C24.0003 16.8334 22.2063 18.5156 20.001 18.5156C17.7958 18.5156 16.0017 16.8334 16.0017 14.7656C16.0017 12.1829 16.6568 9.79969 17.9489 7.68215C18.9146 6.09942 19.8967 5.2634 19.915 5.24794C20.3269 4.90509 20.3655 4.31414 20.0009 3.92662C19.9071 3.82676 19.7917 3.7468 19.6623 3.69209C19.533 3.63738 19.3927 3.60918 19.2508 3.60937C19.0158 3.60937 18.7798 3.68662 18.5896 3.84389C18.5413 3.88392 17.3925 4.84462 16.2617 6.67209C15.2309 8.33803 14.0021 11.0945 14.0021 14.7656C14.0021 17.8673 16.6932 20.3906 20.001 20.3906Z" fill="#0033A0"/>
</g>
<defs>
<clipPath id="clip0_506_3937">
<rect width="25.5956" height="24" fill="white" transform="matrix(-1 0 0 -1 26 24)"/>
</clipPath>
</defs>
</svg>
