<svg width="22" height="23" viewBox="0 0 22 23" fill="none" xmlns="http://www.w3.org/2000/svg">
<path fill-rule="evenodd" clip-rule="evenodd" d="M11.473 2.48917C11.3453 2.36809 11.176 2.3006 11 2.3006C10.824 2.3006 10.6547 2.36809 10.527 2.48917C8.58117 4.33706 5.98962 5.35039 3.30642 5.31251C3.16025 5.31061 3.01727 5.35535 2.89825 5.44024C2.77924 5.52514 2.69038 5.64576 2.64459 5.78459C2.25773 6.96357 2.06124 8.19668 2.06251 9.43751C2.06251 14.8843 5.78784 19.4594 10.8286 20.7565C10.941 20.7855 11.059 20.7855 11.1714 20.7565C16.2122 19.4594 19.9375 14.8843 19.9375 9.43751C19.9375 8.16334 19.7331 6.93501 19.3554 5.78459C19.3098 5.64559 19.221 5.52476 19.102 5.4397C18.9829 5.35463 18.8399 5.30975 18.6936 5.31159L18.5625 5.31251C15.8162 5.31251 13.3219 4.24001 11.473 2.48917ZM14.3092 9.83717C14.3642 9.76389 14.404 9.68034 14.4262 9.59146C14.4485 9.50257 14.4527 9.41014 14.4387 9.31958C14.4248 9.22902 14.3928 9.14218 14.3448 9.06414C14.2968 8.98611 14.2336 8.91847 14.1591 8.86518C14.0845 8.8119 14.0001 8.77406 13.9107 8.75388C13.8213 8.7337 13.7288 8.73159 13.6386 8.74768C13.5484 8.76376 13.4623 8.79772 13.3854 8.84755C13.3085 8.89738 13.2424 8.96208 13.1908 9.03784L10.2245 13.1903L8.73584 11.7017C8.60551 11.5802 8.43314 11.5141 8.25503 11.5173C8.07692 11.5204 7.90698 11.5926 7.78102 11.7185C7.65506 11.8445 7.5829 12.0144 7.57976 12.1925C7.57662 12.3706 7.64273 12.543 7.76417 12.6733L9.82667 14.7358C9.89725 14.8064 9.98232 14.8607 10.076 14.895C10.1697 14.9294 10.2697 14.9429 10.3691 14.9347C10.4686 14.9265 10.565 14.8968 10.6518 14.8475C10.7386 14.7983 10.8136 14.7308 10.8717 14.6497L14.3092 9.83717Z" fill="#0033A0"/>
</svg>
