<svg width="18" height="19" viewBox="0 0 18 19" fill="none" xmlns="http://www.w3.org/2000/svg">
<path fill-rule="evenodd" clip-rule="evenodd" d="M9.47301 0.489172C9.34529 0.36809 9.176 0.300598 9.00001 0.300598C8.82401 0.300598 8.65473 0.36809 8.52701 0.489172C6.58117 2.33706 3.98962 3.35039 1.30642 3.31251C1.16025 3.31061 1.01727 3.35535 0.898254 3.44024C0.779239 3.52514 0.690383 3.64576 0.644589 3.78459C0.257731 4.96357 0.0612393 6.19668 0.0625061 7.43751C0.0625061 12.8843 3.78784 17.4594 8.82859 18.7565C8.94103 18.7855 9.05898 18.7855 9.17142 18.7565C14.2122 17.4594 17.9375 12.8843 17.9375 7.43751C17.9375 6.16334 17.7331 4.93501 17.3554 3.78459C17.3098 3.64559 17.221 3.52476 17.102 3.4397C16.9829 3.35463 16.8399 3.30975 16.6936 3.31159L16.5625 3.31251C13.8162 3.31251 11.3219 2.24001 9.47301 0.489172ZM12.3092 7.83717C12.3642 7.76389 12.404 7.68034 12.4262 7.59146C12.4485 7.50257 12.4527 7.41014 12.4387 7.31958C12.4248 7.22902 12.3928 7.14218 12.3448 7.06414C12.2968 6.98611 12.2336 6.91847 12.1591 6.86518C12.0845 6.8119 12.0001 6.77406 11.9107 6.75388C11.8213 6.7337 11.7288 6.73159 11.6386 6.74768C11.5484 6.76376 11.4623 6.79772 11.3854 6.84755C11.3085 6.89738 11.2424 6.96208 11.1908 7.03784L8.22451 11.1903L6.73584 9.70167C6.60551 9.58023 6.43314 9.51412 6.25503 9.51726C6.07692 9.5204 5.90698 9.59256 5.78102 9.71852C5.65506 9.84448 5.5829 10.0144 5.57976 10.1925C5.57662 10.3706 5.64273 10.543 5.76417 10.6733L7.82667 12.7358C7.89725 12.8064 7.98232 12.8607 8.076 12.895C8.16967 12.9294 8.26969 12.9429 8.36912 12.9347C8.46855 12.9265 8.56501 12.8968 8.65179 12.8475C8.73857 12.7983 8.8136 12.7308 8.87167 12.6497L12.3092 7.83717Z" fill="#0033A0"/>
</svg>
