<svg width="48" height="48" viewBox="0 0 48 48" fill="none" xmlns="http://www.w3.org/2000/svg">
<path d="M40.4322 37.7191C39.4655 34.842 35.6126 33.041 32.8655 31.8338C31.7894 31.3624 28.81 30.5628 28.4519 29.2077C28.3238 28.7196 28.341 28.2592 28.4462 27.8181C28.279 27.851 28.1091 27.8678 27.9388 27.8685H26.1489C25.4621 27.8678 24.8037 27.5946 24.3181 27.1089C23.8325 26.6232 23.5594 25.9647 23.5588 25.278C23.5588 23.8509 24.7204 22.6908 26.1489 22.6908H27.9388C28.5302 22.6908 29.0908 22.8909 29.543 23.248C30.1863 23.1632 30.8214 23.0242 31.4414 22.8324C32.2242 21.1922 32.8348 19.2309 32.9716 17.5428C33.5558 10.3197 29.1278 6.0938 22.7788 6.82436C18.1626 7.35572 15.405 10.7978 15.107 15.2292C14.8055 19.746 16.4802 23.082 18.2591 25.529C19.0382 26.5989 19.8566 27.2868 19.7308 28.576C19.5849 30.1005 17.9548 30.5253 16.7889 30.9938C15.4074 31.5487 13.9194 32.3906 13.2167 32.7799C10.7961 34.1167 8.13928 35.7266 7.54216 37.9288C6.21976 42.8095 10.6857 44.2879 14.3726 44.9704C17.5367 45.5541 21.1046 45.6002 24.0393 45.6002C29.3476 45.6002 38.8929 45.3876 40.4322 41.3973C40.87 40.265 40.6823 38.4607 40.4322 37.7191Z" fill="white"/>
<path d="M29.0716 24.5488C28.949 24.3601 28.7813 24.205 28.5837 24.0974C28.3861 23.9899 28.1647 23.9334 27.9397 23.9329H26.1498C25.9697 23.9281 25.7905 23.9595 25.6227 24.0251C25.4549 24.0907 25.302 24.1892 25.1729 24.3149C25.0438 24.4406 24.9412 24.5908 24.8712 24.7568C24.8011 24.9228 24.765 25.1011 24.765 25.2813C24.765 25.4614 24.8011 25.6398 24.8712 25.8057C24.9412 25.9717 25.0438 26.122 25.1729 26.2476C25.302 26.3733 25.4549 26.4719 25.6227 26.5375C25.7905 26.6031 25.9697 26.6344 26.1498 26.6296H27.9397C28.186 26.6294 28.4274 26.5612 28.6374 26.4326C28.8473 26.3039 29.0177 26.1198 29.1297 25.9005C31.6252 25.7041 33.7957 24.9419 35.3193 23.8163C35.6692 24.0419 36.0829 24.1739 36.5293 24.1739H36.6417C36.9374 24.174 37.2302 24.1157 37.5034 24.0025C37.7766 23.8893 38.0248 23.7233 38.2338 23.5141C38.4428 23.3049 38.6085 23.0565 38.7214 22.7832C38.8344 22.5099 38.8923 22.217 38.8919 21.9213V17.4246C38.892 16.9999 38.7715 16.5839 38.5445 16.225C38.3174 15.8661 37.9931 15.579 37.6093 15.3971C37.2791 8.17647 31.3017 2.40015 23.9999 2.40015C16.6981 2.40015 10.7197 8.17647 10.3909 15.3971C10.0069 15.5787 9.68228 15.8657 9.45503 16.2247C9.22779 16.5836 9.10724 16.9998 9.10742 17.4246V21.9213C9.10705 22.2168 9.16491 22.5096 9.27771 22.7828C9.39051 23.056 9.55604 23.3042 9.76483 23.5134C9.97363 23.7226 10.2216 23.8886 10.4946 24.002C10.7675 24.1153 11.0602 24.1737 11.3557 24.1739H11.4695C11.7652 24.1738 12.0579 24.1155 12.331 24.0023C12.6042 23.889 12.8523 23.723 13.0612 23.5138C13.2701 23.3046 13.4358 23.0563 13.5487 22.783C13.6616 22.5098 13.7196 22.2169 13.7193 21.9213V17.4246C13.719 17.0059 13.6017 16.5955 13.3805 16.2399C13.1593 15.8843 12.843 15.5977 12.4674 15.4125C12.7885 9.32847 17.8372 4.47903 23.9999 4.47903C30.1602 4.47903 35.2113 9.32847 35.5309 15.4125C35.1558 15.5981 34.8399 15.8848 34.6189 16.2403C34.398 16.5959 34.2808 17.006 34.2805 17.4246V21.9213C34.2805 22.2198 34.3386 22.4977 34.4409 22.7574C33.1295 23.6958 31.2205 24.3645 29.0716 24.5488Z" fill="white"/>
</svg>
