<svg width="23" height="32" viewBox="0 0 23 32" fill="none" xmlns="http://www.w3.org/2000/svg">
<g id="Vertical container">
<path id="Vector" fill-rule="evenodd" clip-rule="evenodd" d="M15.8997 13.2714C16.7457 9.90988 19.1153 8.02341 21.2768 7.81294C18.849 12.8064 24.8256 16.3846 21.4563 22.3516C21.1713 22.8563 20.8419 23.3345 20.4719 23.7806C20.4804 23.614 20.4852 23.4465 20.4852 23.2781V17.5073C20.4852 16.8626 20.108 16.2906 19.5155 16.0366L12.477 13.0202C12.0695 12.8456 11.6239 12.8456 11.2165 13.0202L4.17798 16.0366C3.58545 16.2906 3.20825 16.8626 3.20825 17.5073V23.2781C3.20825 23.6954 3.23531 24.1076 3.28678 24.5131C-0.766896 20.4049 -0.893163 13.0654 1.93331 7.49581C0.816508 16.326 8.83979 15.8042 6.30159 10.1136C4.47912 6.02754 8.44093 -0.133141 14.6855 0.00219227C10.3842 6.14827 16.7593 7.72621 15.8997 13.2714ZM8.88013 23.4625L10.5298 25.1121C10.8175 25.3999 11.284 25.3999 11.5717 25.1121C12.9852 23.6987 13.4085 23.2562 14.8153 21.8354C15.1015 21.5477 15.1002 21.0825 14.8125 20.7964C14.5248 20.5102 14.0596 20.5116 13.7734 20.7992L11.0496 23.548L9.92206 22.4205C9.6344 22.1328 9.16793 22.1328 8.88013 22.4205C8.59246 22.7083 8.59246 23.1748 8.88013 23.4625ZM12.0568 14.0006C11.9176 13.9409 11.7758 13.9409 11.6366 14.0006L4.59812 17.017C4.39772 17.1029 4.27485 17.2892 4.27485 17.5072V23.278C4.27485 27.7721 7.49253 31.2409 11.8467 32C16.2008 31.2409 19.4185 27.7721 19.4185 23.278V17.5072C19.4185 17.2892 19.2956 17.1029 19.0952 17.017L12.0568 14.0006ZM11.8467 17.6201C8.90026 17.6201 6.51152 20.0088 6.51152 22.9553C6.51152 25.9018 8.90026 28.2905 11.8467 28.2905C14.7932 28.2905 17.1819 25.9018 17.1819 22.9553C17.1819 20.0088 14.7932 17.6201 11.8467 17.6201ZM17.0453 5.49947C19.4289 4.34534 18.5571 2.38346 19.3041 0.922261C17.5369 1.60273 16.2429 3.51247 17.0453 5.49947Z" fill="#0033A0"/>
</g>
</svg>
