<svg width="32" height="32" viewBox="0 0 32 32" fill="none" xmlns="http://www.w3.org/2000/svg">
<g id="Button container" clip-path="url(#clip0_472_3545)">
<g id="Button">
<path id="Vector" d="M9.37519 7.9375H15.6248C15.9227 7.9375 16.2011 7.79469 16.3797 7.55625C17.7452 5.73319 18.4375 3.71662 18.4375 1.5625V0.9375C18.4375 0.41975 18.0177 0 17.5 0C15.7638 0 13.4991 1.1245 12.5 1.67163C11.5009 1.1245 9.23625 0 7.5 0C6.98225 0 6.5625 0.41975 6.5625 0.9375V1.5625C6.5625 3.71662 7.25481 5.73319 8.62031 7.55625C8.79888 7.79469 9.07738 7.9375 9.37519 7.9375ZM13.2257 21.7169V24.3712C13.7047 24.1127 13.9892 23.6354 14.0653 23.183C14.1196 22.8598 14.1418 22.0841 13.2257 21.7169ZM11.1921 18.3328C11.1263 18.6816 11.2109 19.0065 11.4074 19.1606C11.4843 19.2209 11.5707 19.2799 11.6632 19.3378V17.5732C11.3903 17.7641 11.2417 18.0696 11.1921 18.3328Z" fill="#0033A0"/>
<path id="Vector_2" d="M17.625 23.6458V18.9945C17.625 17.6953 18.5595 16.6013 19.8471 16.3932C20.5129 16.2856 21.0921 15.8702 21.4107 15.2776C20.0677 13.4202 18.4866 11.6904 16.9191 10.0934C16.8318 10.0044 16.7277 9.93379 16.6128 9.88556C16.4979 9.83733 16.3746 9.8125 16.25 9.8125H8.75C8.62541 9.8125 8.50208 9.83734 8.3872 9.88555C8.27232 9.93377 8.16821 10.0044 8.08094 10.0933C4.08494 14.1646 0 19.0971 0 24.8125L6.25e-05 24.8797C0.0088125 28.8059 3.25575 32 7.23819 32H17.7618C18.8752 32 19.9311 31.7501 20.8749 31.3046C18.843 29.3422 17.625 26.6019 17.625 23.6458ZM15.6061 23.4421C15.4869 24.1513 15.1301 24.8094 14.6014 25.2952C14.206 25.6584 13.7391 25.9071 13.2257 26.0327V26.625C13.2257 27.0565 12.876 27.4062 12.4445 27.4062C12.013 27.4062 11.6632 27.0565 11.6632 26.625V26.1057C11.0087 26.0517 10.4702 25.879 9.70413 25.3779C9.34306 25.1417 9.24181 24.6575 9.478 24.2964C9.71419 23.9353 10.1983 23.8341 10.5594 24.0703C11.0024 24.3601 11.2852 24.4838 11.6632 24.5339V21.1019C11.1449 20.8653 10.7591 20.638 10.4431 20.3901C9.78281 19.8722 9.48138 18.973 9.65656 18.0434C9.84763 17.0297 10.553 16.2232 11.4975 15.9387C11.5525 15.9222 11.6077 15.9067 11.6632 15.8923V15.375C11.6632 14.9435 12.013 14.5938 12.4445 14.5938C12.876 14.5938 13.2257 14.9435 13.2257 15.375V15.8057C14.0095 15.9367 14.5629 16.3211 14.8299 16.6273C15.1133 16.9526 15.0794 17.4461 14.7541 17.7296C14.4304 18.0116 13.94 17.9794 13.6559 17.6584C13.6374 17.6395 13.497 17.5034 13.2257 17.4099V20.0537C13.3734 20.1087 13.5209 20.1619 13.6657 20.2131C15.0896 20.7163 15.8513 21.9838 15.6061 23.4421Z" fill="#0033A0"/>
<path id="Vector_3" d="M31.3538 18.2441C30.7198 18.1415 30.1194 17.8894 29.6022 17.5088C29.085 17.1281 28.6659 16.6297 28.3795 16.055C28.2997 15.8949 28.1338 15.796 27.9549 15.796H23.5451C23.3662 15.796 23.2003 15.8949 23.1205 16.055C22.8341 16.6297 22.415 17.1281 21.8978 17.5088C21.3806 17.8894 20.7802 18.1415 20.1462 18.2441C19.7754 18.3041 19.5 18.6188 19.5 18.9945V23.6458C19.5 27.4145 21.9055 30.7489 25.453 31.9511C25.6457 32.0163 25.8544 32.0163 26.0471 31.9511C29.5945 30.749 32 27.4145 32 23.6458V18.9945C32 18.6188 31.7246 18.3041 31.3538 18.2441ZM29.0646 22.8161L25.5291 26.3516C25.346 26.5346 25.1061 26.6262 24.8662 26.6262C24.6263 26.6262 24.3863 26.5347 24.2033 26.3516L22.4356 24.5838C22.0694 24.2177 22.0694 23.6241 22.4356 23.258C22.8016 22.8919 23.3953 22.8919 23.7614 23.258L24.8662 24.3628L27.7389 21.4903C28.1049 21.1241 28.6986 21.1241 29.0647 21.4903C29.4307 21.8565 29.4307 22.45 29.0646 22.8161Z" fill="#0033A0"/>
</g>
</g>
<defs>
<clipPath id="clip0_472_3545">
<rect width="32" height="32" fill="white"/>
</clipPath>
</defs>
</svg>
