<svg width="32" height="31" viewBox="0 0 32 31" fill="none" xmlns="http://www.w3.org/2000/svg">
<g id="Vertical container">
<g id="Vertical container_2">
<path id="Vector" d="M7.17242 30.8966H13.2414V26.4828H7.17242V30.8966ZM11.0345 28.1379H11.5862C11.7325 28.1379 11.8729 28.1961 11.9763 28.2995C12.0798 28.403 12.1379 28.5433 12.1379 28.6897C12.1379 28.836 12.0798 28.9763 11.9763 29.0798C11.8729 29.1833 11.7325 29.2414 11.5862 29.2414H11.0345C10.8882 29.2414 10.7478 29.1833 10.6444 29.0798C10.5409 28.9763 10.4828 28.836 10.4828 28.6897C10.4828 28.5433 10.5409 28.403 10.6444 28.2995C10.7478 28.1961 10.8882 28.1379 11.0345 28.1379ZM12.1379 25.3793V24.3531C12.156 23.2973 11.8156 22.2665 11.1724 21.429C10.8358 20.9776 10.3732 20.6359 9.84276 20.4469C8.54598 19.9171 7.35401 19.1605 6.32276 18.2124C6.07192 18.0062 5.75851 17.8911 5.43379 17.8861C5.10907 17.8811 4.79226 17.9864 4.53517 18.1848C4.7338 18.4839 4.96276 18.7614 5.21931 19.0124L7.73517 21.5338C7.83793 21.6372 7.89561 21.777 7.89561 21.9228C7.89561 22.0685 7.83793 22.2084 7.73517 22.3117C7.68483 22.3641 7.62442 22.4058 7.55759 22.4342C7.49075 22.4627 7.41885 22.4773 7.34621 22.4773C7.27357 22.4773 7.20167 22.4627 7.13483 22.4342C7.06799 22.4058 7.00759 22.3641 6.95724 22.3117L4.43586 19.7959C3.84661 19.2039 3.37484 18.5056 3.04552 17.7379L1.80966 14.8579C1.76324 14.7484 1.68778 14.6537 1.59142 14.5839C1.49506 14.5141 1.38147 14.4721 1.26293 14.4622C1.14438 14.4523 1.02539 14.475 0.918812 14.5278C0.812233 14.5807 0.722119 14.6616 0.658209 14.7619C0.537381 14.9495 0.520278 15.1846 0.612416 15.3876L2.77517 20.149C3.01129 20.6711 3.34031 21.1459 3.74621 21.5504L7.57517 25.3793H12.1379ZM18.7586 26.4828V30.8966H24.8276V26.4828H18.7586ZM20.9655 29.2414H20.4138C20.2675 29.2414 20.1271 29.1833 20.0237 29.0798C19.9202 28.9763 19.8621 28.836 19.8621 28.6897C19.8621 28.5433 19.9202 28.403 20.0237 28.2995C20.1271 28.1961 20.2675 28.1379 20.4138 28.1379H20.9655C21.1118 28.1379 21.2522 28.1961 21.3556 28.2995C21.4591 28.403 21.5172 28.5433 21.5172 28.6897C21.5172 28.836 21.4591 28.9763 21.3556 29.0798C21.2522 29.1833 21.1118 29.2414 20.9655 29.2414ZM30.7917 14.4607C30.5297 14.4607 30.293 14.6168 30.1903 14.8579L28.9545 17.7379C28.6252 18.5056 28.1534 19.2039 27.5641 19.7959L25.0428 22.3117C24.9924 22.3641 24.932 22.4058 24.8652 22.4342C24.7983 22.4627 24.7264 22.4773 24.6538 22.4773C24.5812 22.4773 24.5093 22.4627 24.4424 22.4342C24.3756 22.4058 24.3152 22.3641 24.2648 22.3117C24.1621 22.2084 24.1044 22.0685 24.1044 21.9228C24.1044 21.777 24.1621 21.6372 24.2648 21.5338L26.7807 19.0124C27.0371 18.7592 27.2663 18.48 27.4648 18.1793C27.2071 17.9817 26.89 17.8773 26.5652 17.8833C26.2405 17.8893 25.9275 18.0054 25.6772 18.2124C24.646 19.1605 23.454 19.9171 22.1572 20.4469C21.627 20.6361 21.1641 20.9777 20.8276 21.429C20.1844 22.2665 19.844 23.2973 19.8621 24.3531V25.3793H24.4248L28.2538 21.5504C28.6597 21.1459 28.9887 20.6711 29.2248 20.149L31.3876 15.3876C31.4328 15.2878 31.4524 15.1783 31.4444 15.069C31.4364 14.9597 31.4012 14.8541 31.3419 14.762C31.2827 14.6698 31.2013 14.5939 31.1052 14.5413C31.0091 14.4887 30.9013 14.461 30.7917 14.4607ZM24.2483 11.7628C24.1622 11.9846 23.9509 12.1324 23.7131 12.1379C23.5948 12.1358 23.4803 12.0955 23.3868 12.0229C23.2933 11.9503 23.2258 11.8493 23.1945 11.7352L22.6097 9.68828L21.4952 13.4014C21.4235 13.6337 21.2083 13.7926 20.9655 13.7931H20.9434C20.8208 13.7885 20.7033 13.7431 20.6094 13.6642C20.5154 13.5852 20.4505 13.4772 20.4248 13.3573L19.2717 7.95587L18.7421 10.0635C18.7125 10.1831 18.6437 10.2893 18.5467 10.3653C18.4498 10.4413 18.3301 10.4827 18.2069 10.4828H15.2938L14.869 11.7628C14.8276 11.8717 14.7545 11.9658 14.6591 12.0327C14.5636 12.0995 14.4503 12.1362 14.3338 12.1379C14.2154 12.1358 14.1009 12.0955 14.0075 12.0229C13.914 11.9503 13.8465 11.8493 13.8152 11.7352L13.2303 9.68828L12.1159 13.4014C12.0381 13.6386 11.8141 13.7981 11.5641 13.7931C11.4415 13.7885 11.324 13.7431 11.2301 13.6642C11.1361 13.5852 11.0712 13.4772 11.0455 13.3573L9.89242 7.95587L9.36276 10.0635C9.33319 10.1831 9.26443 10.2893 9.16744 10.3653C9.07044 10.4413 8.9508 10.4827 8.82759 10.4828H5.11449C5.81283 11.4481 6.63242 12.3196 7.55311 13.0759C7.84 13.3352 8.1269 13.589 8.39173 13.8428C9.97517 15.3545 14.6814 19.1835 16 20.2538C17.3186 19.1835 22.0248 15.3545 23.6083 13.8428C23.8731 13.589 24.16 13.3352 24.4469 13.0759C25.3689 12.321 26.1886 11.4493 26.8855 10.4828H24.6731L24.2483 11.7628Z" fill="#0033A0"/>
<path id="Vector_2" d="M9.39586 5.38486C9.42466 5.26275 9.49475 5.15432 9.59428 5.07792C9.6938 5.00151 9.81666 4.96182 9.94207 4.96555C10.1975 4.97273 10.4154 5.15204 10.4717 5.40142L11.6745 11.0235L12.7117 7.56417C12.743 7.44771 12.8131 7.34541 12.9104 7.27418C13.0077 7.20295 13.1264 7.16707 13.2469 7.17245C13.3662 7.17336 13.4819 7.21318 13.5765 7.28588C13.6712 7.35857 13.7394 7.46016 13.771 7.57521L14.3834 9.72142C14.4706 9.51507 14.6726 9.38045 14.8966 9.37935H17.7766L18.7752 5.38486C18.7901 5.32417 18.8138 5.2668 18.8469 5.21383C18.9539 5.05714 19.1316 4.9639 19.3214 4.96555C19.5768 4.97273 19.7948 5.15204 19.851 5.40142L21.0538 11.0235L22.091 7.56417C22.1628 7.3319 22.3779 7.173 22.6207 7.17245H22.6262C22.7455 7.17336 22.8613 7.21318 22.9559 7.28588C23.0505 7.35857 23.1187 7.46016 23.1503 7.57521L23.7628 9.72142C23.8499 9.51507 24.0519 9.38045 24.2759 9.37935H27.4979C27.9385 8.36906 28.1568 7.27586 28.1379 6.17383C28.1379 2.30624 25.8869 3.66457e-05 22.1076 3.66457e-05C20.963 -0.00383508 19.8382 0.299154 18.8504 0.877467C17.8626 1.45578 17.0479 2.28828 16.491 3.28831C16.4397 3.37257 16.3676 3.4422 16.2816 3.49052C16.1956 3.53884 16.0986 3.56423 16 3.56423C15.9014 3.56423 15.8044 3.53884 15.7184 3.49052C15.6324 3.4422 15.5603 3.37257 15.509 3.28831C14.9521 2.28828 14.1374 1.45578 13.1496 0.877467C12.1618 0.299154 11.037 -0.00383508 9.89241 3.66457e-05C6.1131 3.66457e-05 3.86207 2.30624 3.86207 6.17383C3.8432 7.27586 4.06146 8.36906 4.50207 9.37935H8.39724L9.39586 5.38486ZM0.551724 9.37935C0.405398 9.37935 0.265065 9.43747 0.161596 9.54094C0.0581279 9.64441 0 9.78475 0 9.93107C0 10.0774 0.0581279 10.2177 0.161596 10.3212C0.265065 10.4247 0.405398 10.4828 0.551724 10.4828H5.11448C4.87779 10.1341 4.6731 9.76445 4.50207 9.37935H0.551724ZM31.4483 9.37935H27.4979C27.3269 9.76445 27.1222 10.1341 26.8855 10.4828H31.4483C31.5946 10.4828 31.7349 10.4247 31.8384 10.3212C31.9419 10.2177 32 10.0774 32 9.93107C32 9.78475 31.9419 9.64441 31.8384 9.54094C31.7349 9.43747 31.5946 9.37935 31.4483 9.37935Z" fill="#0033A0"/>
</g>
</g>
</svg>
