<svg width="32" height="30" viewBox="0 0 32 30" fill="none" xmlns="http://www.w3.org/2000/svg">
<g id="Button">
<path id="47 Cyber Crime, Banking, Credit Card" d="M5.81818 18.9091V16H11.6364V18.9091H5.81818ZM27.6364 0H4.36364C3.20633 0 2.09642 0.459739 1.27808 1.27808C0.459739 2.09642 0 3.20633 0 4.36364V18.9091C0 20.0664 0.459739 21.1763 1.27808 21.9946C2.09642 22.813 3.20633 23.2727 4.36364 23.2727H16V20.3636H4.36364C3.97787 20.3636 3.6079 20.2104 3.33512 19.9376C3.06234 19.6648 2.90909 19.2949 2.90909 18.9091V8.72727H29.0909V11.6364H32V4.36364C32 3.20633 31.5403 2.09642 30.7219 1.27808C29.9036 0.459739 28.7937 0 27.6364 0ZM30.5455 13.0909C28.7788 13.0054 27.0474 12.5651 25.4545 11.7964C25.1927 11.6642 24.897 11.6144 24.6062 11.6533C24.3155 11.6922 24.0433 11.8182 23.8255 12.0145C22.3364 12.8705 20.6196 13.2463 18.9091 13.0909C18.5233 13.0909 18.1534 13.2442 17.8806 13.5169C17.6078 13.7897 17.4545 14.1597 17.4545 14.5455V21.8182C17.4545 25.44 22.9673 28.3782 24.0727 28.9309C24.2758 29.0332 24.4999 29.0865 24.7273 29.0865C24.9546 29.0865 25.1788 29.0332 25.3818 28.9309C26.4873 28.3782 32 25.44 32 21.8182V14.5455C32 14.1597 31.8468 13.7897 31.574 13.5169C31.3012 13.2442 30.9312 13.0909 30.5455 13.0909Z" fill="#0033A0"/>
</g>
</svg>
