<svg width="32" height="32" viewBox="0 0 32 32" fill="none" xmlns="http://www.w3.org/2000/svg">
<g id="Frame" clip-path="url(#clip0_472_3431)">
<g id="Group">
<path id="Vector" d="M8 0.888001V13.28L14.503 15.337C14.7362 15.4102 14.9397 15.5562 15.0837 15.7537C15.2277 15.9512 15.3046 16.1896 15.303 16.434V20.571H20.571C20.8739 20.5718 21.1642 20.6925 21.3783 20.9067C21.5925 21.1208 21.7132 21.4111 21.714 21.714V32H24V0.888001C24 0.652488 23.9064 0.426622 23.7399 0.26009C23.5734 0.0935574 23.3475 5.63114e-07 23.112 5.63114e-07H8.889C8.7723 -0.000130854 8.65672 0.022741 8.54887 0.0673083C8.44102 0.111876 8.34301 0.177264 8.26044 0.259736C8.17788 0.342207 8.11238 0.440144 8.06769 0.547947C8.023 0.655749 8 0.771303 8 0.888001ZM13.714 13.714H11.43C11.2771 13.7185 11.1249 13.6923 10.9823 13.6369C10.8398 13.5816 10.7098 13.4981 10.6 13.3916C10.4903 13.2851 10.403 13.1576 10.3435 13.0167C10.2839 12.8758 10.2532 12.7244 10.2532 12.5715C10.2532 12.4186 10.2839 12.2672 10.3435 12.1263C10.403 11.9854 10.4903 11.858 10.6 11.7514C10.7098 11.6449 10.8398 11.5614 10.9823 11.5061C11.1249 11.4507 11.2771 11.4245 11.43 11.429H13.715C13.8679 11.4245 14.0201 11.4507 14.1627 11.5061C14.3052 11.5614 14.4352 11.6449 14.545 11.7514C14.6547 11.858 14.742 11.9854 14.8015 12.1263C14.8611 12.2672 14.8918 12.4186 14.8918 12.5715C14.8918 12.7244 14.8611 12.8758 14.8015 13.0167C14.742 13.1576 14.6547 13.2851 14.545 13.3916C14.4352 13.4981 14.3052 13.5816 14.1627 13.6369C14.0201 13.6923 13.8679 13.7185 13.715 13.714H13.714ZM13.714 9.143H11.43C11.1269 9.143 10.8361 9.02258 10.6218 8.80822C10.4074 8.59387 10.287 8.30314 10.287 8C10.287 7.69686 10.4074 7.40613 10.6218 7.19178C10.8361 6.97742 11.1269 6.857 11.43 6.857H13.715C14.0181 6.857 14.3089 6.97742 14.5232 7.19178C14.7376 7.40613 14.858 7.69686 14.858 8C14.858 8.30314 14.7376 8.59387 14.5232 8.80822C14.3089 9.02258 14.0181 9.143 13.715 9.143H13.714ZM13.714 4.571H11.43C11.2771 4.57552 11.1249 4.54932 10.9823 4.49394C10.8398 4.43856 10.7098 4.35513 10.6 4.24859C10.4903 4.14205 10.403 4.01457 10.3435 3.8737C10.2839 3.73284 10.2532 3.58145 10.2532 3.4285C10.2532 3.27555 10.2839 3.12416 10.3435 2.9833C10.403 2.84243 10.4903 2.71495 10.6 2.60841C10.7098 2.50187 10.8398 2.41844 10.9823 2.36306C11.1249 2.30768 11.2771 2.28148 11.43 2.286H13.715C13.8679 2.28148 14.0201 2.30768 14.1627 2.36306C14.3052 2.41844 14.4352 2.50187 14.545 2.60841C14.6547 2.71495 14.742 2.84243 14.8015 2.9833C14.8611 3.12416 14.8918 3.27555 14.8918 3.4285C14.8918 3.58145 14.8611 3.73284 14.8015 3.8737C14.742 4.01457 14.6547 4.14205 14.545 4.24859C14.4352 4.35513 14.3052 4.43856 14.1627 4.49394C14.0201 4.54932 13.8679 4.57552 13.715 4.571H13.714ZM20.571 18.286H18.286C17.9829 18.286 17.6921 18.1656 17.4778 17.9512C17.2634 17.7369 17.143 17.4461 17.143 17.143C17.143 16.8399 17.2634 16.5491 17.4778 16.3348C17.6921 16.1204 17.9829 16 18.286 16H20.572C20.8751 16 21.1659 16.1204 21.3802 16.3348C21.5946 16.5491 21.715 16.8399 21.715 17.143C21.715 17.4461 21.5946 17.7369 21.3802 17.9512C21.1659 18.1656 20.8751 18.286 20.572 18.286H20.571ZM20.571 13.714H18.286C17.9888 13.7052 17.7068 13.581 17.4997 13.3677C17.2926 13.1544 17.1768 12.8688 17.1768 12.5715C17.1768 12.2742 17.2926 11.9886 17.4997 11.7753C17.7068 11.562 17.9888 11.4378 18.286 11.429H20.572C20.7249 11.4245 20.8771 11.4507 21.0197 11.5061C21.1622 11.5614 21.2922 11.6449 21.402 11.7514C21.5117 11.858 21.599 11.9854 21.6585 12.1263C21.7181 12.2672 21.7488 12.4186 21.7488 12.5715C21.7488 12.7244 21.7181 12.8758 21.6585 13.0167C21.599 13.1576 21.5117 13.2851 21.402 13.3916C21.2922 13.4981 21.1622 13.5816 21.0197 13.6369C20.8771 13.6923 20.7249 13.7185 20.572 13.714H20.571ZM20.571 9.143H18.286C17.9829 9.143 17.6921 9.02258 17.4778 8.80822C17.2634 8.59387 17.143 8.30314 17.143 8C17.143 7.69686 17.2634 7.40613 17.4778 7.19178C17.6921 6.97742 17.9829 6.857 18.286 6.857H20.572C20.7221 6.857 20.8707 6.88656 21.0094 6.94401C21.1481 7.00145 21.2741 7.08564 21.3802 7.19178C21.4864 7.29791 21.5706 7.42392 21.628 7.56259C21.6854 7.70127 21.715 7.8499 21.715 8C21.715 8.1501 21.6854 8.29873 21.628 8.43741C21.5706 8.57608 21.4864 8.70209 21.3802 8.80822C21.2741 8.91436 21.1481 8.99855 21.0094 9.05599C20.8707 9.11344 20.7221 9.143 20.572 9.143H20.571ZM20.571 4.571H18.286C17.9888 4.56221 17.7068 4.43798 17.4997 4.22468C17.2926 4.01138 17.1768 3.72579 17.1768 3.4285C17.1768 3.13121 17.2926 2.84562 17.4997 2.63232C17.7068 2.41902 17.9888 2.29479 18.286 2.286H20.572C20.7249 2.28148 20.8771 2.30768 21.0197 2.36306C21.1622 2.41844 21.2922 2.50187 21.402 2.60841C21.5117 2.71495 21.599 2.84243 21.6585 2.9833C21.7181 3.12416 21.7488 3.27555 21.7488 3.4285C21.7488 3.58145 21.7181 3.73284 21.6585 3.8737C21.599 4.01457 21.5117 4.14205 21.402 4.24859C21.2922 4.35513 21.1622 4.43856 21.0197 4.49394C20.8771 4.54932 20.7249 4.57552 20.572 4.571H20.571Z" fill="#0033A0"/>
<path id="Vector_2" d="M6.51398 15.211L-1.84586e-05 17.27V25.487C-0.0321511 26.4152 0.163912 27.3372 0.570982 28.172C1.99998 31.006 5.59998 31.817 6.51398 31.99C7.42898 31.818 11.017 31.007 12.446 28.161C12.8508 27.3415 13.047 26.4346 13.017 25.521V17.27L6.51398 15.211ZM11.303 21.566L6.84598 26.01C6.74166 26.1185 6.6165 26.2049 6.478 26.2638C6.3395 26.3228 6.19052 26.3532 6.03998 26.3532C5.88945 26.3532 5.74046 26.3228 5.60196 26.2638C5.46347 26.2049 5.3383 26.1185 5.23398 26.01L2.86998 23.657C2.76406 23.5513 2.68003 23.4257 2.6227 23.2875C2.56537 23.1493 2.53586 23.0011 2.53586 22.8515C2.53586 22.7019 2.56537 22.5537 2.6227 22.4155C2.68003 22.2773 2.76406 22.1517 2.86998 22.046C3.08577 21.8318 3.37746 21.7117 3.68148 21.7117C3.9855 21.7117 4.2772 21.8318 4.49298 22.046L6.04698 23.589L9.68098 19.954C9.89677 19.7398 10.1885 19.6197 10.4925 19.6197C10.7965 19.6197 11.0882 19.7398 11.304 19.954C11.41 20.0597 11.4942 20.1853 11.5516 20.3237C11.6091 20.462 11.6386 20.6102 11.6386 20.76C11.6386 20.9098 11.6091 21.058 11.5516 21.1964C11.4942 21.3347 11.409 21.4603 11.303 21.566ZM12.572 32V31.639C13.3632 30.9555 14.0137 30.1244 14.487 29.192C15.0617 28.0447 15.3425 26.7726 15.304 25.49V22.857H19.429V32H12.572ZM26.286 10.031V32H32V10.031C32 9.79549 31.9064 9.56963 31.7399 9.4031C31.5734 9.23656 31.3475 9.14301 31.112 9.14301H27.174C26.9385 9.14301 26.7126 9.23656 26.5461 9.4031C26.3795 9.56963 26.286 9.79549 26.286 10.031ZM29.714 28.571H28.571C28.2738 28.5622 27.9918 28.438 27.7847 28.2247C27.5776 28.0114 27.4618 27.7258 27.4618 27.4285C27.4618 27.1312 27.5776 26.8456 27.7847 26.6323C27.9918 26.419 28.2738 26.2948 28.571 26.286H29.714C29.8669 26.2815 30.0191 26.3077 30.1617 26.3631C30.3042 26.4184 30.4342 26.5019 30.544 26.6084C30.6537 26.715 30.7409 26.8424 30.8005 26.9833C30.8601 27.1242 30.8908 27.2756 30.8908 27.4285C30.8908 27.5815 30.8601 27.7328 30.8005 27.8737C30.7409 28.0146 30.6537 28.1421 30.544 28.2486C30.4342 28.3551 30.3042 28.4386 30.1617 28.4939C30.0191 28.5493 29.8669 28.5755 29.714 28.571ZM29.714 24H28.571C28.2678 24 27.9771 23.8796 27.7628 23.6652C27.5484 23.4509 27.428 23.1601 27.428 22.857C27.428 22.5539 27.5484 22.2631 27.7628 22.0488C27.9771 21.8344 28.2678 21.714 28.571 21.714H29.714C30.0171 21.714 30.3078 21.8344 30.5222 22.0488C30.7366 22.2631 30.857 22.5539 30.857 22.857C30.857 23.1601 30.7366 23.4509 30.5222 23.6652C30.3078 23.8796 30.0171 24 29.714 24ZM29.714 19.429H28.571C28.2678 19.429 27.9771 19.3086 27.7628 19.0942C27.5484 18.8799 27.428 18.5891 27.428 18.286C27.428 17.9829 27.5484 17.6921 27.7628 17.4778C27.9771 17.2634 28.2678 17.143 28.571 17.143H29.714C29.8641 17.143 30.0127 17.1726 30.1514 17.23C30.2901 17.2875 30.4161 17.3716 30.5222 17.4778C30.6283 17.5839 30.7125 17.7099 30.77 17.8486C30.8274 17.9873 30.857 18.1359 30.857 18.286C30.857 18.4361 30.8274 18.5847 30.77 18.7234C30.7125 18.8621 30.6283 18.9881 30.5222 19.0942C30.4161 19.2004 30.2901 19.2846 30.1514 19.342C30.0127 19.3994 29.8641 19.429 29.714 19.429ZM29.714 14.857H28.571C28.2678 14.857 27.9771 14.7366 27.7628 14.5222C27.5484 14.3079 27.428 14.0171 27.428 13.714C27.428 13.4109 27.5484 13.1201 27.7628 12.9058C27.9771 12.6914 28.2678 12.571 28.571 12.571H29.714C29.8641 12.571 30.0127 12.6006 30.1514 12.658C30.2901 12.7155 30.4161 12.7996 30.5222 12.9058C30.6283 13.0119 30.7125 13.1379 30.77 13.2766C30.8274 13.4153 30.857 13.5639 30.857 13.714C30.857 13.8641 30.8274 14.0127 30.77 14.1514C30.7125 14.2901 30.6283 14.4161 30.5222 14.5222C30.4161 14.6284 30.2901 14.7126 30.1514 14.77C30.0127 14.8274 29.8641 14.857 29.714 14.857Z" fill="#0033A0"/>
</g>
</g>
<defs>
<clipPath id="clip0_472_3431">
<rect width="32" height="32" fill="white"/>
</clipPath>
</defs>
</svg>
