<svg width="32" height="32" viewBox="0 0 32 32" fill="none" xmlns="http://www.w3.org/2000/svg">
<g id="Group">
<path id="Vector" d="M12.2808 28.6261V31.4377C12.2808 31.5868 12.2215 31.7299 12.1161 31.8353C12.0106 31.9408 11.8676 32 11.7185 32H3.8461C3.69697 32 3.55394 31.9408 3.44849 31.8353C3.34303 31.7299 3.28379 31.5868 3.28379 31.4377V28.6261C3.28379 27.4331 3.75774 26.2889 4.60137 25.4452C5.445 24.6016 6.58921 24.1277 7.78228 24.1277C8.97535 24.1277 10.1196 24.6016 10.9632 25.4452C11.8068 26.2889 12.2808 27.4331 12.2808 28.6261ZM28.0255 28.6261V31.4377C28.0255 31.5868 27.9662 31.7299 27.8608 31.8353C27.7553 31.9408 27.6123 32 27.4632 32H19.5908C19.4417 32 19.2987 31.9408 19.1932 31.8353C19.0877 31.7299 19.0285 31.5868 19.0285 31.4377V28.6261C19.0285 27.4331 19.5024 26.2889 20.3461 25.4452C21.1897 24.6016 22.3339 24.1277 23.527 24.1277C24.7201 24.1277 25.8643 24.6016 26.7079 25.4452C27.5515 26.2889 28.0255 27.4331 28.0255 28.6261ZM3.28379 18.5045C2.85905 18.5049 2.44289 18.385 2.08347 18.1586C1.72405 17.9323 1.43606 17.6089 1.25282 17.2257C1.06958 16.8425 0.998572 16.4153 1.04802 15.9934C1.09748 15.5716 1.26536 15.1723 1.53226 14.8419C1.79916 14.5115 2.15415 14.2634 2.55617 14.1264C2.95819 13.9893 3.3908 13.9689 3.80394 14.0675C4.21708 14.166 4.59388 14.3796 4.89072 14.6834C5.18756 14.9871 5.39232 15.3688 5.4813 15.7841C4.47678 16.3855 3.74709 17.3557 3.44798 18.4877C3.39288 18.4922 3.34002 18.5045 3.28379 18.5045ZM11.1561 19.6292C11.1561 20.524 10.8007 21.3821 10.168 22.0149C9.53524 22.6476 8.67708 23.003 7.78228 23.003C6.88747 23.003 6.02932 22.6476 5.3966 22.0149C4.76387 21.3821 4.40841 20.524 4.40841 19.6292C4.40841 18.7344 4.76387 17.8762 5.3966 17.2435C6.02932 16.6108 6.88747 16.2553 7.78228 16.2553C8.67708 16.2553 9.53524 16.6108 10.168 17.2435C10.8007 17.8762 11.1561 18.7344 11.1561 19.6292ZM27.8602 18.4877C27.5611 17.3557 26.8314 16.3855 25.8268 15.7841C25.9158 15.3688 26.1205 14.9872 26.4173 14.6835C26.7141 14.3797 27.0908 14.1661 27.5039 14.0675C27.917 13.9689 28.3496 13.9893 28.7516 14.1262C29.1536 14.2632 29.5086 14.5112 29.7755 14.8415C30.0425 15.1718 30.2105 15.5709 30.26 15.9927C30.3096 16.4145 30.2388 16.8417 30.0557 17.2249C29.8726 17.6081 29.5848 17.9317 29.2255 18.1581C28.8662 18.3846 28.4502 18.5047 28.0255 18.5045C27.9692 18.5045 27.9164 18.4922 27.8602 18.4877ZM23.527 16.2553C24.4218 16.2553 25.28 16.6108 25.9127 17.2435C26.5454 17.8762 26.9009 18.7344 26.9009 19.6292C26.9009 20.524 26.5454 21.3821 25.9127 22.0149C25.28 22.6476 24.4218 23.003 23.527 23.003C22.6322 23.003 21.774 22.6476 21.1413 22.0149C20.5086 21.3821 20.1531 20.524 20.1531 19.6292C20.1531 18.7344 20.5086 17.8762 21.1413 17.2435C21.774 16.6108 22.6322 16.2553 23.527 16.2553ZM12.8667 0.215942C9.99666 3.09947 8.32997 7.15711 7.98471 12.183C5.39133 10.396 2.82719 10.6401 0.294544 13.0794C0.175335 13.1941 -0.0282222 13.0962 0.00326723 12.9332C1.23023 6.45647 6.36413 1.36531 12.8667 0.215942ZM31.0159 13.0794C28.4821 10.6401 25.9179 10.3949 23.3257 12.183C22.9793 7.15824 21.3137 3.1006 18.4437 0.215942C24.9463 1.36531 30.079 6.45647 31.3083 12.9332C31.3386 13.0962 31.1351 13.1941 31.0159 13.0794ZM16.7793 12.8196V22.4407C16.7793 22.5899 16.72 22.7329 16.6146 22.8383C16.5091 22.9438 16.3661 23.003 16.2169 23.003H15.0923C14.9432 23.003 14.8002 22.9438 14.6947 22.8383C14.5893 22.7329 14.53 22.5899 14.53 22.4407V12.8196C14.9079 12.7476 15.2835 12.7026 15.6546 12.7026C16.0269 12.7026 16.4014 12.7476 16.7793 12.8196Z" fill="#0033A0"/>
<path id="Vector_2" d="M21.4094 13.1749C17.5733 10.2959 13.7372 10.2959 9.90004 13.1749C9.78645 13.2604 9.62 13.1772 9.62563 13.0344C9.85842 7.11211 11.8704 2.72159 15.6547 0C19.4391 2.72159 21.451 7.11211 21.6838 13.0355C21.6894 13.1772 21.523 13.2604 21.4094 13.1749Z" fill="#0033A0"/>
</g>
</svg>
