<svg width="32" height="32" viewBox="0 0 32 32" fill="none" xmlns="http://www.w3.org/2000/svg">
<g id="Button container" clip-path="url(#clip0_472_3482)">
<g id="Button">
<path id="Vector" d="M25.0579 1.27681C24.9883 1.10285 24.8682 0.953728 24.7131 0.848686C24.5579 0.743644 24.3749 0.687501 24.1875 0.6875H16.6875C16.5001 0.687501 16.3171 0.743644 16.1619 0.848686C16.0068 0.953728 15.8867 1.10285 15.8171 1.27681L14.8028 3.8125H26.0723L25.0579 1.27681ZM23.125 19.75C23.125 17.5806 22.5239 15.5491 21.4804 13.8125H20.4375C19.3491 13.8125 18.3283 14.1072 17.4502 14.6206C18.6483 15.9939 19.375 17.7886 19.375 19.75C19.375 24.0578 15.8703 27.5625 11.5625 27.5625C7.25469 27.5625 3.75 24.0578 3.75 19.75C3.75 16.2385 6.07887 13.2609 9.27312 12.28C10.3424 10.6879 11.7376 9.34099 13.3664 8.3285C12.7697 8.23461 12.1665 8.18747 11.5625 8.1875C5.18687 8.1875 0 13.3744 0 19.75C0 26.1256 5.18687 31.3125 11.5625 31.3125C17.9381 31.3125 23.125 26.1256 23.125 19.75Z" fill="#0033A0"/>
<path id="Vector_2" d="M22.6819 8.40687L25.7898 5.6875H15.0852L18.1931 8.40687C12.8881 9.45475 8.875 14.1422 8.875 19.75C8.875 21.9194 9.47606 23.9509 10.5196 25.6875H11.5625C12.6509 25.6875 13.6718 25.3928 14.5498 24.8794C13.3517 23.5061 12.625 21.7114 12.625 19.75C12.625 15.4422 16.1297 11.9375 20.4375 11.9375C24.7453 11.9375 28.25 15.4422 28.25 19.75C28.25 23.2615 25.9211 26.2391 22.7269 27.22C21.6576 28.8121 20.2624 30.159 18.6336 31.1715C19.2303 31.2654 19.8335 31.3125 20.4375 31.3125C26.8131 31.3125 32 26.1256 32 19.75C32 14.1422 27.9869 9.45475 22.6819 8.40687Z" fill="#0033A0"/>
</g>
</g>
<defs>
<clipPath id="clip0_472_3482">
<rect width="32" height="32" fill="white"/>
</clipPath>
</defs>
</svg>
