<svg width="35" height="32" viewBox="0 0 35 32" fill="none" xmlns="http://www.w3.org/2000/svg">
<g id="Group">
<path id="Vector" d="M28.3655 3.58965C28.3655 3.03811 27.9183 2.59081 27.3664 2.59081H25.2071L28.3655 5.74679V3.58965ZM9.38525 11.9808H29.3643C29.7685 11.9808 30.1327 11.7375 30.2874 11.3642C30.363 11.1816 30.3827 10.9807 30.3442 10.7869C30.3056 10.5931 30.2104 10.4151 30.0707 10.2753L20.081 0.292434C19.691 -0.097478 19.0586 -0.097478 18.6687 0.292434L8.67922 10.2755C8.53945 10.4152 8.44425 10.5932 8.40564 10.7869C8.36704 10.9807 8.38677 11.1816 8.46235 11.3641C8.53793 11.5466 8.66595 11.7027 8.83022 11.8125C8.99449 11.9222 9.18768 11.9808 9.38525 11.9808ZM5.26264 17.6236H0.999057C0.447302 17.6236 0 18.0707 0 18.6226V31.0012C0 31.5527 0.447302 32 0.999057 32H5.26264C5.81434 32 6.26165 31.5527 6.26165 31.0012V18.6226C6.26165 18.0707 5.81434 17.6236 5.26264 17.6236ZM31.3842 22.1781L19.46 25.2866C19.297 25.3292 19.1292 25.3509 18.9607 25.3512C18.0076 25.3526 16.2083 25.3524 13.3206 25.3515C12.7695 25.3515 12.3231 24.9049 12.3231 24.3538C12.3231 23.8026 12.7699 23.3558 13.3211 23.3558H18.5044C19.6079 23.3558 20.5025 22.4614 20.5025 21.3577C20.5025 20.2542 19.6079 19.3598 18.5044 19.3598H8.25933V30.5759C11.0905 30.5763 18.1713 30.5772 19.8422 30.5732C20.0767 30.5728 20.3092 30.5309 20.5291 30.4495L32.5704 25.9987C35.2308 24.9664 34.0565 21.47 31.3842 22.1781Z" fill="#0033A0"/>
<path id="Vector_2" d="M28.3657 20.9006V13.9789H10.3843V17.3617H18.5044C20.7078 17.3617 22.5004 19.1543 22.5004 21.3577C22.5007 21.7341 22.4476 22.1087 22.3426 22.4702L28.3657 20.9006Z" fill="#0033A0"/>
</g>
</svg>
