<svg width="32" height="32" viewBox="0 0 32 32" fill="none" xmlns="http://www.w3.org/2000/svg">
<g id="Button container">
<g id="Button">
<path id="Vector" d="M14.1253 11.7312C14.1253 11.2135 14.5451 10.7937 15.0628 10.7937C15.5806 10.7937 16.0003 11.2135 16.0003 11.7312V17.0943C16.0161 17.0888 16.0317 17.0828 16.0476 17.0775L19.7726 15.8359V9.99875C19.7726 8.29319 18.385 6.90569 16.6795 6.90569H5.90166C4.19609 6.90569 2.80859 8.29325 2.80859 9.99875V24.5489C2.80859 25.9277 3.71559 27.0983 4.96416 27.4964V28.5906C4.96416 29.1084 5.38391 29.5281 5.90166 29.5281C6.41941 29.5281 6.83916 29.1084 6.83916 28.5906V27.642H15.045C14.4496 26.2744 14.1246 24.7727 14.1246 23.2119L14.1253 11.7312ZM8.45584 22.9322C8.45584 23.45 8.03609 23.8697 7.51834 23.8697C7.00059 23.8697 6.58084 23.45 6.58084 22.9322V11.7312C6.58084 11.2135 7.00059 10.7937 7.51834 10.7937C8.03609 10.7937 8.45584 11.2135 8.45584 11.7312V22.9322ZM12.2281 22.9322C12.2281 23.45 11.8083 23.8697 11.2906 23.8697C10.7728 23.8697 10.3531 23.45 10.3531 22.9322V11.7312C10.3531 11.2135 10.7728 10.7937 11.2906 10.7937C11.8083 10.7937 12.2281 11.2135 12.2281 11.7312V22.9322ZM9.41066 1.875H13.1706V5.03069H15.0456V1.86881C15.0455 0.838375 14.2072 0 13.1767 0H9.40447C8.37397 0 7.53566 0.838375 7.53566 1.86881V5.03062H9.41066V1.875Z" fill="#0033A0"/>
<path id="Vector_2" d="M28.5503 18.8563L22.8918 16.9702C22.6994 16.9061 22.4914 16.9061 22.299 16.9702L16.6406 18.8563C16.4539 18.9186 16.2915 19.0379 16.1765 19.1976C16.0614 19.3572 15.9995 19.5489 15.9995 19.7457V23.2119C15.9977 25.1459 16.6055 27.0313 17.7363 28.6003C18.8672 30.1693 20.4637 31.342 22.299 31.9519C22.4914 32.016 22.6995 32.016 22.8919 31.9519C24.7272 31.342 26.3237 30.1693 27.4546 28.6003C28.5854 27.0313 29.1931 25.1459 29.1913 23.2119V19.7457C29.1913 19.5489 29.1294 19.3572 29.0144 19.1976C28.8993 19.0379 28.7369 18.9186 28.5503 18.8563ZM25.274 24.2329L21.8903 26.2911C21.7437 26.3806 21.5754 26.4278 21.4037 26.4278C21.2567 26.4279 21.1118 26.3935 20.9806 26.3273C20.8494 26.2611 20.7357 26.1649 20.6485 26.0466L19.6495 24.6917C19.3421 24.275 19.4309 23.688 19.8476 23.3808C20.2643 23.0735 20.8513 23.1621 21.1585 23.579L21.6486 24.2435L24.2995 22.631C24.7418 22.362 25.3185 22.5024 25.5877 22.9448C25.8568 23.3871 25.7163 23.9638 25.274 24.2329Z" fill="#0033A0"/>
</g>
</g>
</svg>
