<svg width="32" height="32" viewBox="0 0 32 32" fill="none" xmlns="http://www.w3.org/2000/svg">
<g id="Text input" clip-path="url(#clip0_610_21676)">
<path id="Vector" d="M16 -0.000488281C7.16333 -0.000488281 0 7.16285 0 15.9995C0 24.8362 7.16333 31.9995 16 31.9995C24.8367 31.9995 32 24.8362 32 15.9995C32 7.16285 24.8367 -0.000488281 16 -0.000488281ZM22.5083 13.1062C22.515 13.2428 22.5167 13.3795 22.5167 13.5128C22.5167 17.6795 19.3483 22.4812 13.5517 22.4812C11.8388 22.484 10.1616 21.9921 8.72167 21.0645C8.96667 21.0945 9.21833 21.1062 9.47333 21.1062C10.95 21.1062 12.3083 20.6045 13.3867 19.7578C12.7295 19.7449 12.0928 19.5273 11.5652 19.1354C11.0376 18.7434 10.6454 18.1966 10.4433 17.5712C10.9153 17.6609 11.4014 17.6421 11.865 17.5162C11.1517 17.3719 10.5103 16.9855 10.0495 16.4223C9.5887 15.8591 9.33684 15.1539 9.33667 14.4262V14.3878C9.76167 14.6228 10.2483 14.7662 10.765 14.7828C10.0963 14.3377 9.62298 13.654 9.44174 12.8714C9.26051 12.0888 9.38508 11.2666 9.79 10.5728C10.5816 11.5462 11.5688 12.3424 12.6876 12.91C13.8065 13.4776 15.032 13.8039 16.285 13.8678C16.1257 13.1917 16.1943 12.4819 16.48 11.8487C16.7658 11.2155 17.2527 10.6945 17.8651 10.3666C18.4775 10.0387 19.1811 9.92238 19.8665 10.0356C20.5519 10.1489 21.1806 10.4854 21.655 10.9928C22.3603 10.8533 23.0366 10.5946 23.655 10.2278C23.4199 10.9581 22.9278 11.5781 22.27 11.9728C22.8947 11.8976 23.5048 11.7296 24.08 11.4745C23.6575 12.1077 23.1252 12.6602 22.5083 13.1062V13.1062Z" fill="white"/>
</g>
<defs>
<clipPath id="clip0_610_21676">
<rect width="32" height="32" fill="white"/>
</clipPath>
</defs>
</svg>
