<svg width="24" height="25" viewBox="0 0 24 25" fill="none" xmlns="http://www.w3.org/2000/svg">
<mask id="mask0_610_24901" style="mask-type:luminance" maskUnits="userSpaceOnUse" x="2" y="14" width="16" height="9">
<path fill-rule="evenodd" clip-rule="evenodd" d="M2 14.956H17.754V22.2949H2V14.956Z" fill="white"/>
</mask>
<g mask="url(#mask0_610_24901)">
<path fill-rule="evenodd" clip-rule="evenodd" d="M9.877 16.456C5.646 16.456 3.5 17.183 3.5 18.615C3.5 20.061 5.646 20.795 9.877 20.795C14.108 20.795 16.254 20.068 16.254 18.637C16.254 17.189 14.108 16.456 9.877 16.456ZM9.877 22.295C7.929 22.295 2 22.295 2 18.615C2 15.335 6.495 14.956 9.877 14.956C11.825 14.956 17.754 14.956 17.754 18.637C17.754 21.916 13.259 22.295 9.877 22.295Z" fill="white"/>
</g>
<path fill-rule="evenodd" clip-rule="evenodd" d="M9.87758 4C7.77358 4 6.06058 5.713 6.06058 7.818C6.05658 8.837 6.44858 9.792 7.16358 10.513C7.87958 11.233 8.83358 11.632 9.84958 11.636L9.87758 12.386V11.636C11.9826 11.636 13.6956 9.923 13.6956 7.818C13.6956 5.713 11.9826 4 9.87758 4ZM9.87758 13.136H9.84658C8.42758 13.131 7.09758 12.574 6.10058 11.57C5.10258 10.565 4.55558 9.231 4.56058 7.815C4.56058 4.886 6.94558 2.5 9.87758 2.5C12.8106 2.5 15.1956 4.886 15.1956 7.818C15.1956 10.75 12.8106 13.136 9.87758 13.136Z" fill="white"/>
<path fill-rule="evenodd" clip-rule="evenodd" d="M19.2031 13.9297C18.7891 13.9297 18.4531 13.5937 18.4531 13.1797V9.1687C18.4531 8.7547 18.7891 8.4187 19.2031 8.4187C19.6171 8.4187 19.9531 8.7547 19.9531 9.1687V13.1797C19.9531 13.5937 19.6171 13.9297 19.2031 13.9297Z" fill="white"/>
<path fill-rule="evenodd" clip-rule="evenodd" d="M21.2502 11.9238H17.1602C16.7462 11.9238 16.4102 11.5878 16.4102 11.1738C16.4102 10.7598 16.7462 10.4238 17.1602 10.4238H21.2502C21.6642 10.4238 22.0002 10.7598 22.0002 11.1738C22.0002 11.5878 21.6642 11.9238 21.2502 11.9238Z" fill="white"/>
</svg>
