<svg width="78" height="26" viewBox="0 0 78 26" fill="none" xmlns="http://www.w3.org/2000/svg">
<path d="M33.8521 25.1417H27.5343L31.4828 0.875257H37.8013L33.8521 25.1417ZM22.2193 0.875257L16.1962 17.5659L15.4835 13.9717L15.4841 13.973L13.3583 3.06017C13.3583 3.06017 13.1012 0.875257 10.3613 0.875257H0.40395L0.287109 1.28614C0.287109 1.28614 3.3321 1.91968 6.89572 4.0598L12.3846 25.1423H18.9673L29.0188 0.875257H22.2193ZM71.9121 25.1417H77.7132L72.6553 0.874608H67.5767C65.2315 0.874608 64.6602 2.68303 64.6602 2.68303L55.2377 25.1417H61.8236L63.1407 21.5372H71.1721L71.9121 25.1417ZM64.9601 16.5578L68.2797 7.47673L70.1472 16.5578H64.9601ZM55.7317 6.71078L56.6333 1.4997C56.6333 1.4997 53.8512 0.44165 50.951 0.44165C47.8158 0.44165 40.3704 1.81193 40.3704 8.47507C40.3704 14.7442 49.1088 14.8221 49.1088 18.115C49.1088 21.408 41.2708 20.8179 38.6841 18.7414L37.7448 24.1901C37.7448 24.1901 40.5658 25.5604 44.8759 25.5604C49.1873 25.5604 55.6915 23.3281 55.6915 17.2524C55.6915 10.943 46.8746 10.3555 46.8746 7.6124C46.8752 4.8686 53.0281 5.22106 55.7317 6.71078Z" fill="#2566AF"/>
</svg>
